<?xml version="1.0" standalone="no"?>
<!DOCTYPE svg PUBLIC "-//W3C//DTD SVG 1.1//EN" "http://www.w3.org/Graphics/SVG/1.1/DTD/svg11.dtd" >
<svg xmlns="http://www.w3.org/2000/svg" xmlns:xlink="http://www.w3.org/1999/xlink" version="1.1">
<metadata>
Created by FontForge 20190801 at Fri Mar 30 01:34:56 2007
 By Jimmy Wärting
KhmerOS - font for the Khmer language of Cambodia
Copyright 2007 Danh Hong
 
This font is free software; you can redistribute it and/or modify it under the terms of the GNU Lesser General Public License as published by the Free Software Foundation; either version 2.1 of the License, or (at your option) any later version.

This library is distributed in the hope that it will be useful, but WITHOUT ANY WARRANTY; without even the implied warranty of MERCHANTABILITY or FITNESS FOR A PARTICULAR PURPOSE.? See the GNU Lesser General Public License for more details.

You should have received a copy of the GNU Lesser General Public License along with this font; if not, write to the Free Software Foundation, Inc., 51 Franklin Street, Fifth Floor, Boston, MA 02110-1301  USA or visit http://www.gnu.org/licenses/lgpl.html
</metadata>
<defs>
<font id="KhmerOSMuolLight" horiz-adv-x="0" >
  <font-face 
    font-family="Khmer OS Muol Light"
    font-weight="400"
    font-style="italic"
    font-stretch="normal"
    units-per-em="2048"
    panose-1="2 0 5 0 0 0 0 2 0 4"
    ascent="1638"
    descent="-410"
    x-height="1073"
    cap-height="1493"
    bbox="-2301 -1310 5280 2501"
    underline-thickness="48"
    underline-position="-324"
    slope="9"
    unicode-range="U+0020-FB02"
  />
<missing-glyph 
 />
    <glyph glyph-name=".notdef" 
 />
    <glyph glyph-name="space" unicode=" " horiz-adv-x="600" 
 />
    <glyph glyph-name="space" unicode="&#xa0;" horiz-adv-x="600" 
 />
    <glyph glyph-name="exclam" unicode="!" horiz-adv-x="872" 
d="M622 1493v-692l-45 -457h-80l-45 457v692h170zM622 213v-213h-172v213h172z" />
    <glyph glyph-name="quotedbl" unicode="&#x22;" horiz-adv-x="727" 
d="M106 1452h190v-227l-55 -275h-80l-55 275v227zM434 1452h190v-227l-55 -275h-80l-55 275v227z" />
    <glyph glyph-name="numbersign" unicode="#" horiz-adv-x="1138" 
d="M993 1427l-74 -401h190v-139h-217l-63 -357h215v-139h-240l-80 -431h-155l77 431h-253l-80 -431h-156l78 431h-207v139h233l64 357h-221v139h248l73 401h156l-74 -401h256l72 401h158zM737 887h-254l-66 -357h256z" />
    <glyph glyph-name="dollar" unicode="$" horiz-adv-x="1138" 
d="M501 1577h121v-111q258 -18 354 -209q39 -77 43 -174v-20h-161q-2 158 -119 227q-41 23 -90 31q-13 2 -27 2v-510q205 -63 268 -98q174 -99 174 -316q0 -213 -139 -338q-22 -20 -49 -36q-100 -59 -254 -72v-211h-121v211q-315 21 -403 260q-33 94 -27 213h162
q14 -152 43 -201q4 -6 8 -14q72 -98 217 -117v557q-190 58 -258 107q-145 104 -145 299q0 299 286 385q54 16 117 24v111zM501 829v492q-196 -27 -231 -182q-6 -29 -6 -62q0 -184 237 -248zM622 633v-539q125 15 188 76q86 82 86 205q0 125 -96 186q-59 37 -178 72z" />
    <glyph glyph-name="percent" unicode="%" horiz-adv-x="1820" 
d="M407 1403q172 0 277 -135l37 -58q36 -75 36 -161q0 -162 -129 -267q-96 -80 -219 -80q-166 0 -272 129q-78 99 -78 222q0 166 129 272q96 78 219 78zM407 1260q-110 0 -172 -95l-24 -47q-11 -33 -11 -65q0 -109 92 -172q54 -35 117 -35q111 0 172 92q35 51 35 113
q0 116 -98 178q-49 31 -111 31zM1247 1452h135l-809 -1492h-135zM1409 659q174 0 278 -135q72 -94 72 -217q0 -162 -129 -266q-96 -79 -219 -79q-166 0 -273 128q-78 98 -78 221q0 166 132 271q96 77 217 77zM1409 516q-111 0 -172 -92q-35 -51 -35 -113q0 -112 96 -174
q51 -33 113 -33q110 0 172 93q35 51 35 110q0 117 -99 178l-47 21q-31 10 -63 10z" />
    <glyph glyph-name="ampersand" unicode="&#x26;" horiz-adv-x="1366" 
d="M1009 684h164q0 -192 -119 -375l250 -309h-223l-127 160q-100 -99 -158 -133q-115 -74 -270 -74q-238 0 -352 168q-68 100 -68 239q0 166 106 275q74 74 226 162q-144 180 -162 278q-4 27 -4 55q0 158 133 254q94 68 217 68q184 0 279 -135l30 -57q19 -43 23 -93
q2 -18 2 -37q0 -141 -113 -241q-59 -53 -170 -115l273 -334q65 115 63 244zM583 883q166 104 197 180q14 31 14 72q0 106 -92 153q-39 21 -86 21q-123 0 -164 -103q-12 -32 -12 -73q0 -68 51 -140zM856 281l-328 409q-193 -123 -234 -225q-16 -41 -16 -90q0 -133 111 -211
q71 -51 157 -51q138 0 277 133q16 16 33 35z" />
    <glyph glyph-name="quotesingle" unicode="'" horiz-adv-x="391" 
d="M98 1452h193v-227l-56 -275h-82l-55 275v227z" />
    <glyph glyph-name="parenleft" unicode="(" horiz-adv-x="1146" 
d="M584 1493h112q-253 -410 -278 -879q-2 -43 -2 -84q0 -477 250 -912q14 -27 30 -52h-112q-232 303 -307 696q-27 139 -27 268q0 367 190 734q64 125 144 229z" />
    <glyph glyph-name="parenright" unicode=")" horiz-adv-x="1146" 
d="M563 -434h-113q254 410 279 878q2 43 2 84q0 478 -250 914q-15 26 -31 51h113q231 -303 307 -696q26 -140 26 -269q0 -366 -190 -732q-63 -125 -143 -230z" />
    <glyph glyph-name="asterisk" unicode="*" horiz-adv-x="1321" 
d="M696 1493h129l-10 -229l217 77l39 -120l-222 -62l144 -182l-105 -74l-127 191l-129 -191l-102 74l141 182l-221 62l39 120l217 -77z" />
    <glyph glyph-name="plus" unicode="+" horiz-adv-x="1196" 
d="M1093 547v-144h-424v-423h-143v423h-424v144h424v424h143v-424h424z" />
    <glyph glyph-name="comma" unicode="," horiz-adv-x="569" 
d="M178 213h215v-245q0 -269 -215 -269v78q88 4 109 68q14 39 14 119v36h-123v213z" />
    <glyph glyph-name="hyphen" unicode="-" horiz-adv-x="681" 
d="M581 639v-147h-487v147h487z" />
    <glyph glyph-name="period" unicode="." horiz-adv-x="569" 
d="M391 213v-213h-213v213h213z" />
    <glyph glyph-name="slash" unicode="/" horiz-adv-x="569" 
d="M469 1493h113l-485 -1533h-113z" />
    <glyph glyph-name="zero" unicode="0" horiz-adv-x="1138" 
d="M563 1452q224 0 342 -168q118 -169 131 -506q2 -43 2 -88q0 -277 -70 -451q-71 -174 -212 -245q-86 -41 -193 -41q-180 0 -292 111q-112 110 -156 331q-27 135 -27 307q0 400 141 590q111 146 305 160h29zM563 1292q-145 0 -218 -148t-73 -444q0 -299 72 -448
q72 -150 215 -150q121 0 192 99q72 98 93 295q10 94 10 211q0 293 -73 439q-72 146 -218 146z" />
    <glyph glyph-name="one" unicode="1" horiz-adv-x="1138" 
d="M530 1034h-322v129q209 27 270 74q62 45 105 190q4 13 8 25h119v-1452h-180v1034z" />
    <glyph glyph-name="two" unicode="2" horiz-adv-x="1138" 
d="M581 1452q248 0 379 -164l39 -61q47 -90 47 -201q0 -270 -307 -438l-205 -111q-186 -108 -236 -209q-18 -41 -26 -90h764v-178h-967q14 262 117 399q86 113 291 230l188 106q197 113 197 287q0 147 -123 227q-72 45 -164 45q-154 0 -236 -116l-14 -25q-35 -66 -43 -205
h-180q6 205 78 316q122 188 401 188z" />
    <glyph glyph-name="three" unicode="3" horiz-adv-x="1138" 
d="M544 -47q-201 0 -319 94q-117 95 -150 283q-6 43 -10 92h180q9 -135 67 -211q58 -75 165 -92q34 -6 73 -6q107 0 176 40q70 41 103 121q22 58 22 129q0 133 -75 199t-226 66l-75 -2h-23v153q231 4 301 68q55 51 55 160q0 174 -143 229q-49 18 -113 18q-159 0 -231 -108
l-12 -21q-31 -59 -33 -182h-180q4 215 101 332q98 117 288 135q31 2 65 2q144 0 242 -48q99 -48 152 -144q49 -89 49 -207q0 -222 -203 -301q190 -66 231 -222q15 -53 15 -124q0 -252 -193 -375q-123 -78 -299 -78z" />
    <glyph glyph-name="four" unicode="4" horiz-adv-x="1138" 
d="M669 348h-612v191l659 913h134v-942h215v-162h-215v-348h-181v348zM669 510v635l-454 -635h454z" />
    <glyph glyph-name="five" unicode="5" horiz-adv-x="1138" 
d="M974 1452v-178h-604l-57 -406q120 88 268 88q246 0 377 -178q92 -125 92 -305q0 -264 -178 -412q-131 -108 -320 -108q-229 0 -362 137q-17 19 -31 37q-55 68 -88 229h180q32 -121 106 -182q75 -61 191 -61q207 0 285 166q33 73 33 170q0 223 -156 309q-70 39 -162 39
q-131 0 -223 -88q-21 -21 -43 -47h-166l109 790h749z" />
    <glyph glyph-name="six" unicode="6" horiz-adv-x="1138" 
d="M575 -47q-243 0 -365 177q-122 178 -122 532q0 378 131 583q115 172 320 203q34 4 69 4q236 0 348 -190q47 -82 64 -189h-180q-37 180 -187 213q-26 6 -57 6q-113 0 -188 -74q-74 -73 -109 -221q-27 -110 -27 -256q119 162 334 162q227 0 354 -170q91 -121 91 -291
q0 -243 -168 -383q-127 -106 -308 -106zM584 743q-174 0 -256 -135q-45 -73 -45 -170q0 -176 124 -270q74 -55 170 -55q156 0 238 129q51 82 51 186q0 209 -145 285q-60 30 -137 30z" />
    <glyph glyph-name="seven" unicode="7" horiz-adv-x="1138" 
d="M1065 1452v-152q-207 -274 -344 -550q-137 -275 -205 -553q-25 -97 -41 -197h-193q103 446 293 797q113 207 303 477h-784v178h971z" />
    <glyph glyph-name="eight" unicode="8" horiz-adv-x="1138" 
d="M800 764q250 -119 250 -363q0 -229 -176 -354q-129 -94 -312 -94q-254 0 -391 168q-96 119 -96 282q0 242 248 361q-148 92 -180 190q-17 47 -17 111q0 203 166 311q113 76 270 76q238 0 359 -156q78 -98 78 -231q0 -139 -93 -223l-65 -54q-18 -12 -41 -24zM562 1292
q-163 0 -225 -118l-20 -54l-6 -57q0 -143 124 -201q56 -26 127 -26q164 0 226 116q26 49 26 109q0 153 -133 209q-51 22 -119 22zM562 684q-182 0 -262 -131q-41 -68 -41 -154q0 -168 135 -245q70 -41 164 -41q187 0 267 133q41 67 41 153q0 168 -138 246q-71 39 -166 39z
" />
    <glyph glyph-name="nine" unicode="9" horiz-adv-x="1138" 
d="M552 1452q244 0 367 -177q122 -177 123 -532q0 -378 -134 -583q-108 -166 -307 -200q-41 -7 -82 -7q-235 0 -348 190q-47 82 -63 189h180q19 -90 65 -143q47 -53 121 -70q27 -6 58 -6q114 0 188 74t109 221q26 110 26 256q-143 -158 -332 -162q-229 0 -356 170
q-90 121 -90 291q0 243 168 383q127 106 307 106zM550 1294q-156 0 -237 -131l-31 -61l-17 -72q-4 -26 -4 -53q0 -104 37 -176q36 -71 109 -109q59 -30 137 -30q170 0 254 133q47 73 47 172q0 178 -125 272q-76 55 -170 55z" />
    <glyph glyph-name="colon" unicode=":" horiz-adv-x="569" 
d="M438 213v-213h-213v213h213zM438 1073v-213h-213v213h213z" />
    <glyph glyph-name="semicolon" unicode=";" horiz-adv-x="569" 
d="M440 1073v-213h-213v213h213zM225 213h215v-245q0 -269 -215 -269v78q88 4 109 68q14 39 14 119v36h-123v213z" />
    <glyph glyph-name="less" unicode="&#x3c;" horiz-adv-x="1196" 
d="M92 406v141l1001 424v-162l-806 -330l806 -336v-161z" />
    <glyph glyph-name="equal" unicode="=" horiz-adv-x="1196" 
d="M1093 723v-143h-991v143h991zM1093 371v-144h-991v144h991z" />
    <glyph glyph-name="greater" unicode="&#x3e;" horiz-adv-x="1196" 
d="M1103 547v-141l-1001 -424v161l807 330l-807 336v162z" />
    <glyph glyph-name="question" unicode="?" horiz-adv-x="1585" 
d="M968 408h-184v112q0 103 57 178q35 45 107 113q14 12 49 43q151 135 153 270q0 144 -125 205l-63 21q-35 8 -74 8q-168 0 -229 -119q-35 -70 -35 -201h-174q0 216 92 335q93 119 277 140q39 5 80 5q258 0 372 -170l33 -62q31 -74 31 -162q0 -143 -105 -264
q-39 -47 -100 -102q-129 -119 -150 -174q-12 -31 -12 -80v-96zM968 213v-213h-184v213h184z" />
    <glyph glyph-name="at" unicode="@" horiz-adv-x="2078" 
d="M1361 1026h170l-184 -573q-25 -72 -25 -103q0 -55 60 -82q20 -8 43 -8q131 0 239 148q105 145 105 323q0 246 -199 428q-203 189 -491 201h-31q-301 0 -533 -209l-69 -70q-203 -231 -203 -522q0 -289 215 -487q221 -205 553 -205q162 0 395 66l58 -137q-230 -86 -463 -86
q-369 0 -637 219q-250 204 -289 505q-6 47 -6 94q0 316 195 582q57 80 129 143q221 201 530 252q76 13 152 13q340 0 591 -207q238 -193 275 -469q6 -43 6 -86q0 -248 -176 -457q-156 -182 -381 -182q-197 0 -225 157q-135 -147 -291 -147q-168 0 -264 141q-70 101 -70 234
q0 223 162 395q158 170 364 172q172 0 250 -178zM1054 938q-135 0 -237 -145q-93 -129 -93 -293q0 -138 97 -207q49 -35 106 -35q119 0 209 133q68 98 100 271q9 45 11 79q6 111 -84 168q-50 29 -109 29z" />
    <glyph glyph-name="A" unicode="A" horiz-adv-x="1366" 
d="M970 449h-576l-157 -449h-203l532 1493h246l525 -1493h-213zM917 608l-230 680l-245 -680h475z" />
    <glyph glyph-name="B" unicode="B" horiz-adv-x="1366" 
d="M161 0v1493h606q211 0 324 -104q119 -107 119 -275q0 -229 -207 -326q215 -83 258 -247q12 -41 14 -88v-27q0 -180 -115 -301q-116 -125 -325 -125h-674zM351 850h369q148 0 217 53q82 64 82 185q0 120 -82 184q-69 53 -217 53h-369v-475zM1085 424q0 178 -146 235
q-53 23 -123 23h-465v-514h465q133 0 199 72q70 73 70 184z" />
    <glyph glyph-name="C" unicode="C" horiz-adv-x="1478" 
d="M1355 1030h-194q-31 154 -109 225q-110 91 -295 95q-262 0 -387 -236q-82 -153 -82 -383q0 -348 195 -510q121 -100 291 -100q223 0 328 158q12 16 20 34q45 86 68 232h196q-67 -592 -614 -592q-289 0 -457 174q-217 223 -217 602q0 375 209 602q168 187 473 187
q487 0 575 -488z" />
    <glyph glyph-name="D" unicode="D" horiz-adv-x="1478" 
d="M182 0v1493h575q334 0 496 -270l45 -88q68 -166 68 -387q0 -429 -238 -623q-149 -125 -371 -125h-575zM372 168h353q356 0 432 371q18 92 18 206q0 504 -344 570q-51 10 -106 10h-353v-1157z" />
    <glyph glyph-name="E" unicode="E" horiz-adv-x="1366" 
d="M374 680v-512h881v-168h-1071v1493h1034v-168h-844v-477h814v-168h-814z" />
    <glyph glyph-name="F" unicode="F" horiz-adv-x="1251" 
d="M374 680v-680h-190v1493h1001v-168h-811v-477h713v-168h-713z" />
    <glyph glyph-name="G" unicode="G" horiz-adv-x="1593" 
d="M1452 788v-796h-121l-47 198q-213 -237 -510 -237q-313 0 -506 233q-178 213 -178 545q0 361 209 586q29 31 61 57q174 144 447 144q366 0 532 -242q68 -100 92 -236h-194q-43 201 -238 275q-86 35 -194 35q-271 0 -416 -213q-109 -160 -109 -396q0 -258 125 -430
q17 -20 33 -39q148 -147 377 -151q233 0 369 164q100 123 100 295v41h-455v167h623z" />
    <glyph glyph-name="H" unicode="H" horiz-adv-x="1478" 
d="M1127 680h-765v-680h-193v1493h190v-645h768v645h191v-1493h-191v680z" />
    <glyph glyph-name="I" unicode="I" horiz-adv-x="569" 
d="M397 1493v-1493h-193v1493h193z" />
    <glyph glyph-name="J" unicode="J" horiz-adv-x="1024" 
d="M681 1493h191v-1120q0 -254 -185 -363q-100 -57 -237 -57q-254 0 -361 176q-55 94 -55 219v131h195v-96q0 -227 165 -264q27 -6 58 -6q119 0 182 92q47 69 47 237v1051z" />
    <glyph glyph-name="K" unicode="K" horiz-adv-x="1366" 
d="M351 522v-522h-190v1493h190v-756l744 756h246l-609 -608l615 -885h-225l-527 766z" />
    <glyph glyph-name="L" unicode="L" horiz-adv-x="1138" 
d="M353 1493v-1325h738v-168h-928v1493h190z" />
    <glyph glyph-name="M" unicode="M" horiz-adv-x="1705" 
d="M958 0h-201l-424 1251v-1251h-180v1493h264l443 -1300l434 1300h264v-1493h-180v1251z" />
    <glyph glyph-name="N" unicode="N" horiz-adv-x="1478" 
d="M1322 1493v-1493h-215l-772 1210v-1210h-180v1493h207l780 -1221v1221h180z" />
    <glyph glyph-name="O" unicode="O" horiz-adv-x="1593" 
d="M796 1518q356 0 555 -252l53 -78q115 -197 115 -465q0 -303 -168 -518q-41 -53 -90 -94q-187 -158 -463 -158q-342 0 -543 240q-178 213 -178 542q0 377 227 596q195 187 492 187zM796 1350q-266 0 -414 -209q-115 -164 -115 -406q0 -323 195 -493q137 -121 336 -121
q264 0 412 205q118 161 118 401q0 338 -200 508q-136 115 -332 115z" />
    <glyph glyph-name="P" unicode="P" horiz-adv-x="1366" 
d="M376 633v-633h-190v1493h616q330 0 426 -242q35 -84 35 -196q0 -199 -129 -316q-119 -106 -289 -106h-469zM376 801h398q209 0 270 151q21 49 21 111q0 184 -162 242l-70 16q-29 4 -59 4h-398v-524z" />
    <glyph glyph-name="Q" unicode="Q" horiz-adv-x="1593" 
d="M1500 -2l-96 -118l-215 177q-176 -104 -391 -104q-342 0 -543 240q-178 213 -178 542q0 377 227 596q197 187 494 187q340 0 541 -238q180 -213 180 -541q0 -352 -211 -583zM984 420l183 -150q161 183 161 467q0 322 -192 492q-139 121 -338 121q-268 0 -416 -209
q-115 -164 -115 -406q0 -325 195 -495q137 -119 334 -119q123 0 246 57l-152 127z" />
    <glyph glyph-name="R" unicode="R" horiz-adv-x="1478" 
d="M380 643v-643h-190v1493h688q348 0 432 -246q23 -67 23 -153q0 -201 -148 -306q-39 -26 -88 -51q127 -55 166 -137q35 -76 37 -252q4 -196 39 -252q18 -26 51 -49v-47h-231q-43 98 -43 244l2 133q0 223 -164 258q-37 8 -82 8h-492zM380 811h461q248 0 285 176q8 35 8 80
q0 135 -78 201q-65 57 -215 57h-461v-514z" />
    <glyph glyph-name="S" unicode="S" horiz-adv-x="1366" 
d="M1220 1055h-180q-2 227 -225 286q-66 17 -148 17q-213 0 -297 -127l-24 -49q-12 -35 -12 -76q0 -115 110 -172q51 -27 135 -49l375 -101q246 -67 303 -266q15 -51 15 -108q0 -172 -119 -301q-23 -23 -45 -41q-150 -115 -420 -115q-346 0 -502 213q-86 117 -88 309h180
q-2 -92 33 -162q18 -34 45 -67q104 -125 344 -125q182 0 275 63q90 64 104 178q2 15 2 29q0 156 -225 227l-49 15l-371 98q-293 76 -293 348q0 254 213 369q131 70 317 70q361 0 490 -228q57 -100 57 -235z" />
    <glyph glyph-name="T" unicode="T" horiz-adv-x="1251" 
d="M725 1325v-1325h-190v1325h-492v168h1171v-168h-489z" />
    <glyph glyph-name="U" unicode="U" horiz-adv-x="1478" 
d="M1130 1493h191v-1049q0 -266 -213 -399q-148 -92 -363 -92q-338 0 -487 207q-84 119 -84 284v1049h190v-1049q0 -239 226 -303q69 -20 155 -20q254 0 347 164q38 69 38 159v1049z" />
    <glyph glyph-name="V" unicode="V" horiz-adv-x="1366" 
d="M802 0h-204l-537 1493h205l438 -1264l414 1264h203z" />
    <glyph glyph-name="W" unicode="W" horiz-adv-x="1933" 
d="M1524 0h-209l-344 1227l-334 -1227h-209l-383 1493h213l281 -1212l331 1212h205l340 -1212l275 1212h213z" />
    <glyph glyph-name="X" unicode="X" horiz-adv-x="1366" 
d="M801 766l528 -766h-235l-408 623l-410 -623h-231l528 766l-495 727h231l383 -586l385 586h228z" />
    <glyph glyph-name="Y" unicode="Y" horiz-adv-x="1366" 
d="M792 586v-586h-191v586l-575 907h236l438 -727l426 727h227z" />
    <glyph glyph-name="Z" unicode="Z" horiz-adv-x="1251" 
d="M1190 1493v-172l-893 -1153h897v-168h-1137v168l897 1157h-840v168h1076z" />
    <glyph glyph-name="bracketleft" unicode="[" horiz-adv-x="569" 
d="M512 1493v-147h-211v-1632h211v-148h-381v1927h381z" />
    <glyph glyph-name="backslash" unicode="\" horiz-adv-x="569" 
d="M97 1493l485 -1533h-113l-485 1533h113z" />
    <glyph glyph-name="bracketright" unicode="]" horiz-adv-x="569" 
d="M47 -434v148h211v1632h-211v147h381v-1927h-381z" />
    <glyph glyph-name="asciicircum" unicode="^" horiz-adv-x="960" 
d="M403 1452h150l317 -778h-141l-250 614l-248 -614h-141z" />
    <glyph glyph-name="underscore" unicode="_" horiz-adv-x="1138" 
d="M1184 -258v-102h-1229v102h1229z" />
    <glyph glyph-name="glyph65" unicode="`" horiz-adv-x="681" 
d="M276 1516l197 -304h-123l-305 304h231z" />
    <glyph glyph-name="a" unicode="a" horiz-adv-x="1138" 
d="M1096 100v-128q-72 -19 -117 -19q-145 0 -172 129q-2 14 -4 29q-178 -156 -365 -158q-225 0 -313 153q-39 72 -39 164q0 209 188 287q74 31 267 55q32 4 77 11q150 18 173 77q6 17 6 41v45q0 132 -166 156q-35 4 -74 4q-211 0 -246 -153q-4 -19 -6 -37h-172q6 147 74 223
q112 125 356 125q361 0 400 -238q4 -26 4 -55v-631q0 -84 92 -84q18 0 37 4zM797 338v192q-66 -30 -234 -53q-18 -2 -41 -6q-217 -31 -250 -141q-8 -25 -8 -56q0 -133 137 -163q33 -9 74 -9q148 0 254 97q66 59 68 139z" />
    <glyph glyph-name="b" unicode="b" horiz-adv-x="1138" 
d="M110 1493h170v-565q117 176 332 176q262 0 383 -221q76 -140 76 -342q0 -330 -187 -488q-117 -100 -280 -100q-220 0 -340 184v-137h-154v1493zM579 944q-170 0 -250 -172q-49 -102 -49 -244q0 -256 141 -362q68 -53 158 -53q172 0 258 161q55 105 55 248q0 260 -147 369
q-76 51 -166 53z" />
    <glyph glyph-name="c" unicode="c" horiz-adv-x="1024" 
d="M964 713h-172q-27 198 -199 229l-55 4q-192 0 -264 -205q-33 -94 -33 -223q0 -280 162 -373q59 -34 139 -34q219 0 262 258h172q-22 -281 -235 -375q-88 -41 -203 -41q-264 0 -391 215q-84 143 -84 350q0 328 188 486q121 100 289 100q217 0 336 -139q8 -11 16 -21
q60 -88 72 -231z" />
    <glyph glyph-name="d" unicode="d" horiz-adv-x="1138" 
d="M1014 1493v-1493h-152v141q-119 -169 -295 -186q-22 -2 -47 -2q-266 0 -389 229q-78 146 -78 357q0 315 182 469q117 96 279 96q221 0 330 -166v555h170zM542 944q-174 0 -258 -168q-41 -78 -51 -182q-2 -33 -2 -66q0 -249 144 -360q73 -55 170 -55q170 0 249 168
q50 102 50 243q0 269 -148 373q-68 47 -154 47z" />
    <glyph glyph-name="e" unicode="e" horiz-adv-x="1138" 
d="M1050 479h-791q2 -147 58 -229q88 -139 258 -139q208 0 280 215h172q-45 -248 -258 -336q-90 -37 -201 -37q-278 0 -407 225q-80 139 -80 344q0 324 193 482q122 100 299 100q235 0 368 -168q41 -51 66 -115q43 -112 43 -342zM263 618h602q2 5 2 13q0 164 -120 256
q-78 59 -177 59q-174 0 -258 -153q-41 -74 -49 -175z" />
    <glyph glyph-name="f" unicode="f" horiz-adv-x="569" 
d="M528 1073v-139h-179v-934h-170v934h-143v139h143v182q0 181 152 230q45 14 100 14q47 0 97 -10v-141q-39 2 -60 2q-119 0 -119 -109v-168h179z" />
    <glyph glyph-name="g" unicode="g" horiz-adv-x="1138" 
d="M843 1073h158v-897q0 -315 -84 -446q-14 -20 -29 -39q-98 -123 -321 -135q-23 -2 -45 -2q-283 0 -385 180q-35 64 -43 144h174q12 -80 65 -123q74 -58 195 -58q166 0 238 101q61 84 61 292v55q-121 -167 -270 -188l-56 -4q-170 0 -295 131l-12 12q-135 158 -135 422
q0 313 174 475q117 111 283 111q200 0 327 -186v155zM534 946q-180 0 -256 -184q-41 -98 -41 -234q0 -284 160 -381q59 -36 139 -36q182 0 254 188q37 94 37 223q0 307 -168 396q-55 28 -125 28z" />
    <glyph glyph-name="h" unicode="h" horiz-adv-x="1138" 
d="M143 1493h170v-567q111 143 246 170q43 8 98 8q225 0 305 -152q33 -61 33 -141v-811h-170v743q0 113 -70 162q-65 49 -151 49q-172 0 -248 -157q-43 -86 -43 -205v-592h-170v1493z" />
    <glyph glyph-name="i" unicode="i" horiz-adv-x="426" 
d="M307 1073v-1073h-170v1073h170zM307 1493v-215h-172v215h172z" />
    <glyph glyph-name="j" unicode="j" horiz-adv-x="433" 
d="M144 1073h170v-1296q0 -211 -262 -223h-31q-26 0 -57 6v146q35 -2 41 -2q106 0 129 65q10 29 10 76v1228zM314 1493v-215h-170v215h170z" />
    <glyph glyph-name="k" unicode="k" horiz-adv-x="1024" 
d="M288 1493v-875l455 455h219l-373 -371l438 -702h-211l-362 582l-166 -164v-418h-170v1493h170z" />
    <glyph glyph-name="l" unicode="l" horiz-adv-x="433" 
d="M311 1493v-1493h-172v1493h172z" />
    <glyph glyph-name="m" unicode="m" horiz-adv-x="1651" 
d="M143 1073h158v-151q110 155 262 178q31 4 67 4q183 0 271 -133q10 -15 18 -31q111 133 240 156q41 8 90 8q250 0 301 -201q10 -45 10 -98v-805h-172v739q0 166 -129 205q-33 10 -69 10q-125 0 -201 -110q-51 -76 -51 -170v-674h-172v739q0 179 -146 209q-24 6 -53 6
q-127 0 -203 -114q-49 -74 -49 -166v-674h-172v1073z" />
    <glyph glyph-name="n" unicode="n" horiz-adv-x="1097" 
d="M143 1073h158v-180q110 174 266 203q41 8 90 8q215 0 301 -143q39 -66 39 -150v-811h-170v743q0 144 -121 193q-43 18 -100 18q-172 0 -248 -157q-43 -86 -43 -205v-592h-172v1073z" />
    <glyph glyph-name="o" unicode="o" horiz-adv-x="1097" 
d="M556 1104q312 0 428 -264q60 -133 60 -320q0 -342 -209 -487q-115 -80 -277 -80q-295 0 -417 244q-68 137 -68 331q0 357 215 500q113 76 268 76zM558 946q-190 0 -268 -188q-39 -99 -39 -230q0 -280 160 -378q63 -39 147 -39q185 0 265 180q43 96 43 231q0 297 -168 391
q-62 33 -140 33z" />
    <glyph glyph-name="p" unicode="p" horiz-adv-x="1138" 
d="M110 -446v1519h158v-162q121 193 342 193q260 0 383 -227q78 -146 78 -359q0 -315 -183 -469q-80 -67 -186 -87q-43 -9 -90 -9q-199 0 -330 160v-559h-172zM581 944q-170 0 -250 -172q-49 -102 -49 -244q0 -256 141 -362q68 -53 158 -53q172 0 258 166q53 102 53 243
q0 260 -145 369q-72 53 -166 53z" />
    <glyph glyph-name="q" unicode="q" horiz-adv-x="1138" 
d="M1014 -446h-170v569q-117 -170 -332 -170q-262 0 -383 221q-76 139 -76 342q0 330 186 488q117 100 281 100q219 0 342 -174v143h152v-1519zM545 944q-173 0 -259 -166q-55 -104 -55 -250q0 -249 144 -360q73 -55 170 -55q167 0 249 166q50 102 50 243q0 269 -146 373
q-67 49 -153 49z" />
    <glyph glyph-name="r" unicode="r" horiz-adv-x="730" 
d="M141 1073h158v-194q118 190 237 219q27 6 56 6q22 0 65 -6v-174q-147 -2 -211 -45q-6 -5 -12 -9q-121 -88 -121 -313v-557h-172v1073z" />
    <glyph glyph-name="s" unicode="s" horiz-adv-x="1024" 
d="M896 774h-180q-6 172 -215 172q-168 0 -215 -100q-12 -29 -12 -62q0 -92 135 -137q29 -8 63 -16l164 -39q242 -57 289 -201q14 -43 14 -98q0 -197 -184 -287q-106 -53 -258 -53q-397 0 -426 332q-2 16 -2 34h180q13 -96 49 -137q68 -71 213 -71q172 0 230 96q20 33 20 72
q0 94 -110 133l-56 16l-159 39q-244 59 -308 164q-32 57 -32 145q0 191 172 277q100 51 239 51q297 0 369 -207q20 -55 20 -123z" />
    <glyph glyph-name="t" unicode="t" horiz-adv-x="569" 
d="M520 1073v-139h-177v-735q0 -78 45 -90q19 -7 50 -7q51 0 82 9v-143q-80 -15 -140 -15q-182 0 -205 137q-2 14 -2 33v811h-145v139h145v295h170v-295h177z" />
    <glyph glyph-name="u" unicode="u" horiz-adv-x="1138" 
d="M987 0h-154v150q-114 -162 -266 -188q-41 -9 -92 -9q-219 0 -303 143q-39 66 -39 150v827h170v-760q0 -143 121 -192q45 -19 100 -19q174 0 252 160q41 86 41 203v608h170v-1073z" />
    <glyph glyph-name="v" unicode="v" horiz-adv-x="1024" 
d="M583 0h-186l-377 1073h193l286 -870l303 870h193z" />
    <glyph glyph-name="w" unicode="w" horiz-adv-x="1478" 
d="M1134 0h-194l-217 842l-207 -842h-193l-311 1073h188l220 -835l204 835h209l211 -835l213 835h193z" />
    <glyph glyph-name="x" unicode="x" horiz-adv-x="1024" 
d="M597 555l371 -555h-199l-268 412l-272 -412h-195l379 547l-359 526h195l258 -389l258 389h193z" />
    <glyph glyph-name="y" unicode="y" horiz-adv-x="1024" 
d="M794 1073h184l-477 -1298q-45 -117 -117 -170q-70 -51 -160 -51q-63 0 -114 27v153q55 -12 90 -12q92 0 129 82q4 10 8 22l65 170l-362 1077h182l275 -835z" />
    <glyph glyph-name="z" unicode="z" horiz-adv-x="1024" 
d="M907 1073v-151l-637 -772h665v-150h-872v154l641 770h-598v149h801z" />
    <glyph glyph-name="braceleft" unicode="{" horiz-adv-x="1000" 
d="M451 200q0 250 -76 275l-225 76v99l226 76q75 25 75 274q0 450 349 451h101v-151h-103q-198 0 -198 -299q0 -301 -199 -401q199 -101 200 -400q0 -300 200 -300h100v-150h-101q-349 0 -349 450z" />
    <glyph glyph-name="bar" unicode="|" horiz-adv-x="450" 
d="M150 -100v1400h150v-1400h-150z" />
    <glyph glyph-name="braceright" unicode="}" horiz-adv-x="1000" 
d="M550 1000q0 -250 76 -275l225 -76v-99l-226 -76q-75 -26 -75 -274q0 -450 -349 -451h-101v151h103q198 0 198 299q0 301 199 401q-200 101 -200 400q0 300 -200 300h-100v150h101q349 0 349 -450z" />
    <glyph glyph-name="asciitilde" unicode="~" horiz-adv-x="1200" 
d="M800 250q-149 0 -224 125l-38 63q-38 62 -138 62q-99 0 -99 -100v-150h-151v151q0 249 247 249h3q149 0 226 -125l37 -62q37 -63 138 -63q99 0 99 100v150h150v-150q0 -249 -250 -250z" />
    <glyph glyph-name="Adieresis" unicode="&#xc4;" horiz-adv-x="1100" 
d="M1062 0h-157l-127 400h-451l-123 -400h-156l402 1300h200zM731 550l-181 574l-176 -574h357zM450 1476q0 -75 -74 -75q-75 -1 -75 74t75 75q74 1 74 -74zM651 1476q0 75 75 75q74 -1 74 -75q0 -75 -75 -75t-74 75z" />
    <glyph glyph-name="Aring" unicode="&#xc5;" horiz-adv-x="1100" 
d="M350 1500q0 200 200 200t200 -200q0 -195 -190 -200h90l412 -1300h-157l-127 400h-451l-123 -400h-156l402 1300h90q-190 5 -190 200zM731 550l-181 574l-176 -574h357zM650 1500q0 100 -100 100t-100 -100t100 -100t100 100z" />
    <glyph glyph-name="Ccedilla" unicode="&#xc7;" horiz-adv-x="1150" 
d="M150 651q0 650 500 650q249 0 401 -101v-200q-99 150 -401 150q-350 0 -350 -500t350 -500q301 0 400 150v-199q-152 -101 -400 -101h-2l-48 -100q200 0 200 -175q1 -175 -249 -175q-100 0 -150 99l150 1q149 0 149 75q0 74 -99 74l-150 1l100 207q-401 61 -401 644z" />
    <glyph glyph-name="Eacute" unicode="&#xc9;" horiz-adv-x="1049" 
d="M950 1300v-150h-650v-350h600v-150h-600v-500h650v-150h-800v1300h800zM550 1400h-100l200 400h150z" />
    <glyph glyph-name="Ntilde" unicode="&#xd1;" horiz-adv-x="1100" 
d="M300 976v-976h-150v1300h151l499 -972v972h150v-1300h-151zM706 1400q-98 0 -175 50t-125 50q-49 0 -49 -100h-101q0 200 150 200q98 0 175 -50t125 -50q50 0 50 100h100q0 -200 -150 -200z" />
    <glyph glyph-name="Odieresis" unicode="&#xd6;" horiz-adv-x="1300" 
d="M150 650q0 650 500 650t500 -650t-500 -650t-500 650zM300 650q0 -500 350 -500t350 500t-350 500t-350 -500zM550 1476q0 -75 -74 -75q-75 -1 -75 74t75 75q74 1 74 -74zM751 1476q0 75 75 75q74 -1 74 -75q0 -75 -75 -75t-74 75z" />
    <glyph glyph-name="Udieresis" unicode="&#xdc;" horiz-adv-x="1200" 
d="M600 0q-450 0 -450 400v900h150v-900q0 -250 300 -250t300 250v900h150v-900q0 -400 -450 -400zM500 1476q0 -75 -74 -75q-75 -1 -75 74t75 75q74 1 74 -74zM701 1476q0 75 75 75q74 -1 74 -75q0 -75 -75 -75t-74 75z" />
    <glyph glyph-name="aacute" unicode="&#xe1;" horiz-adv-x="1050" 
d="M100 300q0 350 550 350h101v51q0 150 -251 150q-163 0 -349 -50v150q188 50 350 50q400 0 400 -300v-700h-150v159l-13 -10q-188 -150 -338 -150q-300 0 -300 300zM251 300q0 -149 150 -149q99 0 224 99l125 100v150h-100q-399 0 -399 -200zM500 1150h-100l200 400h150z
" />
    <glyph glyph-name="agrave" unicode="&#xe0;" horiz-adv-x="1050" 
d="M100 300q0 350 550 350h101v51q0 150 -251 150q-163 0 -349 -50v150q188 50 350 50q400 0 400 -300v-700h-150v159l-13 -10q-188 -150 -338 -150q-300 0 -300 300zM251 300q0 -149 150 -149q99 0 224 99l125 100v150h-100q-399 0 -399 -200zM700 1150h-100l-300 350h150z
" />
    <glyph glyph-name="acircumflex" unicode="&#xe2;" horiz-adv-x="1050" 
d="M100 300q0 350 550 350h101v51q0 150 -251 150q-161 0 -349 -50v150q189 50 350 50q400 0 400 -300v-700h-150v159l-13 -10q-188 -150 -338 -150q-300 0 -300 300zM651 500q-400 0 -400 -200q0 -149 150 -149q99 0 224 99l125 100l1 -3v153h-100zM751 1151l-200 199
l-201 -199h-100l301 399l300 -399h-100z" />
    <glyph glyph-name="adieresis" unicode="&#xe4;" horiz-adv-x="1050" 
d="M100 300q0 350 550 350h101v51q0 150 -251 150q-161 0 -349 -50v150q189 50 350 50q400 0 400 -300v-700h-150v159l-13 -10q-188 -150 -338 -150q-300 0 -300 300zM651 500q-400 0 -400 -200q0 -149 150 -149q99 0 224 99l125 100l1 -3v153h-100zM450 1226q0 -75 -74 -75
q-75 -1 -75 74t75 75q74 1 74 -74zM651 1226q0 75 75 75q74 -1 74 -75q0 -75 -75 -75t-74 75z" />
    <glyph glyph-name="atilde" unicode="&#xe3;" horiz-adv-x="1050" 
d="M100 300q0 350 550 350h101v51q0 150 -251 150q-161 0 -349 -50v150q189 50 350 50q400 0 400 -300v-700h-150v159l-13 -10q-188 -150 -338 -150q-300 0 -300 300zM651 500q-400 0 -400 -200q0 -149 150 -149q99 0 224 99l125 100l1 -3v153h-100zM676 1150q-98 0 -175 50
t-125 50q-49 0 -49 -100h-101q0 200 150 200q98 0 175 -50t125 -50q50 0 50 100h100q0 -200 -150 -200z" />
    <glyph glyph-name="aring" unicode="&#xe5;" horiz-adv-x="1050" 
d="M100 300q0 350 550 350h101v51q0 150 -251 150q-161 0 -349 -50v150q189 50 350 50q400 0 400 -300v-700h-150v159l-13 -10q-188 -150 -338 -150q-300 0 -300 300zM651 500q-400 0 -400 -200q0 -149 150 -149q99 0 224 99l125 100l1 -3v153h-100zM650 1250
q0 100 -100 100t-100 -100t100 -100t100 100zM350 1250q0 200 200 200t200 -200t-200 -200t-200 200z" />
    <glyph glyph-name="ccedilla" unicode="&#xe7;" horiz-adv-x="1050" 
d="M150 500q0 500 451 500q202 0 350 -100v-200q-99 150 -351 150q-299 0 -299 -350q0 -349 300 -350q251 0 350 150v-199q-134 -89 -303 -100l-48 -101q200 0 200 -175q1 -175 -249 -175q-100 0 -150 99l150 1q149 0 149 75q0 74 -99 74l-150 1l97 202q-398 28 -398 498z
" />
    <glyph glyph-name="eacute" unicode="&#xe9;" horiz-adv-x="1050" 
d="M501 1001q400 0 400 -400v-151h-650q18 -300 249 -300q249 0 401 150v-199q-151 -100 -401 -100h-2q-397 0 -397 496v4q0 500 400 500zM501 851q-210 0 -245 -251h494v3q0 246 -249 248zM500 1150h-100l200 400h150z" />
    <glyph glyph-name="egrave" unicode="&#xe8;" horiz-adv-x="1050" 
d="M501 1001q400 0 400 -400v-151h-650q18 -300 249 -300q249 0 401 150v-199q-151 -100 -401 -100h-2q-397 0 -397 496v4q0 500 400 500zM501 851q-210 0 -245 -251h494v3q0 246 -249 248zM700 1150h-100l-300 350h150z" />
    <glyph glyph-name="ecircumflex" unicode="&#xea;" horiz-adv-x="1050" 
d="M501 1001q400 0 400 -400v-151h-650q18 -300 249 -300q249 0 401 150v-199q-151 -100 -401 -100h-2q-397 0 -397 496v4q0 500 400 500zM501 851q-210 0 -245 -251h494v3q0 246 -249 248zM751 1151l-200 199l-201 -199h-100l301 399l300 -399h-100z" />
    <glyph glyph-name="edieresis" unicode="&#xeb;" horiz-adv-x="1050" 
d="M501 1001q400 0 400 -400v-151h-650q18 -300 249 -300q249 0 401 150v-199q-151 -100 -401 -100h-2q-397 0 -397 496v4q0 500 400 500zM501 851q-210 0 -245 -251h494v3q0 246 -249 248zM450 1226q0 -75 -74 -75q-75 -1 -75 74t75 75q74 1 74 -74zM651 1226q0 75 75 75
q74 -1 74 -75q0 -75 -75 -75t-74 75z" />
    <glyph glyph-name="iacute" unicode="&#xed;" horiz-adv-x="450" 
d="M150 1000h150v-1000h-150v1000zM250 1150h-100l200 400h150z" />
    <glyph glyph-name="igrave" unicode="&#xec;" horiz-adv-x="450" 
d="M150 1000h150v-1000h-150v1000zM300 1150h-100l-300 350h150z" />
    <glyph glyph-name="icircumflex" unicode="&#xee;" horiz-adv-x="450" 
d="M150 1000h150v-1000h-150v1000zM424 1101l-200 199l-201 -199h-100l301 399l300 -399h-100z" />
    <glyph glyph-name="idieresis" unicode="&#xef;" horiz-adv-x="450" 
d="M150 1000h150v-1000h-150v1000zM375 1300q75 0 75 -75t-75 -75t-75 75t75 75zM75 1300q75 0 75 -75t-75 -75t-75 75t75 75z" />
    <glyph glyph-name="ntilde" unicode="&#xf1;" horiz-adv-x="1100" 
d="M300 900q100 100 250 100q400 0 400 -400v-600h-150v600q0 250 -250 250t-250 -250v-600h-150v1000h150v-100zM706 1150q-98 0 -175 50t-125 50q-49 0 -49 -100h-101q0 200 150 200q98 0 175 -50t125 -50q50 0 50 100h100q0 -200 -150 -200z" />
    <glyph glyph-name="oacute" unicode="&#xf3;" horiz-adv-x="1100" 
d="M551 1001q400 0 400 -500q-2 -500 -401 -500h-2q-397 0 -397 496v4q0 500 400 500zM550 150q250 0 250 350v4q0 346 -250 346t-250 -350t250 -350zM500 1150h-100l200 400h150z" />
    <glyph glyph-name="ograve" unicode="&#xf2;" horiz-adv-x="1100" 
d="M551 1001q400 0 400 -500q-2 -500 -401 -500h-2q-397 0 -397 496v4q0 500 400 500zM550 150q250 0 250 350v4q0 346 -250 346t-250 -350t250 -350zM700 1150h-100l-300 350h150z" />
    <glyph glyph-name="ocircumflex" unicode="&#xf4;" horiz-adv-x="1100" 
d="M551 1001q400 0 400 -500q-2 -500 -401 -500h-2q-397 0 -397 496v4q0 500 400 500zM550 150q250 0 250 350v4q0 346 -250 346t-250 -350t250 -350zM751 1151l-200 199l-201 -199h-100l301 399l300 -399h-100z" />
    <glyph glyph-name="odieresis" unicode="&#xf6;" horiz-adv-x="1100" 
d="M551 1001q400 0 400 -500q-2 -500 -401 -500h-2q-397 0 -397 496v4q0 500 400 500zM550 150q250 0 250 350v4q0 346 -250 346t-250 -350t250 -350zM450 1226q0 -75 -74 -75q-75 -1 -75 74t75 75q74 1 74 -74zM651 1226q0 75 75 75q74 -1 74 -75q0 -75 -75 -75t-74 75z
" />
    <glyph glyph-name="otilde" unicode="&#xf5;" horiz-adv-x="1100" 
d="M551 1001q400 0 400 -500q-2 -500 -401 -500h-2q-397 0 -397 496v4q0 500 400 500zM550 150q250 0 250 350v4q0 346 -250 346t-250 -350t250 -350zM700 1150q-98 0 -175 50t-125 50q-49 0 -49 -100h-101q0 200 150 200q98 0 175 -50t125 -50q50 0 50 100h100
q0 -200 -150 -200z" />
    <glyph glyph-name="uacute" unicode="&#xfa;" horiz-adv-x="1100" 
d="M550 150q250 0 250 250v600h150v-1000h-150v100q-100 -100 -250 -100q-400 0 -400 400v600h150v-600q0 -250 250 -250zM500 1150h-100l200 400h150z" />
    <glyph glyph-name="ugrave" unicode="&#xf9;" horiz-adv-x="1100" 
d="M550 150q250 0 250 250v600h150v-1000h-150v100q-100 -100 -250 -100q-400 0 -400 400v600h150v-600q0 -250 250 -250zM700 1150h-100l-300 350h150z" />
    <glyph glyph-name="ucircumflex" unicode="&#xfb;" horiz-adv-x="1100" 
d="M550 150q250 0 250 250v600h150v-1000h-150v100q-100 -100 -250 -100q-400 0 -400 400v600h150v-600q0 -250 250 -250zM751 1151l-200 199l-201 -199h-100l301 399l300 -399h-100z" />
    <glyph glyph-name="udieresis" unicode="&#xfc;" horiz-adv-x="1100" 
d="M550 150q250 0 250 250v600h150v-1000h-150v100q-100 -100 -250 -100q-400 0 -400 400v600h150v-600q0 -250 250 -250zM450 1226q0 -75 -74 -75q-75 -1 -75 74t75 75q74 1 74 -74zM651 1226q0 75 75 75q74 -1 74 -75q0 -75 -75 -75t-74 75z" />
    <glyph glyph-name="dagger" unicode="&#x2020;" horiz-adv-x="1120" 
d="M100 925q90 75 215 75t225 -75q-100 -75 -225 -75t-215 75zM580 925q90 75 215 75t225 -75q-100 -75 -225 -75t-215 75zM560 940q-75 90 -75 215t75 225q75 -100 75 -225t-75 -215zM560 0q-75 610 -75 695q0 125 75 225q75 -100 75 -225q0 -85 -75 -695z" />
    <glyph glyph-name="degree" unicode="&#xb0;" horiz-adv-x="1100" 
d="M800 950q0 250 -250 250t-250 -250t250 -250t250 250zM201 950q0 350 349 350q350 0 350 -350t-350 -350q-349 0 -349 350z" />
    <glyph glyph-name="cent" unicode="&#xa2;" horiz-adv-x="1051" 
d="M903 1134l-69 -174q62 -23 117 -60v-200q-59 88 -170 125l-262 -667q37 -8 82 -8q251 0 350 150v-199q-152 -101 -350 -101q-76 0 -139 14l-72 -184l-92 37l70 179q-217 106 -217 454q0 500 450 500q72 0 137 -13l72 183zM601 850q-300 0 -300 -350q0 -227 125 -306
l256 651q-38 5 -81 5z" />
    <glyph glyph-name="sterling" unicode="&#xa3;" horiz-adv-x="600" 
d="M300 700v-450l300 -100v100h100v-100q0 -150 -100 -150l-300 100l-150 -100q-150 0 -150 125t150 125v450h-121v150h121v200q0 350 300 350h150v-150h-150q-150 0 -150 -199v-201h250v-150h-250z" />
    <glyph glyph-name="section" unicode="&#xa7;" horiz-adv-x="1050" 
d="M551 151q249 0 249 135q0 134 -249 134q-401 0 -401 290q0 142 96 215q-96 73 -96 215q0 291 400 291q251 0 351 -100v-201q-101 150 -350 150q-250 0 -250 -140q0 -131 219 -139h30v-1h1q399 0 399 -285q0 -145 -96 -219q96 -71 96 -211q0 -285 -399 -285
q-253 0 -401 100v200q152 -149 401 -149zM301 710q0 -140 250 -140h12q237 3 237 146q0 134 -249 134h-14q-236 -4 -236 -140z" />
    <glyph glyph-name="bullet" unicode="&#x2022;" horiz-adv-x="1100" 
d="M200 550q0 350 349 350q350 0 350 -350t-350 -350q-349 0 -349 350z" />
    <glyph glyph-name="paragraph" unicode="&#xb6;" horiz-adv-x="1050" 
d="M600 1800h450v-100h-100v-1700h-100v1700h-150v-1700h-100v800q-499 1 -499 497v4q0 500 499 499z" />
    <glyph glyph-name="germandbls" unicode="&#xdf;" horiz-adv-x="1050" 
d="M700 975q0 175 -200 175t-200 -150v-750q0 -250 -250 -250v150q100 0 100 100v750q0 300 350 300t350 -325q0 -151 -75 -232q175 -94 175 -343q0 -400 -450 -400h-100v150h100q300 0 300 250q0 128 -68.5 189t-231.5 61h-100v150h100q200 0 200 175z" />
    <glyph glyph-name="registered" unicode="&#xae;" horiz-adv-x="1500" 
d="M750 1300q650 0 650 -650t-650 -650t-650 650t650 650zM750 100q550 0 550 550t-550 550t-550 -550t550 -550zM688 1094q309 0 309 -275q0 -198 -162 -254l266 -364h-128l-250 344q-1 -1 -9 -1h-163v-343h-103v893h240zM894 819q0 172 -206 172h-137v-343h137
q206 0 206 171z" />
    <glyph glyph-name="copyright" unicode="&#xa9;" horiz-adv-x="1500" 
d="M750 1300q650 0 650 -650t-650 -650t-650 650t650 650zM750 100q550 0 550 550t-550 550t-550 -550t550 -550zM397 651q0 450 346 450q173 0 278 -70v-138q-69 103 -278 103q-242 0 -242 -346t242 -346q209 0 277 104v-138q-105 -70 -277 -70q-346 0 -346 451z" />
    <glyph glyph-name="trademark" unicode="&#x2122;" horiz-adv-x="1550" 
d="M50 1196v104h657v-104h-277v-795h-103v795h-277zM1364 1095l-242 -417l-242 417v-694h-104v899h104l242 -416l242 416h104v-899h-104v694z" />
    <glyph glyph-name="glyph139" unicode="&#xb4;" 
d="M50 1300h-100l200 400h150z" />
    <glyph glyph-name="dieresis" unicode="&#xa8;" 
d="M-100 1376q0 -75 -74 -75q-75 -1 -75 74t75 75q74 1 74 -74zM101 1376q0 75 75 75q74 -1 74 -75q0 -75 -75 -75t-74 75z" />
    <glyph glyph-name="AE" unicode="&#xc6;" horiz-adv-x="1400" 
d="M1350 1300v-150h-650v-350h600v-150h-600v-500h650v-150h-800v400h-223l-123 -400h-156l402 1300h900zM550 550v574l-176 -574h176z" />
    <glyph glyph-name="Oslash" unicode="&#xd8;" horiz-adv-x="1300" 
d="M1069 1392l-97 -198q178 -157 178 -544q0 -650 -500 -650q-138 0 -238 49l-91 -186l-89 44l97 198q-179 156 -179 545q0 650 500 650q138 0 238 -50l91 186zM300 650q0 -271 102 -395l417 855q-71 40 -169 40q-350 0 -350 -500zM650 150q350 0 350 500q0 269 -102 393
l-417 -853q70 -40 169 -40z" />
    <glyph glyph-name="plusminus" unicode="&#xb1;" horiz-adv-x="1250" 
d="M700 699v-399h-150v400h-400v150h400v400h150v-400h400v-151h-400zM150 0v150h950v-151z" />
    <glyph glyph-name="yen" unicode="&#xa5;" horiz-adv-x="1101" 
d="M100 250v100h376v200h-376v100h363l-398 650h176l309 -509l322 509h176l-411 -650h363v-100h-375v-200h375v-100h-375v-250h-149v250h-376z" />
    <glyph glyph-name="mu" unicode="&#xb5;" horiz-adv-x="1100" 
d="M550 150q250 0 250 250v600h150v-1000h-150v100q-100 -100 -250 -100q-155 0 -250 60v-410h-150v1350h150v-600q0 -250 250 -250z" />
    <glyph glyph-name="ordfeminine" unicode="&#xaa;" horiz-adv-x="1050" 
d="M100 915q0 193 303 193h56v28q0 82 -138 82q-90 0 -193 -27v82q104 28 193 28q221 0 221 -165v-385h-83v87l-7 -5q-104 -83 -186 -83q-166 0 -166 165zM183 915q0 -82 83 -82q55 0 124 55l69 55v82h-56q-220 0 -220 -110zM100 700h450v-50h-450v50z" />
    <glyph glyph-name="ordmasculine" unicode="&#xba;" horiz-adv-x="1050" 
d="M100 700h450v-50h-450v50zM325 1300q225 0 225 -275q-1 -275 -226 -275h-1q-223 0 -223 273v2q0 275 225 275zM324 832q141 0 141 192v3q0 190 -141 190q-140 0 -140 -193q0 -192 140 -192z" />
    <glyph glyph-name="ae" unicode="&#xe6;" horiz-adv-x="1650" 
d="M1151 1001q400 0 400 -400v-151h-650q18 -300 249 -300q249 0 401 150v-199q-151 -100 -401 -100h-2q-252 0 -344 199l-66 -50q-188 -150 -338 -150q-300 0 -300 300q0 350 550 350h101v51q0 150 -251 150q-163 0 -349 -50v150q188 50 350 50q258 0 350 -125
q100 125 300 125zM251 300q0 -149 150 -149q99 0 224 99l125 100v150h-100q-399 0 -399 -200zM1151 851q-210 0 -245 -251h494v3q0 246 -249 248z" />
    <glyph glyph-name="oslash" unicode="&#xf8;" horiz-adv-x="1100" 
d="M853 1134l-76 -192q174 -112 174 -441q-2 -500 -401 -500h-2q-74 0 -134 17l-74 -188l-92 37l75 191q-172 112 -172 439v4q0 500 400 500q75 0 135 -18l74 187zM550 850q-250 0 -250 -350q0 -203 83 -288l247 627q-37 11 -80 11zM550 150q250 0 250 350v4q0 199 -83 284
l-247 -628q36 -10 80 -10z" />
    <glyph glyph-name="questiondown" unicode="&#xbf;" horiz-adv-x="1100" 
d="M151 400q0 350 350 350v250h150v-400h-150q-200 0 -200 -201q0 -250 250 -250t250 151h150q0 -300 -400 -300h-3q-397 0 -397 400zM576 1300q75 0 75 -75t-75 -75t-75 75t75 75z" />
    <glyph glyph-name="exclamdown" unicode="&#xa1;" horiz-adv-x="450" 
d="M301 100q0 -100 -50 -100h-50q-50 0 -50 100t12.5 324t37.5 576h50q25 -352 37.5 -576t12.5 -324zM150 1224q0 32 22 54t53 22q32 0 54 -22t22 -54t-22 -54t-54 -22q-31 0 -53 22t-22 54z" />
    <glyph glyph-name="logicalnot" unicode="&#xac;" horiz-adv-x="1001" 
d="M1 850v150h1000v-500h-150v350h-850z" />
    <glyph glyph-name="florin" unicode="&#x192;" horiz-adv-x="600" 
d="M300 850v-500q0 -350 -300 -350h-150v150h150q150 0 150 199v501h-121v150h121v50q0 350 300 350h150v-150h-150q-150 0 -150 -199v-51h250v-150h-250z" />
    <glyph glyph-name="guillemotleft" unicode="&#xab;" horiz-adv-x="1099" 
d="M499 1100l-199 -200l199 -201v-100l-399 301l399 300v-100zM849 1100l-199 -200l199 -201v-100l-399 301l399 300v-100z" />
    <glyph glyph-name="guillemotright" unicode="&#xbb;" horiz-adv-x="1099" 
d="M600 699l199 200l-199 201v100l399 -301l-399 -300v100zM250 699l199 200l-199 201v100l399 -301l-399 -300v100z" />
    <glyph glyph-name="ellipsis" unicode="&#x2026;" horiz-adv-x="1750" 
d="M1600 75q0 -31 -22 -53t-53 -22t-53 22t-22 53t22 53t53 22t53 -22t22 -53zM952 75q0 -31 -22 -53t-53 -22t-53 22t-22 53t22 53t53 22t53 -22t22 -53zM300 75q0 -31 -22 -53t-53 -22t-53 22t-22 53t22 53t53 22t53 -22t22 -53z" />
    <glyph glyph-name="zerowidthspace" unicode="&#x200b;" 
 />
    <glyph glyph-name="Agrave" unicode="&#xc0;" horiz-adv-x="1100" 
d="M1062 0h-157l-127 400h-451l-123 -400h-156l402 1300h200zM731 550l-181 574l-176 -574h357zM700 1400h-100l-300 350h150z" />
    <glyph glyph-name="Atilde" unicode="&#xc3;" horiz-adv-x="1100" 
d="M1062 0h-157l-127 400h-451l-123 -400h-156l402 1300h200zM731 550l-181 574l-176 -574h357zM706 1400q-98 0 -175 50t-125 50q-49 0 -49 -100h-101q0 200 150 200q98 0 175 -50t125 -50q50 0 50 100h100q0 -200 -150 -200z" />
    <glyph glyph-name="Otilde" unicode="&#xd5;" horiz-adv-x="1300" 
d="M150 650q0 650 500 650t500 -650t-500 -650t-500 650zM300 650q0 -500 350 -500t350 500t-350 500t-350 -500zM796 1400q-98 0 -175 50t-125 50q-49 0 -49 -100h-101q0 200 150 200q98 0 175 -50t125 -50q50 0 50 100h100q0 -200 -150 -200z" />
    <glyph glyph-name="OE" unicode="&#x152;" horiz-adv-x="1600" 
d="M1500 1300v-150h-650v-350h600v-150h-600v-500h650v-150h-850q-500 0 -500 651q0 649 500 649h850zM300 650q0 -500 350 -500h50v1000h-50q-350 0 -350 -500z" />
    <glyph glyph-name="oe" unicode="&#x153;" horiz-adv-x="1700" 
d="M1200 1001q400 0 400 -400v-151h-650q18 -300 249 -300q249 0 401 150v-199q-151 -100 -401 -100h-2q-226 0 -323 160q-98 -160 -324 -160h-2q-397 0 -397 496v4q0 500 400 500q226 0 324 -161q98 161 325 161zM550 150q249 0 250 347v7q0 346 -250 346t-250 -350
t250 -350zM1200 851q-210 0 -245 -251h494v3q0 246 -249 248z" />
    <glyph glyph-name="endash" unicode="&#x2013;" horiz-adv-x="1100" 
d="M0 550v150h1100v-150h-1100z" />
    <glyph glyph-name="emdash" unicode="&#x2014;" horiz-adv-x="1800" 
d="M0 850h1800v-150h-1800v150z" />
    <glyph glyph-name="quotedblleft" unicode="&#x201c;" horiz-adv-x="699" 
d="M340 1017l-47 -21q-160 228 -182 276q-10 20 -10 38q0 38 48 60q21 10 39 10q38 0 59 -46l1 -3q16 -34 39 -112t53 -202zM600 1017l-47 -21q-160 228 -182 276q-31 66 38 98q21 10 39 10q38 0 59 -46l1 -3q16 -34 39 -112t53 -202z" />
    <glyph glyph-name="quotedblright" unicode="&#x201d;" horiz-adv-x="785" 
d="M139 1034l-39 33q137 242 171 283q25 30 53 30q25 0 52 -23q57 -47 10 -104l-3 -2q-24 -29 -84.5 -83t-159.5 -134zM417 1033l-39 33q137 243 171 283q25 30 54 30q24 0 51 -22q31 -26 31 -54q0 -24 -22 -50l-2 -3q-24 -29 -84.5 -83t-159.5 -134z" />
    <glyph glyph-name="quoteleft" unicode="&#x2018;" horiz-adv-x="448" 
d="M332 939l-47 -21q-160 228 -182 276q-31 66 38 98q67 31 98 -36l1 -3q16 -34 39 -112t53 -202z" />
    <glyph glyph-name="quoteright" unicode="&#x2019;" horiz-adv-x="495" 
d="M132 954l-39 33q137 242 171 283q47 56 105 7q57 -47 10 -104l-3 -2q-24 -29 -84.5 -83t-159.5 -134z" />
    <glyph glyph-name="divide" unicode="&#xf7;" horiz-adv-x="1150" 
d="M1000 450h-850v150h850v-150zM650 225q0 -31 -22 -53t-53 -22t-53 22t-22 53t22 53t53 22t53 -22t22 -53zM650 825q0 -31 -22 -53t-53 -22t-53 22t-22 53t22 53t53 22t53 -22t22 -53z" />
    <glyph glyph-name="ydieresis" unicode="&#xff;" horiz-adv-x="1100" 
d="M258 -400l209 489l-377 911h162l298 -716l306 716h163l-598 -1400h-163zM450 1226q0 -75 -74 -75q-75 -1 -75 74t75 75q74 1 74 -74zM651 1226q0 75 75 75q74 -1 74 -75q0 -75 -75 -75t-74 75z" />
    <glyph glyph-name="Ydieresis" unicode="&#x178;" horiz-adv-x="1101" 
d="M65 1300h176l309 -509l322 509h176l-423 -670v-630h-149v629zM450 1476q0 -75 -74 -75q-75 -1 -75 74t75 75q74 1 74 -74zM651 1476q0 75 75 75q74 -1 74 -75q0 -75 -75 -75t-74 75z" />
    <glyph glyph-name="currency" unicode="&#xa4;" horiz-adv-x="1100" 
d="M266 905l60 -61q84 56 223 56q140 0 224 -56l60 59l71 -70l-61 -60q56 -84 56 -223t-55 -223l59 -59l-71 -71l-59 59q-84 -56 -224 -56q-139 0 -223 55l-59 -59l-71 71l59 59q-56 84 -56 224t56 224l-59 60zM799 550q0 250 -250 250t-250 -250t250 -250t250 250z" />
    <glyph glyph-name="guilsinglleft" unicode="&#x2039;" horiz-adv-x="600" 
d="M500 600l-200 -200l200 -200v-100l-400 300l400 300v-100z" />
    <glyph glyph-name="guilsinglright" unicode="&#x203a;" horiz-adv-x="600" 
d="M100 200l199 200l-199 200v100l400 -300l-400 -300v100z" />
    <glyph glyph-name="daggerdbl" unicode="&#x2021;" horiz-adv-x="1250" 
d="M700 -1v-399h-150v400h-400v150h400v450h-400v150h400v400h150v-400h400v-151h-400v-449h400v-151h-400z" />
    <glyph glyph-name="periodcentered" unicode="&#xb7;" horiz-adv-x="600" 
d="M500 500q0 -200 -200 -200t-200 200t200 200t200 -200z" />
    <glyph glyph-name="quotesinglbase" unicode="&#x201a;" horiz-adv-x="450" 
d="M344 10q0 -21 -13 -43l-135 -234l-88 29l50 280q6 25 27.5 41t47.5 16q39 0 73 -25q38 -27 38 -64z" />
    <glyph glyph-name="quotedblbase" unicode="&#x201e;" horiz-adv-x="800" 
d="M344 10q0 -21 -13 -43l-135 -234l-88 29l50 280q6 25 27.5 41t47.5 16q39 0 73 -25q38 -27 38 -64zM686 10q0 -21 -13 -43l-135 -234l-88 29l50 280q6 25 27.5 41t47.5 16q39 0 73 -25q38 -27 38 -64z" />
    <glyph glyph-name="perthousand" unicode="&#x2030;" horiz-adv-x="2050" 
d="M294 -204l-144 80l895 1616l145 -79zM975 451q225 0 225 -225t-224 -225q-225 0 -225 225v3q0 222 224 222zM1050 225q0 75 -75 75t-75 -75t75 -75t75 75zM375 1301q225 0 225 -225t-224 -225q-225 0 -225 225v3q0 222 224 222zM450 1075q0 75 -75 75t-75 -75t75 -75
t75 75zM1675 451q225 0 225 -225t-224 -225q-225 0 -225 225v3q0 222 224 222zM1750 225q0 75 -75 75t-75 -75t75 -75t75 75z" />
    <glyph glyph-name="Acircumflex" unicode="&#xc2;" horiz-adv-x="1100" 
d="M1062 0h-157l-127 400h-451l-123 -400h-156l402 1300h200zM731 550l-181 574l-176 -574h357zM751 1401l-200 199l-201 -199h-100l301 399l300 -399h-100z" />
    <glyph glyph-name="Ecircumflex" unicode="&#xca;" horiz-adv-x="1049" 
d="M950 1300v-150h-650v-350h600v-150h-600v-500h650v-150h-800v1300h800zM751 1401l-200 199l-201 -199h-100l301 399l300 -399h-100z" />
    <glyph glyph-name="Aacute" unicode="&#xc1;" horiz-adv-x="1100" 
d="M1062 0h-157l-127 400h-451l-123 -400h-156l402 1300h200zM731 550l-181 574l-176 -574h357zM550 1400h-100l200 400h150z" />
    <glyph glyph-name="Edieresis" unicode="&#xcb;" horiz-adv-x="1049" 
d="M950 1300v-150h-650v-350h600v-150h-600v-500h650v-150h-800v1300h800zM450 1476q0 -75 -74 -75q-75 -1 -75 74t75 75q74 1 74 -74zM651 1476q0 75 75 75q74 -1 74 -75q0 -75 -75 -75t-74 75z" />
    <glyph glyph-name="Egrave" unicode="&#xc8;" horiz-adv-x="1049" 
d="M950 1300v-150h-650v-350h600v-150h-600v-500h650v-150h-800v1300h800zM700 1400h-100l-300 350h150z" />
    <glyph glyph-name="Iacute" unicode="&#xcd;" horiz-adv-x="650" 
d="M100 150h150v1000h-150v150h450v-150h-150v-1000h150v-150h-450v150zM350 1400h-100l200 400h150z" />
    <glyph glyph-name="Icircumflex" unicode="&#xce;" horiz-adv-x="650" 
d="M100 150h150v1000h-150v150h450v-150h-150v-1000h150v-150h-450v150zM526 1399l-200 199l-201 -199h-100l301 399l300 -399h-100z" />
    <glyph glyph-name="Idieresis" unicode="&#xcf;" horiz-adv-x="650" 
d="M100 150h150v1000h-150v150h450v-150h-150v-1000h150v-150h-450v150zM250 1476q0 -75 -74 -75q-75 -1 -75 74t75 75q74 1 74 -74zM401 1476q0 75 75 75q74 -1 74 -75q0 -75 -75 -75t-74 75z" />
    <glyph glyph-name="Igrave" unicode="&#xcc;" horiz-adv-x="650" 
d="M100 150h150v1000h-150v150h450v-150h-150v-1000h150v-150h-450v150zM400 1400h-100l-300 350h150z" />
    <glyph glyph-name="Oacute" unicode="&#xd3;" horiz-adv-x="1300" 
d="M150 650q0 650 500 650t500 -650t-500 -650t-500 650zM300 650q0 -500 350 -500t350 500t-350 500t-350 -500zM600 1400h-100l200 400h150z" />
    <glyph glyph-name="Ocircumflex" unicode="&#xd4;" horiz-adv-x="1300" 
d="M150 650q0 650 500 650t500 -650t-500 -650t-500 650zM300 650q0 -500 350 -500t350 500t-350 500t-350 -500zM850 1401l-200 199l-201 -199h-100l301 399l300 -399h-100z" />
    <glyph glyph-name="Ograve" unicode="&#xd2;" horiz-adv-x="1300" 
d="M150 650q0 650 500 650t500 -650t-500 -650t-500 650zM300 650q0 -500 350 -500t350 500t-350 500t-350 -500zM750 1400h-100l-300 350h150z" />
    <glyph glyph-name="Uacute" unicode="&#xda;" horiz-adv-x="1200" 
d="M600 0q-450 0 -450 400v900h150v-900q0 -250 300 -250t300 250v900h150v-900q0 -400 -450 -400zM600 1400h-100l200 400h150z" />
    <glyph glyph-name="Ucircumflex" unicode="&#xdb;" horiz-adv-x="1200" 
d="M600 0q-450 0 -450 400v900h150v-900q0 -250 300 -250t300 250v900h150v-900q0 -400 -450 -400zM801 1401l-200 199l-201 -199h-100l301 399l300 -399h-100z" />
    <glyph glyph-name="Ugrave" unicode="&#xd9;" horiz-adv-x="1200" 
d="M600 0q-450 0 -450 400v900h150v-900q0 -250 300 -250t300 250v900h150v-900q0 -400 -450 -400zM750 1400h-100l-300 350h150z" />
    <glyph glyph-name="circumflex" unicode="&#x2c6;" 
d="M200 1400l-200 200l-200 -200h-100l300 400l300 -400h-100z" />
    <glyph glyph-name="glyph196" unicode="&#x2dc;" 
d="M150 1400q-98 0 -175 50t-125 50q-49 0 -49 -100h-101q0 200 150 200q98 0 175 -50t125 -50q50 0 50 100h100q0 -200 -150 -200z" />
    <glyph glyph-name="macron" unicode="&#xaf;" 
d="M-400 1300v150h800v-150h-800z" />
    <glyph glyph-name="cedilla" unicode="&#xb8;" 
d="M150 100l-100 -200q200 0 200 -175t-250 -175q-100 0 -150 100h150q150 0 150 75t-100 75h-150l150 300h100z" />
    <glyph glyph-name="notequal" unicode="&#x2260;" horiz-adv-x="1100" 
d="M821 1185l-100 -236h230v-149h-294l-105 -249h399v-151h-463l-116 -274l-91 39l99 235h-230v151h294l106 249h-400v149h463l117 275z" />
    <glyph glyph-name="infinity" unicode="&#x221e;" horiz-adv-x="1700" 
d="M200 350q0 350 350 350q218 0 300 -136q82 136 300 136q350 0 350 -350t-350 -350q-218 0 -300 135q-82 -135 -300 -135q-350 0 -350 350zM1400 350q0 250 -250 250t-250 -250t250 -250t250 250zM800 350v12q-7 238 -250 238q-250 0 -250 -250t250 -250t250 250z" />
    <glyph glyph-name="lessequal" unicode="&#x2264;" horiz-adv-x="1250" 
d="M1101 249l-951 455v100l951 452l35 -145l-753 -357l753 -357zM150 1v149l1001 1v-150h-1001z" />
    <glyph glyph-name="greaterequal" unicode="&#x2265;" horiz-adv-x="1250" 
d="M150 0v150h1000v-150h-1000zM201 242l-35 147l765 362l-765 352l35 145l949 -452v-100z" />
    <glyph glyph-name="partialdiff" unicode="&#x2202;" horiz-adv-x="1100" 
d="M630 847q153 -27 235 -107l29 163q43 246 -104 272q-197 34 -183 108.5t210 39.5q295 -54 226 -446l-92 -518h-1q-73 -418 -467 -349q-394 70 -320 489q73 418 467 348zM509 158q246 -43 294 227q48 271 -199 315q-246 43 -294 -228q-47 -271 199 -314z" />
    <glyph glyph-name="summation" unicode="&#x2211;" horiz-adv-x="1100" 
d="M150 1500h800v-150h-650l400 -700l-400 -700h650v-150h-800v150l400 700l-400 700v150z" />
    <glyph glyph-name="product" unicode="&#x220f;" horiz-adv-x="1150" 
d="M150 1300h850v-1300h-150v1150h-550v-1150h-150v1300z" />
    <glyph glyph-name="pi" unicode="&#x3c0;" horiz-adv-x="1150" 
d="M150 1300h850v-1300h-150v1150h-550v-1150h-150v1300z" />
    <glyph glyph-name="integral" unicode="&#x222b;" horiz-adv-x="650" 
d="M600 1300q-200 0 -200 -200v-900q0 -350 -350 -350v150q200 0 200 200v900q0 350 350 350v-150z" />
    <glyph glyph-name="Omega" unicode="&#x3a9;" horiz-adv-x="1300" 
d="M1151 149l-1 -150h-400v501q250 0 250 350q0 300 -350 300t-350 -300q0 -350 250 -350v-500v-1h-400l1 150h250v222q-251 83 -251 479q0 450 500 450t500 -450q0 -395 -250 -478v-223h251z" />
    <glyph glyph-name="radical" unicode="&#x221a;" horiz-adv-x="1100" 
d="M456 0l-204 650l-203 88h330l175 -562l342 1124h154l-397 -1300h-197z" />
    <glyph glyph-name="approxequal" unicode="&#x2248;" horiz-adv-x="1100" 
d="M150 800v149q200 100 300 50t200.5 -50t300.5 70v-149q-200 -70 -300.5 -70t-200.5 50t-300 -50zM150 400v151q200 100 300 50t200.5 -50t300.5 70v-151q-200 -70 -300.5 -70t-200.5 50t-300 -50z" />
    <glyph glyph-name="Delta" unicode="&#x394;" horiz-adv-x="1100" 
d="M1062 0h-1014l402 1300h200zM550 1124l-300 -974h607z" />
    <glyph glyph-name="lozenge" unicode="&#x25ca;" horiz-adv-x="1600" 
d="M101 700l699 700l700 -700l-700 -700zM800 210l490 490l-490 490l-489 -490z" />
    <glyph glyph-name="fraction" unicode="&#x2044;" horiz-adv-x="1000" 
d="M177 -67l-128 78l775 1285l128 -77z" />
    <glyph glyph-name="fi" unicode="&#xfb01;" horiz-adv-x="950" 
d="M300 850v-850h-150v850h-121v150h121v50q0 350 300 350h350v-150h-350q-150 0 -150 -199v-51h500v-1000h-150v850h-350z" />
    <glyph glyph-name="fl" unicode="&#xfb02;" horiz-adv-x="950" 
d="M300 850v-850h-150v850h-121v150h121v50q0 350 300 350h350v-1400h-150v1250h-200q-150 0 -150 -199v-51h250v-150h-250z" />
    <glyph glyph-name="dotlessi" unicode="&#x131;" horiz-adv-x="450" 
d="M150 1000h150v-1000h-150v1000z" />
    <glyph glyph-name="breve" unicode="&#x2d8;" 
d="M-1 1400q-251 0 -300 349h100q51 -199 201 -199q151 0 200 199h100q-49 -349 -301 -349z" />
    <glyph glyph-name="dotaccent" unicode="&#x2d9;" 
d="M-100 1350q0 100 100 100t100 -100t-100 -100t-100 100z" />
    <glyph glyph-name="ring" unicode="&#x2da;" 
d="M-100 1350q0 -100 100 -100t100 100t-100 100t-100 -100zM0 1150q-200 0 -200 200t200 200t200 -200t-200 -200z" />
    <glyph glyph-name="hungarumlaut" unicode="&#x2dd;" horiz-adv-x="797" 
d="M132 954l-39 33q137 242 171 283q47 56 105 7q57 -47 10 -104l-3 -2q-24 -29 -84.5 -83t-159.5 -134zM432 954l-39 33q137 242 171 283q47 56 105 7q57 -47 10 -104l-3 -2q-24 -29 -84.5 -83t-159.5 -134z" />
    <glyph glyph-name="ogonek" unicode="&#x2db;" 
d="M150 100l-100 -200l-50 -100l-25 -50q-55 -100 25 -100q150 0 150 50t50 50h50q0 -200 -250 -200q-100 0 -125 75t25 175l150 300h100z" />
    <glyph glyph-name="caron" unicode="&#x2c7;" 
d="M-200 1800l200 -200l200 200h100l-300 -400l-300 400h100z" />
    <glyph glyph-name="Itilde" unicode="&#x128;" horiz-adv-x="650" 
d="M100 150h150v1000h-150v150h450v-150h-150v-1000h150v-150h-450v150zM476 1400q-98 0 -175 50t-125 50q-49 0 -49 -100h-101q0 200 150 200q98 0 175 -50t125 -50q50 0 50 100h100q0 -200 -150 -200z" />
    <glyph glyph-name="itilde" unicode="&#x129;" horiz-adv-x="450" 
d="M150 1000h150v-1000h-150v1000zM376 1200q-98 0 -175 50t-125 50q-49 0 -49 -100h-101q0 200 150 200q98 0 175 -50t125 -50q50 0 50 100h100q0 -200 -150 -200z" />
    <glyph glyph-name="Scaron" unicode="&#x160;" horiz-adv-x="1100" 
d="M551 151q248 0 250 249q0 200 -246 200h-4q-401 0 -401 350q0 351 400 351q251 0 351 -100v-201q-101 150 -350 150q-250 0 -250 -200t250 -200h3q396 0 396 -349q0 -400 -399 -401q-253 0 -401 100v200q152 -149 401 -149zM350 1800l200 -200l200 200h100l-300 -400
l-300 400h100z" />
    <glyph glyph-name="scaron" unicode="&#x161;" horiz-adv-x="1050" 
d="M551 151q249 0 249 135q0 134 -249 134q-401 0 -401 290q0 291 400 291q251 0 351 -100v-201q-101 150 -350 150q-250 0 -250 -140t250 -140q399 0 399 -285t-399 -285q-253 0 -401 100v200q152 -149 401 -149zM350 1550l200 -200l200 200h100l-300 -400l-300 400h100z
" />
    <glyph glyph-name="brokenbar" unicode="&#xa6;" horiz-adv-x="450" 
d="M150 0v800h150v-800h-150zM150 1000v800h150v-800h-150z" />
    <glyph glyph-name="Dstroke" unicode="&#x110;" horiz-adv-x="1149" 
d="M-1 600v150h150v550h400q500 0 500 -650t-500 -650h-400v600h-150zM899 650q0 500 -350 500h-250v-400h300v-150h-300v-450h250q350 0 350 500z" />
    <glyph glyph-name="eth" unicode="&#xf0;" horiz-adv-x="1100" 
d="M-94 1176l482 177l-255 420l128 78l271 -446l510 188l52 -141l-483 -177l254 -418q14 -18 24 -40h1q62 -119 62 -316q-2 -500 -401 -500h-2q-397 0 -397 496v4q0 500 400 500q27 0 52 -3l-136 224l-510 -187zM551 150q250 0 250 350v4q0 346 -250 346t-250 -350t250 -350
z" />
    <glyph glyph-name="Yacute" unicode="&#xdd;" horiz-adv-x="1106" 
d="M65 1300h176l309 -509l322 509h176l-423 -670v-630h-149v629zM600 1400h-100l200 400h150z" />
    <glyph glyph-name="yacute" unicode="&#xfd;" horiz-adv-x="1100" 
d="M258 -400l209 489l-377 911h162l298 -716l306 716h163l-598 -1400h-163zM500 1150h-100l200 400h150z" />
    <glyph glyph-name="Thorn" unicode="&#xde;" horiz-adv-x="1050" 
d="M150 1300h150v-250h200q450 0 450 -400t-450 -400h-200v-250h-150v1300zM800 650q0 250 -300 250h-200v-500h200q300 0 300 250z" />
    <glyph glyph-name="thorn" unicode="&#xfe;" horiz-adv-x="1050" 
d="M300 925q94 76 251 76q400 0 400 -500q-2 -500 -401 -500h-6q-149 0 -244 74v-475h-150v1700h150v-375zM550 150q250 0 250 350t-250 350t-250 -350t250 -350z" />
    <glyph glyph-name="minus" unicode="&#xad;" horiz-adv-x="1100" 
d="M150 400v150h800v-150h-800z" />
    <glyph glyph-name="multiply" unicode="&#xd7;" horiz-adv-x="1100" 
d="M656 574l282 -282l-106 -106l-283 283l-283 -283l-106 106l283 283l-283 283l106 106l283 -283l283 283l107 -107z" />
    <glyph glyph-name="onesuperior" unicode="&#xb9;" horiz-adv-x="400" 
d="M154 1092h-104v104q69 0 104 104h104v-796h104v-104h-312v104h104v588z" />
    <glyph glyph-name="twosuperior" unicode="&#xb2;" horiz-adv-x="850" 
d="M703 1033q0 -76 -106 -193l-305 -336h411v-104h-553v101l362 399q87 96 87 132q0 164 -173 164q-172 0 -172 -173h-104q0 277 276 277q277 0 277 -267z" />
    <glyph glyph-name="threesuperior" unicode="&#xb3;" horiz-adv-x="850" 
d="M427 1301q277 0 277 -248q0 -130 -83 -189q83 -67 83 -215q0 -249 -277 -249q-276 0 -276 243h104q0 -139 172 -139t172 145q0 167 -172 167h-69v104h69q91 0 131.5 35t40.5 98q0 144 -172 144t-172 -138h-104q0 242 276 242z" />
    <glyph glyph-name="onehalf" unicode="&#xbd;" horiz-adv-x="1550" 
d="M154 1092h-104v104q69 0 104 104h104v-796h104v-104h-312v104h104v588zM1450 633q0 -76 -106 -193l-305 -336h411v-104h-553v101l362 399q87 96 87 132q0 164 -172 164q-173 0 -173 -173h-104q0 277 277 277q276 0 276 -267zM1129 1301l-781 -1302h-116l780 1301z" />
    <glyph glyph-name="onequarter" unicode="&#xbc;" horiz-adv-x="1450" 
d="M154 1092h-104v104q69 0 104 104h104v-796h104v-104h-312v104h104v588zM1129 1301l-781 -1302h-116l780 1301zM1314 278v-278h-104v278h-450v90l450 532h104v-519h85v-103h-85zM1210 739l-303 -358h303v358z" />
    <glyph glyph-name="threequarters" unicode="&#xbe;" horiz-adv-x="1700" 
d="M1379 1301l-781 -1302h-116l780 1301zM1564 278v-278h-104v278h-450v90l450 532h104v-519h85v-103h-85zM1460 739l-303 -358h303v358zM427 1301q277 0 277 -248q0 -130 -83 -189q83 -67 83 -215q0 -249 -277 -249q-276 0 -276 243h104q0 -139 172 -139t172 145
q0 167 -172 167h-69v104h69q91 0 131.5 35t40.5 98q0 144 -172 144t-172 -138h-104q0 242 276 242z" />
    <glyph glyph-name="Lslash" unicode="&#x141;" horiz-adv-x="900" 
d="M-50 600l200 61v639h150v-593l300 93v-99l-300 -93v-458h500v-150h-650v562l-200 -62v100z" />
    <glyph glyph-name="lslash" unicode="&#x142;" horiz-adv-x="450" 
d="M-50 600l200 61v639h150v-593l300 93v-99l-300 -93v-608h-150v562l-200 -62v100z" />
    <glyph glyph-name="Zcaron" unicode="&#x17d;" horiz-adv-x="1100" 
d="M350 1800l200 -200l200 200h100l-300 -400l-300 400h100zM150 124l611 1026h-611v150h800v-126l-610 -1024h610v-150h-800v124z" />
    <glyph glyph-name="zcaron" unicode="&#x17e;" horiz-adv-x="1100" 
d="M150 131h1l590 719h-591v150h800v-133h-1l-589 -717h590v-150h-800v131zM350 1550l200 -200l200 200h100l-300 -400l-300 400h100z" />
    <glyph glyph-name="Euro" unicode="&#x20ac;" horiz-adv-x="1150" 
d="M50 850h114q69 451 486 451q249 0 401 -101v-200q-99 150 -401 150q-271 0 -333 -300h283v-100h-296q-4 -47 -4 -100t4 -100h296v-100h-283q61 -300 333 -300q301 0 400 150v-199q-152 -101 -400 -101q-416 0 -486 450h-113l-1 100h103q-3 48 -3 101q0 51 3 99h-102z" />
    <glyph glyph-name="Adotbelow" unicode="&#x1ea0;" horiz-adv-x="1100" 
d="M1062 0h-157l-127 400h-451l-123 -400h-156l402 1300h200zM731 550l-181 574l-176 -574h357zM476 -150h149v-150h-149v150z" />
    <glyph glyph-name="adotbelow" unicode="&#x1ea1;" horiz-adv-x="1050" 
d="M100 300q0 350 550 350h101v51q0 150 -251 150q-163 0 -349 -50v150q188 50 350 50q400 0 400 -300v-700h-150v159l-13 -10q-188 -150 -338 -150q-300 0 -300 300zM251 300q0 -149 150 -149q99 0 224 99l125 100v150h-100q-399 0 -399 -200zM476 -150h149v-150h-149v150z
" />
    <glyph glyph-name="Ahookabove" unicode="&#x1ea2;" horiz-adv-x="1100" 
d="M1062 0h-157l-127 400h-451l-123 -400h-156l402 1300h200zM731 550l-181 574l-176 -574h357zM600 1600q100 49 100 100q0 100 -125 100t-125 -50h-100q0 150 225 150t225 -200q0 -101 -100 -150l-50 -25q-50 -26 -50 -125h-100q0 151 100 200z" />
    <glyph glyph-name="ahookabove" unicode="&#x1ea3;" horiz-adv-x="1050" 
d="M100 300q0 350 550 350h101v51q0 150 -251 150q-163 0 -349 -50v150q188 50 350 50q400 0 400 -300v-700h-150v159l-13 -10q-188 -150 -338 -150q-300 0 -300 300zM251 300q0 -149 150 -149q99 0 224 99l125 100v150h-100q-399 0 -399 -200zM600 1350q100 49 100 100
q0 100 -125 100t-125 -50h-100q0 150 225 150t225 -200q0 -101 -100 -150l-50 -25q-50 -26 -50 -125h-100q0 151 100 200z" />
    <glyph glyph-name="Acircumflexacute" unicode="&#x1ea4;" horiz-adv-x="1100" 
d="M1062 0h-157l-127 400h-451l-123 -400h-156l402 1300h200zM800 1600h-99l150 -199h-100l-200 199l-201 -199h-100l301 399l149 -199l200 399h150zM731 550l-181 574l-176 -574h357z" />
    <glyph glyph-name="acircumflexacute" unicode="&#x1ea5;" horiz-adv-x="1050" 
d="M100 300q0 350 550 350h101v51q0 150 -251 150q-161 0 -349 -50v150q189 50 350 50q400 0 400 -300v-700h-150v159l-13 -10q-188 -150 -338 -150q-300 0 -300 300zM651 500q-400 0 -400 -200q0 -149 150 -149q99 0 224 99l125 100l1 -3v153h-100zM751 1151l-200 199
l-201 -199h-100l301 399l300 -399h-100zM800 1400h-100l200 400h150z" />
    <glyph glyph-name="Acircumflexgrave" unicode="&#x1ea6;" horiz-adv-x="1100" 
d="M1062 0h-157l-127 400h-451l-123 -400h-156l402 1300h200zM731 550l-181 574l-176 -574h357zM751 1401l-200 199l-201 -199h-100l301 399l300 -399h-100zM1000 1600h-100l-300 350h150z" />
    <glyph glyph-name="acircumflexgrave" unicode="&#x1ea7;" horiz-adv-x="1050" 
d="M100 300q0 350 550 350h101v51q0 150 -251 150q-161 0 -349 -50v150q189 50 350 50q400 0 400 -300v-700h-150v159l-13 -10q-188 -150 -338 -150q-300 0 -300 300zM651 500q-400 0 -400 -200q0 -149 150 -149q99 0 224 99l125 100l1 -3v153h-100zM751 1151l-200 199
l-201 -199h-100l301 399l300 -399h-100zM1000 1350h-100l-300 350h150z" />
    <glyph glyph-name="Acircumflexhookabove" unicode="&#x1ea8;" horiz-adv-x="1100" 
d="M1062 0h-157l-127 400h-451l-123 -400h-156l402 1300h200zM731 550l-181 574l-176 -574h357zM751 1401l-200 199l-201 -199h-100l301 399l300 -399h-100zM850 1800q100 49 100 100q0 100 -125 100t-125 -50h-100q0 150 225 150t225 -200q0 -101 -100 -150l-50 -25
q-50 -26 -50 -125h-100q0 151 100 200z" />
    <glyph glyph-name="acircumflexhookabove" unicode="&#x1ea9;" horiz-adv-x="1050" 
d="M100 300q0 350 550 350h101v51q0 150 -251 150q-161 0 -349 -50v150q189 50 350 50q400 0 400 -300v-700h-150v159l-13 -10q-188 -150 -338 -150q-300 0 -300 300zM651 500q-400 0 -400 -200q0 -149 150 -149q99 0 224 99l125 100l1 -3v153h-100zM751 1151l-200 199
l-201 -199h-100l301 399l300 -399h-100zM850 1550q100 49 100 100q0 100 -125 100t-125 -50h-100q0 150 225 150t225 -200q0 -101 -100 -150l-50 -25q-50 -26 -50 -125h-100q0 151 100 200z" />
    <glyph glyph-name="Acircumflexhooktilde" unicode="&#x1eaa;" horiz-adv-x="1100" 
d="M1062 0h-157l-127 400h-451l-123 -400h-156l402 1300h200zM731 550l-181 574l-176 -574h357zM751 1401l-200 199l-201 -199h-100l301 399l300 -399h-100zM706 1850q-98 0 -175 50t-125 50q-49 0 -49 -100h-101q0 200 150 200q98 0 175 -50t125 -50q50 0 50 100h100
q0 -200 -150 -200z" />
    <glyph glyph-name="acircumflextilde" unicode="&#x1eab;" horiz-adv-x="1050" 
d="M100 300q0 350 550 350h101v51q0 150 -251 150q-161 0 -349 -50v150q189 50 350 50q400 0 400 -300v-700h-150v159l-13 -10q-188 -150 -338 -150q-300 0 -300 300zM651 500q-400 0 -400 -200q0 -149 150 -149q99 0 224 99l125 100l1 -3v153h-100zM751 1151l-200 199
l-201 -199h-100l301 399l300 -399h-100zM706 1600q-98 0 -175 50t-125 50q-49 0 -49 -100h-101q0 200 150 200q98 0 175 -50t125 -50q50 0 50 100h100q0 -200 -150 -200z" />
    <glyph glyph-name="Acircumflexdotbelow" unicode="&#x1eac;" horiz-adv-x="1100" 
d="M1062 0h-157l-127 400h-451l-123 -400h-156l402 1300h200zM731 550l-181 574l-176 -574h357zM751 1401l-200 199l-201 -199h-100l301 399l300 -399h-100zM476 -150h149v-150h-149v150z" />
    <glyph glyph-name="acircumflexdotbelow" unicode="&#x1ead;" horiz-adv-x="1050" 
d="M100 300q0 350 550 350h101v51q0 150 -251 150q-161 0 -349 -50v150q189 50 350 50q400 0 400 -300v-700h-150v159l-13 -10q-188 -150 -338 -150q-300 0 -300 300zM651 500q-400 0 -400 -200q0 -149 150 -149q99 0 224 99l125 100l1 -3v153h-100zM751 1151l-200 199
l-201 -199h-100l301 399l300 -399h-100zM476 -150h149v-150h-149v150z" />
    <glyph glyph-name="Abreveacute" unicode="&#x1eae;" horiz-adv-x="1100" 
d="M1062 0h-157l-127 400h-451l-123 -400h-156l402 1300h200zM731 550l-181 574l-176 -574h357zM600 1700h-100l200 400h150zM549 1400q-251 0 -300 349h100q51 -199 201 -199q151 0 200 199h100q-49 -349 -301 -349z" />
    <glyph glyph-name="abreveacute" unicode="&#x1eaf;" horiz-adv-x="1050" 
d="M100 300q0 350 550 350h101v51q0 150 -251 150q-161 0 -349 -50v150q189 50 350 50q400 0 400 -300v-700h-150v159l-13 -10q-188 -150 -338 -150q-300 0 -300 300zM651 500q-400 0 -400 -200q0 -149 150 -149q99 0 224 99l125 100l1 -3v153h-100zM549 1100
q-251 0 -300 349h100q51 -199 201 -199q151 0 200 199h100q-49 -349 -301 -349zM600 1400h-100l200 400h150z" />
    <glyph glyph-name="Abrevegrave" unicode="&#x1eb0;" horiz-adv-x="1100" 
d="M1062 0h-157l-127 400h-451l-123 -400h-156l402 1300h200zM731 550l-181 574l-176 -574h357zM549 1400q-251 0 -300 349h100q51 -199 201 -199q151 0 200 199h100q-49 -349 -301 -349zM700 1700h-100l-300 350h150z" />
    <glyph glyph-name="abrevegrave" unicode="&#x1eb1;" horiz-adv-x="1050" 
d="M100 300q0 350 550 350h101v51q0 150 -251 150q-161 0 -349 -50v150q189 50 350 50q400 0 400 -300v-700h-150v159l-13 -10q-188 -150 -338 -150q-300 0 -300 300zM651 500q-400 0 -400 -200q0 -149 150 -149q99 0 224 99l125 100l1 -3v153h-100zM549 1100
q-251 0 -300 349h100q51 -199 201 -199q151 0 200 199h100q-49 -349 -301 -349zM700 1400h-100l-300 350h150z" />
    <glyph glyph-name="Abrevehookabove" unicode="&#x1eb2;" horiz-adv-x="1100" 
d="M1062 0h-157l-127 400h-451l-123 -400h-156l402 1300h200zM731 550l-181 574l-176 -574h357zM549 1400q-251 0 -300 349h100q51 -199 201 -199q151 0 200 199h100q-49 -349 -301 -349zM600 1900q100 49 100 100q0 100 -125 100t-125 -50h-100q0 150 225 150t225 -200
q0 -101 -100 -150l-50 -25q-50 -26 -50 -125h-100q0 151 100 200z" />
    <glyph glyph-name="abrevehookabove" unicode="&#x1eb3;" horiz-adv-x="1050" 
d="M100 300q0 350 550 350h101v51q0 150 -251 150q-161 0 -349 -50v150q189 50 350 50q400 0 400 -300v-700h-150v159l-13 -10q-188 -150 -338 -150q-300 0 -300 300zM651 500q-400 0 -400 -200q0 -149 150 -149q99 0 224 99l125 100l1 -3v153h-100zM549 1100
q-251 0 -300 349h100q51 -199 201 -199q151 0 200 199h100q-49 -349 -301 -349zM600 1600q100 49 100 100q0 100 -125 100t-125 -50h-100q0 150 225 150t225 -200q0 -101 -100 -150l-50 -25q-50 -26 -50 -125h-100q0 151 100 200z" />
    <glyph glyph-name="Abrevetilde" unicode="&#x1eb4;" horiz-adv-x="1100" 
d="M1062 0h-157l-127 400h-451l-123 -400h-156l402 1300h200zM731 550l-181 574l-176 -574h357zM549 1400q-251 0 -300 349h100q51 -199 201 -199q151 0 200 199h100q-49 -349 -301 -349zM706 1850q-98 0 -175 50t-125 50q-49 0 -49 -100h-101q0 200 150 200q98 0 175 -50
t125 -50q50 0 50 100h100q0 -200 -150 -200z" />
    <glyph glyph-name="abrevetilde" unicode="&#x1eb5;" horiz-adv-x="1050" 
d="M100 300q0 350 550 350h101v51q0 150 -251 150q-161 0 -349 -50v150q189 50 350 50q400 0 400 -300v-700h-150v159l-13 -10q-188 -150 -338 -150q-300 0 -300 300zM651 500q-400 0 -400 -200q0 -149 150 -149q99 0 224 99l125 100l1 -3v153h-100zM549 1100
q-251 0 -300 349h100q51 -199 201 -199q151 0 200 199h100q-49 -349 -301 -349zM706 1550q-98 0 -175 50t-125 50q-49 0 -49 -100h-101q0 200 150 200q98 0 175 -50t125 -50q50 0 50 100h100q0 -200 -150 -200z" />
    <glyph glyph-name="Abrevedotbelove" unicode="&#x1eb6;" horiz-adv-x="1100" 
d="M1062 0h-157l-127 400h-451l-123 -400h-156l402 1300h200zM731 550l-181 574l-176 -574h357zM549 1400q-251 0 -300 349h100q51 -199 201 -199q151 0 200 199h100q-49 -349 -301 -349zM476 -150h149v-150h-149v150z" />
    <glyph glyph-name="abrevedotbelove" unicode="&#x1eb7;" horiz-adv-x="1050" 
d="M100 300q0 350 550 350h101v51q0 150 -251 150q-161 0 -349 -50v150q189 50 350 50q400 0 400 -300v-700h-150v159l-13 -10q-188 -150 -338 -150q-300 0 -300 300zM651 500q-400 0 -400 -200q0 -149 150 -149q99 0 224 99l125 100l1 -3v153h-100zM549 1100
q-251 0 -300 349h100q51 -199 201 -199q151 0 200 199h100q-49 -349 -301 -349zM476 -150h149v-150h-149v150z" />
    <glyph glyph-name="Edotbelow" unicode="&#x1eb8;" horiz-adv-x="1050" 
d="M950 1300v-150h-650v-350h600v-150h-600v-500h650v-150h-800v1300h800zM476 -150h149v-150h-149v150z" />
    <glyph glyph-name="edotbelow" unicode="&#x1eb9;" horiz-adv-x="1050" 
d="M501 1001q400 0 400 -400v-151h-650q18 -300 249 -300q249 0 401 150v-199q-151 -100 -401 -100h-2q-397 0 -397 496v4q0 500 400 500zM501 851q-210 0 -245 -251h494v3q0 246 -249 248zM476 -150h149v-150h-149v150z" />
    <glyph glyph-name="Ehookabove" unicode="&#x1eba;" horiz-adv-x="1050" 
d="M950 1300v-150h-650v-350h600v-150h-600v-500h650v-150h-800v1300h800zM600 1600q100 49 100 100q0 100 -125 100t-125 -50h-100q0 150 225 150t225 -200q0 -101 -100 -150l-50 -25q-50 -26 -50 -125h-100q0 151 100 200z" />
    <glyph glyph-name="ehookabove" unicode="&#x1ebb;" horiz-adv-x="1050" 
d="M501 1001q400 0 400 -400v-151h-650q18 -300 249 -300q249 0 401 150v-199q-151 -100 -401 -100h-2q-397 0 -397 496v4q0 500 400 500zM501 851q-210 0 -245 -251h494v3q0 246 -249 248zM600 1350q100 49 100 100q0 100 -125 100t-125 -50h-100q0 150 225 150t225 -200
q0 -101 -100 -150l-50 -25q-50 -26 -50 -125h-100q0 151 100 200z" />
    <glyph glyph-name="Etilde" unicode="&#x1ebc;" horiz-adv-x="1050" 
d="M950 1300v-150h-650v-350h600v-150h-600v-500h650v-150h-800v1300h800zM706 1450q-98 0 -175 50t-125 50q-49 0 -49 -100h-101q0 200 150 200q98 0 175 -50t125 -50q50 0 50 100h100q0 -200 -150 -200z" />
    <glyph glyph-name="etilde" unicode="&#x1ebd;" horiz-adv-x="1050" 
d="M501 1001q400 0 400 -400v-151h-650q18 -300 249 -300q249 0 401 150v-199q-151 -100 -401 -100h-2q-397 0 -397 496v4q0 500 400 500zM501 851q-210 0 -245 -251h494v3q0 246 -249 248zM706 1200q-98 0 -175 50t-125 50q-49 0 -49 -100h-101q0 200 150 200q98 0 175 -50
t125 -50q50 0 50 100h100q0 -200 -150 -200z" />
    <glyph glyph-name="Ecircumflexacute" unicode="&#x1ebe;" horiz-adv-x="1049" 
d="M950 1300v-150h-650v-350h600v-150h-600v-500h650v-150h-800v1300h800zM751 1401l-200 199l-201 -199h-100l301 399l300 -399h-100zM800 1600h-100l200 400h150z" />
    <glyph glyph-name="ecircumflexacute" unicode="&#x1ebf;" horiz-adv-x="1050" 
d="M501 1001q400 0 400 -400v-151h-650q18 -300 249 -300q249 0 401 150v-199q-151 -100 -401 -100h-2q-397 0 -397 496v4q0 500 400 500zM501 851q-210 0 -245 -251h494v3q0 246 -249 248zM751 1151l-200 199l-201 -199h-100l301 399l300 -399h-100zM800 1390h-100l200 400
h150z" />
    <glyph glyph-name="Ecircumflexgrave" unicode="&#x1ec0;" horiz-adv-x="1050" 
d="M950 1300v-150h-650v-350h600v-150h-600v-500h650v-150h-800v1300h800zM751 1401l-200 199l-201 -199h-100l301 399l300 -399h-100zM1000 1600h-100l-300 350h150z" />
    <glyph glyph-name="ecircumflexgrave" unicode="&#x1ec1;" horiz-adv-x="1050" 
d="M501 1001q400 0 400 -400v-151h-650q18 -300 249 -300q249 0 401 150v-199q-151 -100 -401 -100h-2q-397 0 -397 496v4q0 500 400 500zM501 851q-210 0 -245 -251h494v3q0 246 -249 248zM751 1151l-200 199l-201 -199h-100l301 399l300 -399h-100zM1000 1350h-100
l-300 350h150z" />
    <glyph glyph-name="Ecircumflexhookabove" unicode="&#x1ec2;" horiz-adv-x="1049" 
d="M950 1300v-150h-650v-350h600v-150h-600v-500h650v-150h-800v1300h800zM751 1401l-200 199l-201 -199h-100l301 399l300 -399h-100zM850 1800q100 49 100 100q0 100 -125 100t-125 -50h-100q0 150 225 150t225 -200q0 -101 -100 -150l-50 -25q-50 -26 -50 -125h-100
q0 151 100 200z" />
    <glyph glyph-name="ecircumflexhookabove" unicode="&#x1ec3;" horiz-adv-x="1050" 
d="M501 1001q400 0 400 -400v-151h-650q18 -300 249 -300q249 0 401 150v-199q-151 -100 -401 -100h-2q-397 0 -397 496v4q0 500 400 500zM501 851q-210 0 -245 -251h494v3q0 246 -249 248zM751 1151l-200 199l-201 -199h-100l301 399l300 -399h-100zM850 1550
q100 49 100 100q0 100 -125 100t-125 -50h-100q0 150 225 150t225 -200q0 -101 -100 -150l-50 -25q-50 -26 -50 -125h-100q0 151 100 200z" />
    <glyph glyph-name="Ecircumflextilde" unicode="&#x1ec4;" horiz-adv-x="1049" 
d="M950 1300v-150h-650v-350h600v-150h-600v-500h650v-150h-800v1300h800zM751 1401l-200 199l-201 -199h-100l301 399l300 -399h-100zM706 1850q-98 0 -175 50t-125 50q-49 0 -49 -100h-101q0 200 150 200q98 0 175 -50t125 -50q50 0 50 100h100q0 -200 -150 -200z" />
    <glyph glyph-name="ecircumflextilde" unicode="&#x1ec5;" horiz-adv-x="1050" 
d="M501 1001q400 0 400 -400v-151h-650q18 -300 249 -300q249 0 401 150v-199q-151 -100 -401 -100h-2q-397 0 -397 496v4q0 500 400 500zM501 851q-210 0 -245 -251h494v3q0 246 -249 248zM751 1151l-200 199l-201 -199h-100l301 399l300 -399h-100zM706 1600
q-98 0 -175 50t-125 50q-49 0 -49 -100h-101q0 200 150 200q98 0 175 -50t125 -50q50 0 50 100h100q0 -200 -150 -200z" />
    <glyph glyph-name="Ecircumflexdotbelow" unicode="&#x1ec6;" horiz-adv-x="1050" 
d="M950 1300v-150h-650v-350h600v-150h-600v-500h650v-150h-800v1300h800zM476 -150h149v-150h-149v150zM751 1401l-200 199l-201 -199h-100l301 399l300 -399h-100z" />
    <glyph glyph-name="ecircumflexdotbelow" unicode="&#x1ec7;" horiz-adv-x="1050" 
d="M501 1001q400 0 400 -400v-151h-650q18 -300 249 -300q249 0 401 150v-199q-151 -100 -401 -100h-2q-397 0 -397 496v4q0 500 400 500zM501 851q-210 0 -245 -251h494v3q0 246 -249 248zM476 -150h149v-150h-149v150zM751 1151l-200 199l-201 -199h-100l301 399l300 -399
h-100z" />
    <glyph glyph-name="Ihookabove" unicode="&#x1ec8;" horiz-adv-x="650" 
d="M250 150v1000h-150v150h450v-150h-150v-1000h150v-150h-450v150h150zM370 1600q100 49 100 100q0 100 -125 100t-125 -50h-100q0 150 225 150t225 -200q0 -101 -100 -150l-50 -25q-50 -26 -50 -125h-100q0 151 100 200z" />
    <glyph glyph-name="ihookabove" unicode="&#x1ec9;" horiz-adv-x="450" 
d="M300 1000v-1000h-150v1000h150zM250 1350q100 49 100 100q0 100 -125 100t-125 -50h-100q0 150 225 150t225 -200q0 -101 -100 -150l-50 -25q-50 -26 -50 -125h-100q0 151 100 200z" />
    <glyph glyph-name="Idotbelow" unicode="&#x1eca;" horiz-adv-x="650" 
d="M250 150v1000h-150v150h450v-150h-150v-1000h150v-150h-450v150h150zM250 -150h150v-150h-150v150z" />
    <glyph glyph-name="idotbelow" unicode="&#x1ecb;" horiz-adv-x="450" 
d="M150 1000h150v-1000h-150v1000zM150 1300h150v-150h-150v150zM150 -150h150v-150h-150v150z" />
    <glyph glyph-name="Abreve" unicode="&#x102;" horiz-adv-x="1100" 
d="M1062 0h-157l-127 400h-451l-123 -400h-156l402 1300h200zM731 550l-181 574l-176 -574h357zM549 1400q-251 0 -300 349h100q51 -199 201 -199q151 0 200 199h100q-49 -349 -301 -349z" />
    <glyph glyph-name="abreve" unicode="&#x103;" horiz-adv-x="1050" 
d="M100 300q0 350 550 350h101v51q0 150 -251 150q-161 0 -349 -50v150q189 50 350 50q400 0 400 -300v-700h-150v159l-13 -10q-188 -150 -338 -150q-300 0 -300 300zM651 500q-400 0 -400 -200q0 -149 150 -149q99 0 224 99l125 100l1 -3v153h-100zM549 1100
q-251 0 -300 349h100q51 -199 201 -199q151 0 200 199h100q-49 -349 -301 -349z" />
    <glyph glyph-name="dtroke" unicode="&#x111;" horiz-adv-x="1050" 
d="M501 1000q155 0 250 -74v175h-199v149h199v100h150v-100h100v-149h-100v-1101h-150v76q-96 -75 -250 -76q-400 0 -400 500t400 500zM501 150q249 0 250 350q0 350 -249 350q-251 0 -251 -350t250 -350z" />
    <glyph glyph-name="Ohorn" unicode="&#x1a0;" horiz-adv-x="1300" 
d="M150 650q0 650 500 650q195 0 314 -100v1h53q95 0 97 99q-100 0 -101 76q0 75 100 75t100 -150q0 -182 -164 -200q101 -160 101 -451q0 -650 -500 -650t-500 650zM300 650q0 -500 350 -500t350 500t-350 500t-350 -500z" />
    <glyph glyph-name="ohorn" unicode="&#x1a1;" horiz-adv-x="1100" 
d="M953 1151q100 0 100 -150q0 -179 -159 -199q56 -117 56 -302q0 -500 -400 -500t-400 500t400 500q178 0 276 -99h31q95 0 97 99q-100 0 -101 76q0 75 100 75zM550 150q250 0 250 350t-250 350t-250 -350t250 -350z" />
    <glyph glyph-name="Uhorn" unicode="&#x1af;" horiz-adv-x="1200" 
d="M1200 1500q100 0 100 -150q0 -200 -200 -200h-50v-750q0 -400 -450 -400t-450 400v900h150v-900q0 -250 300 -250t300 250v900h150v-50h50q100 0 100 100q-100 0 -100 75t100 75z" />
    <glyph glyph-name="uhorn" unicode="&#x1b0;" horiz-adv-x="1100" 
d="M1100 1200q100 0 100 -150q0 -200 -200 -200h-50v-850h-150v100q-100 -100 -250 -100q-400 0 -400 400v600h150v-600q0 -250 250 -250t250 250v600h150v-50h50q100 0 100 100q-100 0 -100 75t100 75z" />
    <glyph glyph-name="acute" unicode="&#x301;" 
d="M-50 1300l200 400h150l-250 -400h-100z" />
    <glyph glyph-name="grave" unicode="&#x300;" 
d="M-50 1300l-300 350h150l250 -350h-100z" />
    <glyph glyph-name="hookabove" unicode="&#x309;" 
d="M50 1500q100 49 100 100q0 100 -125 100t-125 -50h-100q0 150 225 150t225 -200q0 -101 -100 -150l-50 -25q-50 -26 -50 -125h-100q0 151 100 200z" />
    <glyph glyph-name="tilde" unicode="&#x303;" 
d="M150 1300q-98 0 -175 50t-125 50q-49 0 -49 -100h-101q0 200 150 200q98 0 175 -50t125 -50q50 0 50 100h100q0 -200 -150 -200z" />
    <glyph glyph-name="dotbelow" unicode="&#x323;" 
d="M-75 -500h151v-150h-151v150z" />
    <glyph glyph-name="Odotbelow" unicode="&#x1ecc;" horiz-adv-x="1300" 
d="M150 650q0 650 500 650t500 -650t-500 -650t-500 650zM300 650q0 -500 350 -500t350 500t-350 500t-350 -500zM575 -150h150v-150h-150v150z" />
    <glyph glyph-name="odotbelow" unicode="&#x1ecd;" horiz-adv-x="1100" 
d="M550 1000q400 0 400 -500t-400 -500t-400 500t400 500zM550 150q250 0 250 350t-250 350t-250 -350t250 -350zM475 -150h150v-150h-150v150z" />
    <glyph glyph-name="Ohookabove" unicode="&#x1ece;" horiz-adv-x="1300" 
d="M150 650q0 650 500 650t500 -650t-500 -650t-500 650zM300 650q0 -500 350 -500t350 500t-350 500t-350 -500zM700 1600q100 49 100 100q0 100 -125 100t-125 -50h-100q0 150 225 150t225 -200q0 -101 -100 -150l-50 -25q-50 -26 -50 -125h-100q0 151 100 200z" />
    <glyph glyph-name="ohookabove" unicode="&#x1ecf;" horiz-adv-x="1100" 
d="M551 1001q400 0 400 -500q-2 -500 -401 -500h-2q-397 0 -397 496v4q0 500 400 500zM550 150q250 0 250 350v4q0 346 -250 346t-250 -350t250 -350zM600 1350q100 49 100 100q0 100 -125 100t-125 -50h-100q0 150 225 150t225 -200q0 -101 -100 -150l-50 -25
q-50 -26 -50 -125h-100q0 151 100 200z" />
    <glyph glyph-name="Ocircumflexacute" unicode="&#x1ed0;" horiz-adv-x="1300" 
d="M150 650q0 650 500 650t500 -650t-500 -650t-500 650zM300 650q0 -500 350 -500t350 500t-350 500t-350 -500zM850 1401l-200 199l-201 -199h-100l301 399l300 -399h-100zM900 1600h-100l200 400h150z" />
    <glyph glyph-name="ocircumflexacute" unicode="&#x1ed1;" horiz-adv-x="1100" 
d="M551 1001q400 0 400 -500q-2 -500 -401 -500h-2q-397 0 -397 496v4q0 500 400 500zM550 150q250 0 250 350v4q0 346 -250 346t-250 -350t250 -350zM751 1151l-200 199l-201 -199h-100l301 399l300 -399h-100zM800 1390h-100l200 400h150z" />
    <glyph glyph-name="Ocircumflexgrave" unicode="&#x1ed2;" horiz-adv-x="1300" 
d="M150 650q0 650 500 650t500 -650t-500 -650t-500 650zM300 650q0 -500 350 -500t350 500t-350 500t-350 -500zM850 1401l-200 199l-201 -199h-100l301 399l300 -399h-100zM1050 1600h-100l-300 350h150z" />
    <glyph glyph-name="ocircumflexgrave" unicode="&#x1ed3;" horiz-adv-x="1100" 
d="M551 1001q400 0 400 -500q-2 -500 -401 -500h-2q-397 0 -397 496v4q0 500 400 500zM550 150q250 0 250 350v4q0 346 -250 346t-250 -350t250 -350zM751 1151l-200 199l-201 -199h-100l301 399l300 -399h-100zM1000 1350h-100l-300 350h150z" />
    <glyph glyph-name="Ocircumflexhookabove" unicode="&#x1ed4;" horiz-adv-x="1300" 
d="M150 650q0 650 500 650t500 -650t-500 -650t-500 650zM300 650q0 -500 350 -500t350 500t-350 500t-350 -500zM850 1401l-200 199l-201 -199h-100l301 399l300 -399h-100zM950 1800q100 49 100 100q0 100 -125 100t-125 -50h-100q0 150 225 150t225 -200
q0 -101 -100 -150l-50 -25q-50 -26 -50 -125h-100q0 151 100 200z" />
    <glyph glyph-name="ocircumflexhookabove" unicode="&#x1ed5;" horiz-adv-x="1100" 
d="M551 1001q400 0 400 -500q-2 -500 -401 -500h-2q-397 0 -397 496v4q0 500 400 500zM550 150q250 0 250 350v4q0 346 -250 346t-250 -350t250 -350zM751 1151l-200 199l-201 -199h-100l301 399l300 -399h-100zM850 1550q100 49 100 100q0 100 -125 100t-125 -50h-100
q0 150 225 150t225 -200q0 -101 -100 -150l-50 -25q-50 -26 -50 -125h-100q0 151 100 200z" />
    <glyph glyph-name="Ocircumflextilde" unicode="&#x1ed6;" horiz-adv-x="1300" 
d="M150 650q0 650 500 650t500 -650t-500 -650t-500 650zM300 650q0 -500 350 -500t350 500t-350 500t-350 -500zM850 1401l-200 199l-201 -199h-100l301 399l300 -399h-100zM796 1850q-98 0 -175 50t-125 50q-49 0 -49 -100h-101q0 200 150 200q98 0 175 -50t125 -50
q50 0 50 100h100q0 -200 -150 -200z" />
    <glyph glyph-name="ocircumflextilde" unicode="&#x1ed7;" horiz-adv-x="1100" 
d="M551 1001q400 0 400 -500q-2 -500 -401 -500h-2q-397 0 -397 496v4q0 500 400 500zM550 150q250 0 250 350v4q0 346 -250 346t-250 -350t250 -350zM751 1151l-200 199l-201 -199h-100l301 399l300 -399h-100zM706 1600q-98 0 -175 50t-125 50q-49 0 -49 -100h-101
q0 200 150 200q98 0 175 -50t125 -50q50 0 50 100h100q0 -200 -150 -200z" />
    <glyph glyph-name="Ocircumflexdotbelow" unicode="&#x1ed8;" horiz-adv-x="1300" 
d="M150 650q0 650 500 650t500 -650t-500 -650t-500 650zM300 650q0 -500 350 -500t350 500t-350 500t-350 -500zM850 1401l-200 199l-201 -199h-100l301 399l300 -399h-100zM575 -150h150v-150h-150v150z" />
    <glyph glyph-name="ocircumflexdotbelow" unicode="&#x1ed9;" horiz-adv-x="1100" 
d="M551 1001q400 0 400 -500q-2 -500 -401 -500h-2q-397 0 -397 496v4q0 500 400 500zM550 150q250 0 250 350v4q0 346 -250 346t-250 -350t250 -350zM751 1151l-200 199l-201 -199h-100l301 399l300 -399h-100zM475 -150h150v-150h-150v150z" />
    <glyph glyph-name="Ohornacute" unicode="&#x1eda;" horiz-adv-x="1300" 
d="M1113 1451q100 0 100 -150q0 -191 -180 -201l-69 101h53q95 0 97 99q-100 0 -101 76q0 75 100 75zM150 650q0 650 500 650t500 -650t-500 -650t-500 650zM300 650q0 -500 350 -500t350 500t-350 500t-350 -500zM600 1400h-100l200 400h150z" />
    <glyph glyph-name="ohornacute" unicode="&#x1edb;" horiz-adv-x="1100" 
d="M550 1000q400 0 400 -500t-400 -500t-400 500t400 500zM550 150q250 0 250 350t-250 350t-250 -350t250 -350zM953 1151q100 0 100 -150q0 -191 -180 -201l-69 101h53q95 0 97 99q-100 0 -101 76q0 75 100 75zM500 1150h-100l200 400h150z" />
    <glyph glyph-name="Ohorngrave" unicode="&#x1edc;" horiz-adv-x="1300" 
d="M1113 1451q100 0 100 -150q0 -191 -180 -201l-69 101h53q95 0 97 99q-100 0 -101 76q0 75 100 75zM150 650q0 650 500 650t500 -650t-500 -650t-500 650zM300 650q0 -500 350 -500t350 500t-350 500t-350 -500zM700 1400l-300 350h150l250 -350h-100z" />
    <glyph glyph-name="ohorngrave" unicode="&#x1edd;" horiz-adv-x="1100" 
d="M550 1000q400 0 400 -500t-400 -500t-400 500t400 500zM550 150q250 0 250 350t-250 350t-250 -350t250 -350zM953 1151q100 0 100 -150q0 -191 -180 -201l-69 101h53q95 0 97 99q-100 0 -101 76q0 75 100 75zM700 1150h-100l-300 350h150z" />
    <glyph glyph-name="Ohornhookabove" unicode="&#x1ede;" horiz-adv-x="1300" 
d="M1113 1451q100 0 100 -150q0 -191 -180 -201l-69 101h53q95 0 97 99q-100 0 -101 76q0 75 100 75zM150 650q0 650 500 650t500 -650t-500 -650t-500 650zM300 650q0 -500 350 -500t350 500t-350 500t-350 -500zM700 1600q100 49 100 100q0 100 -125 100t-125 -50h-100
q0 150 225 150t225 -200q0 -101 -100 -150l-50 -25q-50 -26 -50 -125h-100q0 151 100 200z" />
    <glyph glyph-name="ohornhookabove" unicode="&#x1edf;" horiz-adv-x="1100" 
d="M550 1000q400 0 400 -500t-400 -500t-400 500t400 500zM550 150q250 0 250 350t-250 350t-250 -350t250 -350zM953 1151q100 0 100 -150q0 -191 -180 -201l-69 101h53q95 0 97 99q-100 0 -101 76q0 75 100 75zM600 1350q100 49 100 100q0 100 -125 100t-125 -50h-100
q0 150 225 150t225 -200q0 -101 -100 -150l-50 -25q-50 -26 -50 -125h-100q0 151 100 200z" />
    <glyph glyph-name="Ohorntilde" unicode="&#x1ee0;" horiz-adv-x="1300" 
d="M1113 1451q100 0 100 -150q0 -191 -180 -201l-69 101h53q95 0 97 99q-100 0 -101 76q0 75 100 75zM150 650q0 650 500 650t500 -650t-500 -650t-500 650zM300 650q0 -500 350 -500t350 500t-350 500t-350 -500zM796 1450q-98 0 -175 50t-125 50q-49 0 -49 -100h-101
q0 200 150 200q98 0 175 -50t125 -50q50 0 50 100h100q0 -200 -150 -200z" />
    <glyph glyph-name="ohorntilde" unicode="&#x1ee1;" horiz-adv-x="1100" 
d="M550 1000q400 0 400 -500t-400 -500t-400 500t400 500zM550 150q250 0 250 350t-250 350t-250 -350t250 -350zM953 1151q100 0 100 -150q0 -191 -180 -201l-69 101h53q95 0 97 99q-100 0 -101 76q0 75 100 75zM696 1200q-98 0 -175 50t-125 50q-49 0 -49 -100h-101
q0 200 150 200q98 0 175 -50t125 -50q50 0 50 100h100q0 -200 -150 -200z" />
    <glyph glyph-name="Ohorndotbelow" unicode="&#x1ee2;" horiz-adv-x="1300" 
d="M1113 1451q100 0 100 -150q0 -191 -180 -201l-69 101h53q95 0 97 99q-100 0 -101 76q0 75 100 75zM150 650q0 650 500 650t500 -650t-500 -650t-500 650zM300 650q0 -500 350 -500t350 500t-350 500t-350 -500zM575 -150h150v-150h-150v150z" />
    <glyph glyph-name="ohorndotbelow" unicode="&#x1ee3;" horiz-adv-x="1100" 
d="M953 1151q100 0 100 -150q0 -179 -159 -199q56 -117 56 -302q0 -500 -400 -500t-400 500t400 500q178 0 276 -99h31q95 0 97 99q-100 0 -101 76q0 75 100 75zM550 150q250 0 250 350t-250 350t-250 -350t250 -350zM475 -150h150v-150h-150v150z" />
    <glyph glyph-name="Udotbelow" unicode="&#x1ee4;" horiz-adv-x="1200" 
d="M600 0q-450 0 -450 400v900h150v-900q0 -250 300 -250t300 250v900h150v-900q0 -400 -450 -400zM525 -150h150v-150h-150v150z" />
    <glyph glyph-name="udotbelow" unicode="&#x1ee5;" horiz-adv-x="1100" 
d="M550 150q250 0 250 250v600h150v-1000h-150v100q-100 -100 -250 -100q-400 0 -400 400v600h150v-600q0 -250 250 -250zM475 -150h150v-150h-150v150z" />
    <glyph glyph-name="Uhookabove" unicode="&#x1ee6;" horiz-adv-x="1200" 
d="M600 0q-450 0 -450 400v900h150v-900q0 -250 300 -250t300 250v900h150v-900q0 -400 -450 -400zM650 1600q100 49 100 100q0 100 -125 100t-125 -50h-100q0 150 225 150t225 -200q0 -101 -100 -150l-50 -25q-50 -26 -50 -125h-100q0 151 100 200z" />
    <glyph glyph-name="uhookabove" unicode="&#x1ee7;" horiz-adv-x="1100" 
d="M550 150q250 0 250 250v600h150v-1000h-150v100q-100 -100 -250 -100q-400 0 -400 400v600h150v-600q0 -250 250 -250zM600 1350q100 49 100 100q0 100 -125 100t-125 -50h-100q0 150 225 150t225 -200q0 -101 -100 -150l-50 -25q-50 -26 -50 -125h-100q0 151 100 200z
" />
    <glyph glyph-name="Uhornacute" unicode="&#x1ee8;" horiz-adv-x="1200" 
d="M1200 1500q100 0 100 -150q0 -200 -200 -200h-50v-750q0 -400 -450 -400t-450 400v900h150v-900q0 -250 300 -250t300 250v900h150v-50h50q100 0 100 100q-100 0 -100 75t100 75zM550 1400h-100l200 400h150z" />
    <glyph glyph-name="uhornacute" unicode="&#x1ee9;" horiz-adv-x="1100" 
d="M1100 1200q100 0 100 -150q0 -200 -200 -200h-50v-850h-150v100q-100 -100 -250 -100q-400 0 -400 400v600h150v-600q0 -250 250 -250t250 250v600h150v-50h50q100 0 100 100q-100 0 -100 75t100 75zM500 1150h-100l200 400h150z" />
    <glyph glyph-name="Uhorngrave" unicode="&#x1eea;" horiz-adv-x="1200" 
d="M1200 1500q100 0 100 -150q0 -200 -200 -200h-50v-750q0 -400 -450 -400t-450 400v900h150v-900q0 -250 300 -250t300 250v900h150v-50h50q100 0 100 100q-100 0 -100 75t100 75zM700 1400l-300 350h150l250 -350h-100z" />
    <glyph glyph-name="uhorngrave" unicode="&#x1eeb;" horiz-adv-x="1100" 
d="M1100 1200q100 0 100 -150q0 -200 -200 -200h-50v-850h-150v100q-100 -100 -250 -100q-400 0 -400 400v600h150v-600q0 -250 250 -250t250 250v600h150v-50h50q100 0 100 100q-100 0 -100 75t100 75zM700 1150h-100l-300 350h150z" />
    <glyph glyph-name="Uhornhookabove" unicode="&#x1eec;" horiz-adv-x="1200" 
d="M1200 1500q100 0 100 -150q0 -200 -200 -200h-50v-750q0 -400 -450 -400t-450 400v900h150v-900q0 -250 300 -250t300 250v900h150v-50h50q100 0 100 100q-100 0 -100 75t100 75zM650 1600q100 49 100 100q0 100 -125 100t-125 -50h-100q0 150 225 150t225 -200
q0 -101 -100 -150l-50 -25q-50 -26 -50 -125h-100q0 151 100 200z" />
    <glyph glyph-name="uhornhookabove" unicode="&#x1eed;" horiz-adv-x="1100" 
d="M1100 1200q100 0 100 -150q0 -200 -200 -200h-50v-850h-150v100q-100 -100 -250 -100q-400 0 -400 400v600h150v-600q0 -250 250 -250t250 250v600h150v-50h50q100 0 100 100q-100 0 -100 75t100 75zM600 1350q100 49 100 100q0 100 -125 100t-125 -50h-100
q0 150 225 150t225 -200q0 -101 -100 -150l-50 -25q-50 -26 -50 -125h-100q0 151 100 200z" />
    <glyph glyph-name="Uhorntilde" unicode="&#x1eee;" horiz-adv-x="1200" 
d="M1200 1500q100 0 100 -150q0 -200 -200 -200h-50v-750q0 -400 -450 -400t-450 400v900h150v-900q0 -250 300 -250t300 250v900h150v-50h50q100 0 100 100q-100 0 -100 75t100 75zM796 1450q-98 0 -175 50t-125 50q-49 0 -49 -100h-101q0 200 150 200q98 0 175 -50
t125 -50q50 0 50 100h100q0 -200 -150 -200z" />
    <glyph glyph-name="uhorntilde" unicode="&#x1eef;" horiz-adv-x="1100" 
d="M1100 1200q100 0 100 -150q0 -200 -200 -200h-50v-850h-150v100q-100 -100 -250 -100q-400 0 -400 400v600h150v-600q0 -250 250 -250t250 250v600h150v-50h50q100 0 100 100q-100 0 -100 75t100 75zM696 1200q-98 0 -175 50t-125 50q-49 0 -49 -100h-101q0 200 150 200
q98 0 175 -50t125 -50q50 0 50 100h100q0 -200 -150 -200z" />
    <glyph glyph-name="Uhorndotbelow" unicode="&#x1ef0;" horiz-adv-x="1200" 
d="M1200 1500q100 0 100 -150q0 -200 -200 -200h-50v-750q0 -400 -450 -400t-450 400v900h150v-900q0 -250 300 -250t300 250v900h150v-50h50q100 0 100 100q-100 0 -100 75t100 75zM525 -150h150v-150h-150v150z" />
    <glyph glyph-name="uhorndotbelow" unicode="&#x1ef1;" horiz-adv-x="1100" 
d="M1100 1200q100 0 100 -150q0 -200 -200 -200h-50v-850h-150v100q-100 -100 -250 -100q-400 0 -400 400v600h150v-600q0 -250 250 -250t250 250v600h150v-50h50q100 0 100 100q-100 0 -100 75t100 75zM475 -150h150v-150h-150v150z" />
    <glyph glyph-name="Ygrave" unicode="&#x1ef2;" horiz-adv-x="1101" 
d="M65 1300h176l309 -509l322 509h176l-423 -670v-630h-149v629zM650 1400l-300 350h150l250 -350h-100z" />
    <glyph glyph-name="ygrave" unicode="&#x1ef3;" horiz-adv-x="1100" 
d="M258 -400l209 489l-377 911h162l298 -716l306 716h163l-598 -1400h-163zM700 1150h-100l-300 350h150z" />
    <glyph glyph-name="Ydotbelow" unicode="&#x1ef4;" horiz-adv-x="1101" 
d="M65 1300h176l309 -509l322 509h176l-423 -670v-630h-149v629zM475 -150h150v-150h-150v150z" />
    <glyph glyph-name="ydotbelow" unicode="&#x1ef5;" horiz-adv-x="1100" 
d="M258 -400l209 489l-377 911h162l298 -716l306 716h163l-598 -1400h-163zM585 -250h150v-150h-150v150z" />
    <glyph glyph-name="Yhookabove" unicode="&#x1ef6;" horiz-adv-x="1101" 
d="M65 1300h176l309 -509l322 509h176l-423 -670v-630h-149v629zM600 1600q100 49 100 100q0 100 -125 100t-125 -50h-100q0 150 225 150t225 -200q0 -101 -100 -150l-50 -25q-50 -26 -50 -125h-100q0 151 100 200z" />
    <glyph glyph-name="yhookabove" unicode="&#x1ef7;" horiz-adv-x="1100" 
d="M258 -400l209 489l-377 911h162l298 -716l306 716h163l-598 -1400h-163zM600 1350q100 49 100 100q0 100 -125 100t-125 -50h-100q0 150 225 150t225 -200q0 -101 -100 -150l-50 -25q-50 -26 -50 -125h-100q0 151 100 200z" />
    <glyph glyph-name="Ytilde" unicode="&#x1ef8;" horiz-adv-x="1101" 
d="M65 1300h176l309 -509l322 509h176l-423 -670v-630h-149v629zM696 1450q-98 0 -175 50t-125 50q-49 0 -49 -100h-101q0 200 150 200q98 0 175 -50t125 -50q50 0 50 100h100q0 -200 -150 -200z" />
    <glyph glyph-name="ytilde" unicode="&#x1ef9;" horiz-adv-x="1100" 
d="M258 -400l209 489l-377 911h162l298 -716l306 716h163l-598 -1400h-163zM696 1200q-98 0 -175 50t-125 50q-49 0 -49 -100h-101q0 200 150 200q98 0 175 -50t125 -50q50 0 50 100h100q0 -200 -150 -200z" />
    <glyph glyph-name="dong" unicode="&#x20ab;" horiz-adv-x="1050" 
d="M501 1300q155 0 250 -74v175h-199v149h199v100h150v-100h100v-149h-100v-1101h-150v76q-96 -75 -250 -76q-400 0 -400 500t400 500zM501 450q249 0 250 350q0 350 -249 350q-251 0 -251 -350t250 -350zM152 1v149h749v-149h-749z" />
    <glyph glyph-name="Amacron" unicode="&#x100;" horiz-adv-x="1100" 
d="M1062 0h-157l-127 400h-451l-123 -400h-156l402 1300h200zM731 550l-181 574l-176 -574h357zM900 1500h-700v100h700v-100z" />
    <glyph glyph-name="amacron" unicode="&#x101;" horiz-adv-x="1050" 
d="M100 300q0 350 550 350h101v51q0 150 -251 150q-161 0 -349 -50v150q189 50 350 50q400 0 400 -300v-700h-150v159l-13 -10q-188 -150 -338 -150q-300 0 -300 300zM651 500q-400 0 -400 -200q0 -149 150 -149q99 0 224 99l125 100l1 -3v153h-100zM900 1200h-700v100h700
v-100z" />
    <glyph glyph-name="Imacron" unicode="&#x12a;" horiz-adv-x="650" 
d="M250 150v1000h-150v150h450v-150h-150v-1000h150v-150h-450v150h150zM650 1500h-650v100h650v-100z" />
    <glyph glyph-name="imacron" unicode="&#x12b;" horiz-adv-x="450" 
d="M150 1000h150v-1000h-150v1000zM500 1200h-550v100h550v-100z" />
    <glyph glyph-name="Sacute" unicode="&#x15a;" horiz-adv-x="1100" 
d="M551 151q248 0 250 249q0 200 -246 200h-4q-401 0 -401 350q0 351 400 351q251 0 351 -100v-201q-101 150 -350 150q-250 0 -250 -200t250 -200h3q396 0 396 -349q0 -400 -399 -401q-253 0 -401 100v200q152 -149 401 -149zM550 1400h-100l200 400h150z" />
    <glyph glyph-name="sacute" unicode="&#x15b;" horiz-adv-x="1050" 
d="M551 151q249 0 249 135q0 134 -249 134q-401 0 -401 290q0 291 400 291q251 0 351 -100v-201q-101 150 -350 150q-250 0 -250 -140t250 -140q399 0 399 -285t-399 -285q-253 0 -401 100v200q152 -149 401 -149zM500 1150h-100l200 400h150z" />
    <glyph glyph-name="Umacron" unicode="&#x16a;" horiz-adv-x="1200" 
d="M600 0q-450 0 -450 400v900h150v-900q0 -250 300 -250t300 250v900h150v-900q0 -400 -450 -400zM950 1500h-700v100h700v-100z" />
    <glyph glyph-name="umacron" unicode="&#x16b;" horiz-adv-x="1100" 
d="M550 150q250 0 250 250v600h150v-1000h-150v100q-100 -100 -250 -100q-400 0 -400 400v600h150v-600q0 -250 250 -250zM900 1200h-700v100h700v-100z" />
    <glyph glyph-name="Ddotbelow" unicode="&#x1e0c;" horiz-adv-x="1150" 
d="M1050 650q0 -650 -500 -650h-400v1300h400q500 0 500 -650zM900 650q0 500 -350 500h-250v-1000h250q350 0 350 500zM525 -150h150v-150h-150v150z" />
    <glyph glyph-name="ddotbelow" unicode="&#x1e0d;" horiz-adv-x="1050" 
d="M500 1000q155 0 250 -74v374h150v-1300h-150v76q-96 -75 -250 -76q-400 0 -400 500t400 500zM500 150q250 0 250 350t-249 350q-251 0 -251 -350t250 -350zM475 -150h150v-150h-150v150z" />
    <glyph glyph-name="Hdotbelow" unicode="&#x1e24;" horiz-adv-x="1100" 
d="M800 650h-500v-650h-150v1300h150v-500h500v500h150v-1300h-150v650zM475 -150h150v-150h-150v150z" />
    <glyph glyph-name="hdotbelow" unicode="&#x1e25;" horiz-adv-x="1100" 
d="M300 900q100 100 250 100q400 0 400 -400v-600h-150v600q0 250 -250 250t-250 -250v-600h-150v1300h150v-400zM475 -150h150v-150h-150v150z" />
    <glyph glyph-name="Ldotbelow" unicode="&#x1e36;" horiz-adv-x="900" 
d="M150 1300h150v-1150h500v-150h-650v1300zM405 -150h150v-150h-150v150z" />
    <glyph glyph-name="ldotbelow" unicode="&#x1e37;" horiz-adv-x="450" 
d="M150 1300h150v-1300h-150v1300zM150 -150h150v-150h-150v150z" />
    <glyph glyph-name="Ldotbelowmacron" unicode="&#x1e38;" horiz-adv-x="900" 
d="M150 1300h150v-1150h500v-150h-650v1300zM405 -150h150v-150h-150v150zM800 1500h-650v100h650v-100z" />
    <glyph glyph-name="ldotbelowmacron" unicode="&#x1e39;" horiz-adv-x="450" 
d="M500 1500h-550v100h550v-100zM150 1300h150v-1300h-150v1300zM150 -150h150v-150h-150v150z" />
    <glyph glyph-name="Mdotabove" unicode="&#x1e40;" horiz-adv-x="1300" 
d="M1000 1003l-350 -603l-350 603v-1003h-150v1300h150l350 -601l350 601h150v-1300h-150v1003zM725 1450h-150v150h150v-150z" />
    <glyph glyph-name="mdotabove" unicode="&#x1e41;" horiz-adv-x="1550" 
d="M300 913q84 87 200 87q215 0 298 -153q97 153 252 153q350 0 350 -400v-600h-150v600q0 250 -200 250t-200 -250v-600h-150v600q0 250 -200 250t-200 -250v-600h-150v1000h150v-87zM851 1200h-150v150h150v-150z" />
    <glyph glyph-name="Mdotbelow" unicode="&#x1e42;" horiz-adv-x="1300" 
d="M1000 1003l-350 -603l-350 603v-1003h-150v1300h150l350 -601l350 601h150v-1300h-150v1003zM725 -300h-150v150h150v-150z" />
    <glyph glyph-name="mdotbelow" unicode="&#x1e43;" horiz-adv-x="1550" 
d="M300 913q84 87 200 87q215 0 298 -153q97 153 252 153q350 0 350 -400v-600h-150v600q0 250 -200 250t-200 -250v-600h-150v600q0 250 -200 250t-200 -250v-600h-150v1000h150v-87zM851 -300h-150v150h150v-150z" />
    <glyph glyph-name="Ndotabove" unicode="&#x1e44;" horiz-adv-x="1100" 
d="M300 976v-976h-150v1300h151l499 -972v972h150v-1300h-151zM625 1450h-150v150h150v-150z" />
    <glyph glyph-name="ndotabove" unicode="&#x1e45;" horiz-adv-x="1100" 
d="M300 900q100 100 250 100q400 0 400 -400v-600h-150v600q0 250 -250 250t-250 -250v-600h-150v1000h150v-100zM631 1200h-150v150h150v-150z" />
    <glyph glyph-name="Ndotbelow" unicode="&#x1e46;" horiz-adv-x="1100" 
d="M300 976v-976h-150v1300h151l499 -972v972h150v-1300h-151zM625 -300h-150v150h150v-150z" />
    <glyph glyph-name="ndotbelow" unicode="&#x1e47;" horiz-adv-x="1100" 
d="M300 900q100 100 250 100q400 0 400 -400v-600h-150v600q0 250 -250 250t-250 -250v-600h-150v1000h150v-100zM631 -300h-150v150h150v-150z" />
    <glyph glyph-name="Rdotbelow" unicode="&#x1e5a;" horiz-adv-x="1100" 
d="M500 1300q450 0 450 -400q0 -289 -236 -370l387 -530h-186l-365 501q-1 -1 -12 -1h-238v-500h-150v1300h350zM800 900q0 250 -300 250h-200v-500h200q300 0 300 250zM625 -300h-150v150h150v-150z" />
    <glyph glyph-name="rdotbelow" unicode="&#x1e5b;" horiz-adv-x="700" 
d="M300 888q115 112 300 112h100v-150h-100q-300 0 -300 -250v-600h-150v1000h150v-112zM150 -150h150v-150h-150v150z" />
    <glyph glyph-name="Rdotbelowmaron" unicode="&#x1e5c;" horiz-adv-x="1100" 
d="M500 1300q450 0 450 -400q0 -289 -236 -370l387 -530h-186l-365 501q-1 -1 -12 -1h-238v-500h-150v1300h350zM800 900q0 250 -300 250h-200v-500h200q300 0 300 250zM625 -300h-150v150h150v-150zM900 1500h-700v100h700v-100z" />
    <glyph glyph-name="rdotbelowmacron" unicode="&#x1e5d;" horiz-adv-x="700" 
d="M300 888q115 112 300 112h100v-150h-100q-300 0 -300 -250v-600h-150v1000h150v-112zM150 -150h150v-150h-150v150zM700 1200h-550v100h550v-100z" />
    <glyph glyph-name="Sdotbelow" unicode="&#x1e62;" horiz-adv-x="1100" 
d="M551 151q248 0 250 249q0 200 -246 200h-4q-401 0 -401 350q0 351 400 351q251 0 351 -100v-201q-101 150 -350 150q-250 0 -250 -200t250 -200h3q396 0 396 -349q0 -400 -399 -401q-253 0 -401 100v200q152 -149 401 -149zM475 -150h150v-150h-150v150z" />
    <glyph glyph-name="sdotbelow" unicode="&#x1e63;" horiz-adv-x="1050" 
d="M551 151q249 0 249 135q0 134 -249 134q-401 0 -401 290q0 291 400 291q251 0 351 -100v-201q-101 150 -350 150q-250 0 -250 -140t250 -140q399 0 399 -285t-399 -285q-253 0 -401 100v200q152 -149 401 -149zM631 -300h-150v150h150v-150z" />
    <glyph glyph-name="Tdotbelow" unicode="&#x1e6c;" horiz-adv-x="1050" 
d="M50 1150v150h950v-150h-400v-1150h-150v1150h-400zM600 -300h-150v150h150v-150z" />
    <glyph glyph-name="tdotbelow" unicode="&#x1e6d;" horiz-adv-x="659" 
d="M209 1000v300h150v-300h250v-150h-250v-500q0 -200 151 -200h149v-150h-150q-300 0 -300 349v501h-129v150h129zM309 -150h150v-150h-150v150z" />
    <glyph glyph-name="uni1780.sub" 
d="M-514 -431q16 -25 55 -30v65zM-1100 -226q110 176 323 176q1 0 2 -1q170 0 298 -49t128 -115v-259q0 -98 -37 -154q-36 -57 -109 -74q-51 0 -135.5 65.5t-78.5 130t60 97.5l162 76q-41 20 -118 37q-76 16 -205 16q-220 0 -290 -100v-74q0 -123 -38 -184q-37 -62 -112 -62
q-100 0 -180 88q-70 88 -70 177q50 -65 150 -65q75 0 112 17q38 17 38 52v40q0 60 -50 60t-50 -80q-75 0 -112 37q-38 38 -38 113q0 80 45 120t135 40q85 0 128 -31q42 -32 42 -94z" />
    <glyph glyph-name="uni1781.sub" 
d="M-1450 -252q0 68 139 135q140 67 440 67q192 0 356.5 -58.5t164.5 -101.5q0 -53 -181 -143q-180 -89 -532 -124q54 -21 258 -21q126 0 259 44q137 52 123 91q73 -25 73 -85q0 -86 -126 -169q-127 -83 -387 -83q-294 0 -440 65q-147 65 -147 133q0 67 140 73t376 41
q235 35 235 89q0 46 -248 49q-190 0 -247 -24t-37 -53l30 -29q-133 -46 -191 -4t-58 108z" />
    <glyph glyph-name="uni1782.sub" 
d="M-514 -431q16 -25 55 -30v65zM-1449 -435q0 188 147 285q145 98 441 98q3 0 6 -1q210 0 358 -48t148 -114v-259q0 -98 -37 -154q-36 -57 -109 -74q-79 0 -149.5 65.5t-64.5 130t60 97.5l162 76q-41 20 -118 37q-76 16 -265 16q-216 0 -324 -61q-109 -62 -109 -114
q0 -26 37 -37q66 85 143 116.5t150 31.5q147 0 147 -114t-146 -113q-1 101 -82 101q-45 0 -58 -50q-14 -51 66 -51q-37 -130 -148 -130q-108 0 -181.5 63.5t-73.5 202.5z" />
    <glyph glyph-name="uni1783.sub" horiz-adv-x="850" 
d="M700 -300q0 -400 -425 -400q-225 0 -325 100q-148 -100 -296 -100h-3q-229 0 -365 75t-136 225q160 0 205.5 45t44.5 100q0 35 -50 35t-50 -80q-150 0 -150 100q0 150 175 150t175 -150q0 -100 -100 -250q0 -50 250 -50t250 50t-100 50t-130 -30v163q0 54 43 101l107 116
q150 -80 200 -60q-20 -130 -80 -130q-36 0 -67 12.5t-53 12.5q-25 0 -52 -36q76 1 154 -34t78 -105q0 -110 275 -110t275 150v983q-6 26 -62 50q-113 47 -338 -33v574q0 76 104 176t140 100t149.5 -68t206.5 -68q-81 -273 -165.5 -273.5t-145.5 34.5t-109.5 15t-78.5 -140
q124 55 262 3t187 -153v-1150z" />
    <glyph glyph-name="uni1784.sub" 
d="M-1450 -380q0 115 62 172q63 58 188 58q75 0 112 -35q38 -35 38 -105q0 -55 -37 -82q-37 -28 -112 -28q0 90 -45 90t-45 -45q0 -47 60 -71t180 -24q275 0 437 100t212 300q45 0 45 -68q0 -8 -1 -18q-18 -258 -193 -411t-500 -153q-201 0 -301 80t-100 240z" />
    <glyph glyph-name="uni1785.sub" 
d="M-1450 -350q101 0 226 18q124 19 124 82q0 50 -24 62q-26 13 -76 -12q0 75 38 112q37 38 112 38t112 -32q38 -33 38 -98q0 -76 -62 -131t-187 -89q0 -50 219 -50q336 0 375 64q-97 16 -146 58q-49 41 -49 108q0 85 50 128q50 42 150 42t150 -50t50 -150q-4 -42 -9 -70h16
q171 -15 257 -55t86 -105q0 -60 -62 -90q-63 -30 -188 -30q50 50 50 100q0 60 -184 84q-52 -142 -188 -212q-136 -72 -357 -72q-261 0 -391 87t-130 263zM-517 -300q8 23 7 50q0 50 -40 50q-50 0 -50 -40t83 -60z" />
    <glyph glyph-name="uni1786.sub" 
d="M-1206 -422q19 -44 86 -49v49h-86zM-681 -700q-129 0 -175 59.5t-71 139.5q-25 79 -83 79v-62q0 -93 -48 -147t-134 -70q-61 0 -159 62.5t-99 247.5q0 62 147 62h183q-36 62 -178 62q-119 0 -152 -31v248l86 -1q129 0 241.5 -34.5t112.5 -109.5v-134q66 0 116.5 -32.5
t86.5 -97.5q24 -43 125 -43q108 0 164 49q57 50 57 124q0 62 -37 62q-36 0 -36 -16q0 -15 36 -15q-36 -93 -113 -93q-90 0 -135 38q-45 39 -45 117q0 77 55 116q55 38 165 38q74 0 147 -61q73 -62 73 -185q0 -171 -95 -272q-95 -100 -235 -100z" />
    <glyph glyph-name="uni1787.sub" 
d="M-1450 -51h110q195 0 278 -57q82 -57 82 -138q0 -120 -93 -169q82 -38 300 -38q152 0 258 68q105 78 164 235q0 -291 -130 -421t-390 -130q-323 0 -451 90q-128 89 -128 205q14 30 37 30q124 0 201 21t77 50q0 30 -91 33t-224 -26v247z" />
    <glyph glyph-name="uni1788.sub" horiz-adv-x="850" 
d="M-50 -600q-148 -100 -296 -100h-3q-229 0 -365 75t-75 144q49 41 78.5 81t44.5 95q16 55 -273 55q-199 1 -293 -42q-93 -43 -93 -100q0 -75 77 -75q72 1 72 36q0 48 -74 48q37 39 110 39t113 -46q40 -45 40 -134q0 -79 -44.5 -127.5t-131.5 -48.5q-104 0 -195 83
q-92 82 -92 228q1 172 148 255q146 84 357 84q223 0 334 -50l111 -50q0 -190 -100 -300q0 -50 250 -50q240 0 240 50t-95 50t-125 -30l3 189q17 51 82 121l65 70q150 -80 200 -60q-20 -130 -80 -130q-36 0 -67 12.5t-53 12.5q-25 0 -52 -36q76 1 159 -34t83 -105
q0 -110 265 -110q275 0 275 150v983q-6 26 -62 50q-113 47 -338 -33v574q0 76 104 176t140 100t149.5 -68t206.5 -68q-81 -273 -165.5 -273.5t-145.5 34.5t-109.5 15t-78.5 -140q124 55 262 3t187 -153v-1150q0 -400 -425 -400q-225 0 -325 100z" />
    <glyph glyph-name="uni1789.sub" 
d="M-150 -310q0 -170 -103 -255t-309 -85q-293 0 -473 100q-181 100 -335 100q-123 0 -280 -100q47 150 145 225t247 75q217 0 423 -125q207 -125 413 -125q69 0 104 38q35 37 35 112q0 100 -58 100q-61 0 -61 -100q-100 0 -150 38q-50 37 -50 112t51 112q52 38 154 38
q124 0 185 -65q62 -65 62 -195z" />
    <glyph glyph-name="uni1789.sub.alt" 
d="M-855 -392q0 -25 86 -43v68zM-112 -392q0 -25 87 -43v58zM-1005 -356q236 59 236 69q-1 11 -116 24t-239 13q-123 0 -255 -55q-186 54 -270 54q-83 1 -126 -34l-44 -27q0 -43 22 -73.5t67 -30.5q43 0 43 34q0 24 -88 35q45 17 149 17q87 0 144 -27t57 -60q0 -35 -41 -71
q-41 -35 -86 -58.5t-92 -27.5q-152 18 -229 70q-76 52 -77 174v53q0 87 157 156l156 70q214 -24 343 -86q103 69 220 86q116 -7 276 -45l120 -28q67 -15 108 3l41 17q81 36 199 53q116 -7 276 -44.5t160 -76.5v-280q0 -52 -43 -80t-131 -42q-59 -5 -183 41.5t-121 119.5
q32 31 111 51l157 38l79 17l-124 29q-125 28 -266 28q-106 0 -223 -55v-147q0 -52 -43 -80t-131 -42q-54 -2 -180.5 43t-126.5 121q35 28 114 54zM-25 -678q0 -122 -387 -122q-423 0 -662.5 38.5t-400.5 38.5q-282 0 -427 -72q40 194 523 194q339 0 582.5 -72t384.5 -72
q242 0 242 57q0 34 -96 27q0 -52 -98 -52q-144 0 -144 52q0 70 242 70q241 0 241 -87z" />
    <glyph glyph-name="uni178a.sub" 
d="M-515 -431q17 -25 55 -30v65zM-1450 -409q1 162 147 260.5t422 98.5q275 0 403 -49.5t128 -115.5v-259q0 -97 -37 -153q-36 -57 -109 -74q-52 1 -136 66t-78 129.5t61 96.5l162 77q-42 20 -119 36q-76 17 -265 17q-227 0 -340.5 -33t-113.5 -100q0 -55 77 -55
q-29 57 13 90t115 33t128 -51q55 -50 55 -129t-39 -127.5t-167 -48.5q-124 0 -215 83q-92 82 -92 208z" />
    <glyph glyph-name="uni178b.sub" 
d="M-1500 -380q101 30 213 80q-107 2 -160 40t-53 110q0 75 50 112q50 38 150 38t150 -50t50 -150h550v100q0 100 100 100t100 -100q0 -50 -50 -50q-47 0 -50 45v-95h150q200 0 250 -50q0 -50 -200 -150q0 100 -50 100h-133q25 -53 83 -150q-24 -124 -112 -187
q-88 -62 -238 -62q-50 -1 -125 59l-75 60l-70 -60q-69 -60 -129 -60q-311 99 -401 320zM-500 -400q-36 60 -49 100h-571q-25 -54 -99 -80q40 -50 170 -100q50 0 230 130q159 -130 209 -130q61 0 110 80zM-1400 -150q0 -50 125 -50h45q-1 100 -70 100q-100 0 -100 -50z" />
    <glyph glyph-name="uni178c.sub" 
d="M-1460 -489q43 29 158.5 35.5t419.5 84.5t304 106q-87 30 -182 30q-105 0 -216 -58q-158 58 -229 58q-75 0 -85 -37v-20q0 -19 30.5 -19t38.5 8q12 14 -25 14q-1 30 63 30q131 0 131 -74q0 -64 -185 -64q-106 0 -164 42q-59 42 -59 109q0 107 265 194q181 -30 291 -107
q87 85 186 107q99 -9 234.5 -55.5t135.5 -94.5q0 -62 -65 -105q-65 -44 -260 -104q-194 -60 -414 -103q14 -22 58.5 -32t157.5 -10q94 0 228 48t184 132q111 0 111 -52v-193q-1 -122 -130 -122q-130 0 -130 87q148 35 149 77v45l-74 -47q-186 -122 -505 -122
q-185 0 -303.5 67.5t-118.5 144.5z" />
    <glyph glyph-name="uni178d.sub" horiz-adv-x="850" 
d="M-374 -479l73 -24v57zM550 633q-6 26 -62 50q-113 47 -338 -33v574q0 76 104 176t140 100t149.5 -68t206.5 -68q-81 -273 -165.5 -273.5t-145.5 34.5t-109.5 15t-78.5 -140q124 55 262 3t187 -153v-1150q0 -400 -400 -400q-230 0 -336 187q-35 62 -155 63v-99
q0 -64 -36 -99t-110 -52q-69 0 -163.5 54.5t-94.5 156.5q30 27 96 60l198 97q-194 72 -298 72q-103 0 -214 -68q-156 67 -226 68q-70 0 -106.5 -25t-36.5 -90q0 -53 18.5 -90.5t55.5 -37.5q-33 38 -16.5 81.5t87 51t128.5 -33t58 -107.5t-52.5 -128t-131.5 -61
q-128 0 -192 76t-65 227v65q0 109 131 196l132 86q179 -30 288 -107q86 86 184 107q98 -8 231.5 -55t133.5 -95v-100q162 -1 244 -151q27 -50 248 -49q250 0 250 150v983z" />
    <glyph glyph-name="uni178e.sub" 
d="M185 -450q0 -30 88 -54v97zM-1920 -700q-377 0 -381 173v87q41 -13 220 -1q180 13 179 43q0 22 -143 22q-145 0 -256 -22v241q27 18 199 61.5t371 43.5q265 0 514 -53q247 -54 247 -100q0 -106 -155 -193l-155 -86q43 -36 96.5 -51t117.5 -15q73 0 122 30l63 41l42 -22
q41 -23 91 -35q62 -14 162 -14q99 0 148 22.5t49 66.5q-22 18 -94 30q-71 12 -216 12h-93v262q26 18 112 40l86 21q173 44 336 44q168 0 416 -49t248 -114v-334q0 -64 -44 -99t-133 -52q-61 0 -186 54.5t-125 164.5q35 19 115 51l160 65q80 32 80 54q0 30 -289 73
q-288 43 -352 43q-65 0 -142 -15t-148 -58h44q178 0 265 -43q89 -43 89 -129q0 -110 -133 -185t-257 -75q-98 0 -188 33l-90 33q-86 -66 -179 -66q-218 0 -373 60q-155 59 -155 154q16 28 44 28q213 0 350 91q69 45 44 78q-26 33 -146 54q-239 40 -392 40t-275 -15t-157 -37
q231 13 315 -25q83 -39 83 -104q1 -86 -154 -107q-155 -22 -155 -42q0 -23 46 -23q36 -1 36 10t-41 11q39 22 114 22t114.5 -26.5t39.5 -61.5q0 -48 -51 -77.5t-100 -29.5z" />
    <glyph glyph-name="uni178f.sub" 
d="M-515 -431q17 -25 55 -30v65zM-1450 -409q1 162 147 260.5t422 98.5q275 0 403 -49.5t128 -115.5v-259q0 -97 -37 -153q-36 -57 -109 -74q-52 1 -136 66t-78 129.5t61 96.5l162 77q-42 20 -119 36q-76 17 -265 17q-227 0 -340.5 -33t-113.5 -100q0 -55 77 -55
q-29 57 13 90t115 33t128 -51q55 -50 55 -129t-39 -127.5t-167 -48.5q-124 0 -215 83q-92 82 -92 208z" />
    <glyph glyph-name="uni1790.sub" 
d="M-1550 -450q0 175 110 262q110 88 330 88q210 0 389 -84t286 -251q125 -165 185 -165q90 0 150 50q0 -75 -38 -112q-37 -38 -112 -38q-135 0 -239 46q-103 46 -176 139q-87 107 -209 161q-121 54 -236 54q-170 0 -255 -38q-85 -37 -85 -112q0 -120 80 -120q70 0 70 120
q100 0 150 -31t50 -94t-38 -94q-37 -31 -112 -31q-150 0 -225 62q-75 63 -75 188z" />
    <glyph glyph-name="uni1791.sub" 
d="M-1450 -51h110q110 0 219 -34q110 -33 110 -146q0 -112 -103 -183q14 -59 69 -59q62 0 176 130t275 130q91 0 166 -58t75 -180t-64 -185q-64 -64 -155 -64q-92 0 -138 32q-45 33 -45 98t37 97q36 33 109 33q0 -33 37 -33q36 0 36 29q0 88 -109 88q-95 0 -163 -86l-68 -86
q-135 -172 -208 -172q-110 0 -238 90q-128 88 -128 217q14 18 37 18q175 0 234 24q58 24 58 59q0 33 -87 33t-242 -19v227z" />
    <glyph glyph-name="uni1792.sub" 
d="M-1450 -375q47 0 368 70q90 24 90 51q0 49 -30.5 49t-60.5 -28q0 92 45 137q46 46 138 46t138 -35q45 -35 45 -104q0 -57 -64 -101.5t-191 -77.5l-248 -62q32 -42 78 -63t105 -21q46 0 87 45l83 106q41 35 87 35q33 0 62 -35l60 -69q33 -35 79 -35t69 35q22 34 22 104
q0 79 -45 148q-46 70 -138 130q161 0 241 -70q80 -69 80 -208q0 -186 -57 -278q-58 -93 -172 -93q-138 0 -183 46l-92 93q-137 -140 -228 -140q-170 0 -269 124t-99 201z" />
    <glyph glyph-name="uni1793.sub" 
d="M-1206 -410q19 -47 86 -52v52h-86zM-680 -699q-170 0 -205.5 60t-50.5 144.5t-74 84.5v-65q0 -96 -48 -152t-134 -73q-56 0 -156.5 65t-101.5 257q37 64 183 64h147q0 64 -146 64q-124 0 -184 -32v231h110q147 0 239 -30q91 -30 91 -135v-98q66 0 117 -34t80.5 -74
t131.5 -40q122 0 190 51.5t68 231.5q73 -32 73 -135q0 -144 -95.5 -264.5t-234.5 -120.5z" />
    <glyph glyph-name="uni1794.sub" horiz-adv-x="850" 
d="M700 -450q-53 -125 -126 -188q-73 -62 -166 -62q-89 0 -159 38q-70 37 -122 112q-52 -75 -127 -112q-76 -38 -175 -38q-187 0 -281 75t-94 225t61 225q59 75 179 75q88 0 133 -38q44 -37 44 -112t-52 -112q-52 -38 -156 -38q0 100 -52 100t-52 -60q0 -45 53 -68
q53 -22 158 -22q107 0 185 38q77 37 124 112q52 -75 122 -112q70 -38 159 -38q93 0 143.5 50t50.5 150v883q-6 26 -62 50q-113 47 -338 -33v574q0 76 104 176t140 100t149.5 -68t206.5 -68q-81 -273 -165.5 -273.5t-145.5 34.5t-109.5 15t-78.5 -140q124 55 262 3t187 -153
v-1300z" />
    <glyph glyph-name="uni1795.sub" 
d="M-1450 -51h110q165 0 248 -57q82 -57 82 -138q0 -129 -103 -168q14 -28 47 -44.5t84 -16.5t92 45l53 62l34 -33q34 -34 86 -54q51 -20 97 -20t102 40q57 40 57 98q0 59 -37 59q-36 0 -36 -16q0 -17 36 -17q-36 -64 -119.5 -64t-128.5 34t-45 95q0 81 55 122t165 41
q74 0 147 -65t73 -188q0 -152 -110 -258t-190 -106q-66 0 -141 49l-74 49q-71 -98 -148 -98q-180 0 -308 90q-128 88 -128 217q14 18 37 18q124 0 201 21t77 55t-91 47t-224 -26v227z" />
    <glyph glyph-name="uni1796.sub" 
d="M-534 -450q0 -29 73 -53v97zM-759 -260q-103 0 -214 -68q-156 67 -226 68q-70 0 -106.5 -25t-36.5 -90q0 -53 18.5 -90.5t55.5 -37.5q-23 41 -5.5 84t82 51t122.5 -34t58 -124t-52.5 -128t-131.5 -46q-128 0 -192 76t-65 227v65q0 109 131 196l132 86q179 -30 288 -107
q86 86 184 107q98 -8 232 -55t134 -95v-349q0 -64 -36 -99t-110 -52q-54 0 -156 54.5t-102 156.5q30 27 96 60l132 65l66 32q-194 72 -298 72z" />
    <glyph glyph-name="uni1797.sub" 
d="M-514 -431q16 -24 55 -30v65zM-1450 -373q0 146 147 234q146 89 422 89t404 -49.5t128 -115.5v-259q0 -97 -37 -153q-36 -57 -109 -74q-38 1 -129.5 66t-91.5 166q13 28 67 60l162 77q-41 20 -118 37q-76 16 -265 16q-433 0 -433 -33q147 -16 221 -66q73 -50 73 -134
q0 -94 -55 -142q-55 -46 -165 -46t-165 39t-55 117q0 67 44 92q44 26 131 9q-29 -6 -29 -35q0 -27 70 -27t70 31q0 62 -125 71t-162 -14v44z" />
    <glyph glyph-name="uni1798.sub" 
d="M-350 -233q-50 0 -75 -19t-25 -57h50q100 0 150 -49q50 -48 50 -146q0 -97 -50 -145q-50 -49 -150 -49q-75 0 -112 48q-38 49 -38 146v108q-75 0 -112 -43q-38 -43 -38 -129q1 -130 -150 -130h-50q-100 0 -250 130q-75 64 -200 97q-125 32 -300 32q0 89 200 89
q201 0 350 -73q148 -73 224 -73q76 1 126 94q49 93 200 93q0 129 50 194t150 65v-183zM-401 -592q50 0 50 88q0 108 -49 108h-50v-108q0 -88 49 -88z" />
    <glyph glyph-name="uni1799.sub" horiz-adv-x="850" 
d="M550 633q-6 26 -62 50q-113 47 -338 -33v574q0 76 104 176t140 100t149.5 -68t206.5 -68q-81 -273 -165.5 -273.5t-145.5 34.5t-109.5 15t-78.5 -140q124 55 262 3t187 -153v-1200q-30 -165 -181 -258q-151 -92 -410 -92t-409 88q-150 87 -150 262q0 150 75 225t225 75
q125 0 188 -38q62 -37 62 -112t-44 -112q-44 -38 -131 -38q-75 0 -125 50q0 50 -50 50t-50 -50q0 -75 112 -112q113 -38 313 -38t313 75q112 75 112 225v783z" />
    <glyph glyph-name="uni179a.sub" horiz-adv-x="850" 
d="M700 0q0 -130 -120 -187q0 -106 141 -159t324 -54q317 1 426 93q109 93 129 257q50 0 50 -100q0 -200 -200 -350t-505 -150q-385 0 -569 123q-185 123 -226 427q400 0 400 240v493q-6 26 -62 50q-113 47 -338 -33v574q0 76 104 176t140 100t149.5 -68t206.5 -68
q-81 -273 -165.5 -273.5t-145.5 34.5t-109.5 15t-78.5 -140q124 55 262 3t187 -153v-850z" />
    <glyph glyph-name="uni179b.sub" 
d="M-250 -300q0 -200 -112 -300t-336 -100q-176 0 -267 62q-91 63 -98 188l171 100q-20 50 -76 75t-149 25q-168 0 -252 -50q-85 -50 -85 -150q0 -70 26 -105q27 -35 80 -35q38 0 38 40q-45 0 -68 25q-22 25 -22 75q-1 50 29 75q31 25 91 25q65 0 98 -36q32 -36 32 -109
q0 -103 -50 -154q-49 -51 -148 -51q-101 0 -152 62q-50 63 -50 188q0 200 108 300t325 100q148 0 256 -50q109 -50 177 -150q0 -100 -165 -200q0 -50 151 -50q140 0 244 60q105 59 104 390q50 -50 75 -113q25 -62 25 -137z" />
    <glyph glyph-name="uni179c.sub" 
d="M-350 -48q0 -208 -173 -431q-174 -224 -472 -224q-217 0 -356 92q-148 101 -149 216q0 67 192 84q191 18 479 100q287 83 479 211v-48zM-504 -222q-115 -43 -316 -101t-488 -92q1 -40 117 -64t196 -24q155 0 308 103t183 178z" />
    <glyph glyph-name="uni179d.sub" 
d="M-1449 -435q0 188 147 285q145 98 441 98q3 0 6 -1q250 0 442 -72q64 -24 101 -11q-31 -39 -36 -69q82 26 175 70q-59 -207 -162 -264q-7 -4 -14 -7v-68q0 -98 -37 -154q-36 -57 -109 -74q0 33 -55 58l-55 24q-110 49 -111 211q13 -31 63 -2q-40 27 -54 76q-8 31 4 51
q-68 4 -167 4q-216 0 -324 -61q-109 -62 -109 -114q0 -26 37 -37q66 85 143 116.5t150 31.5q147 0 147 -114t-146 -113q-1 101 -82 101q-45 0 -58 -50q-14 -51 66 -51q-37 -130 -148 -130q-108 0 -181.5 63.5t-73.5 202.5zM-502 -444q16 -13 43 -17v20q-21 -3 -43 -3z" />
    <glyph glyph-name="uni179e.sub" horiz-adv-x="851" 
d="M700 240q78 26 165 65q-60 -202 -165 -261v-494q-51 -125 -124 -188q-73 -62 -167 -62q-88 0 -158 38q-71 37 -123 112q-52 -75 -127 -112q-76 -38 -175 -38q-188 0 -282 75t-94 225t61 225q59 75 179 75q89 0 134 -38q44 -37 44 -112t-53 -112q-52 -38 -156 -38
q0 100 -52 100t-52 -60q0 -45 53 -68q53 -22 158 -22q108 0 186 38q77 37 124 112q52 -75 123 -112q70 -38 158 -38q94 0 143.5 50t49.5 150v247q-46 -3 -89 1q-126 14 -153 107t148 93q43 0 94 6v429q-6 26 -62 50q-113 47 -338 -33v574q0 76 104 176t140 100t149.5 -68
t206.5 -68q-81 -273 -165.5 -273.5t-145.5 34.5t-109.5 15t-78.5 -140q124 55 262 3t187 -153v-610z" />
    <glyph glyph-name="uni179f.sub" horiz-adv-x="850" 
d="M88 -700q-266 0 -402 75t-136 225q160 0 205.5 35t44.5 60q0 35 -50 35t-50 -80q-150 0 -150 100q0 150 175 150t175 -150q0 -100 -50 -150q0 -50 238 -50q237 0 350 50q112 50 112 150v246q-111 4 -247 52q98 96 83 274q82 -87 164 -122v433q-6 26 -62 50
q-113 47 -338 -33v574q0 76 104 176t140 100t149.5 -68t206.5 -68q-81 -273 -165.5 -273.5t-145.5 34.5t-109.5 15t-78.5 -140q124 55 262 3t187 -153v-682q82 -8 181 -7q-60 -109 -181 -147v-344q0 -185 -151 -278q-151 -92 -461 -92z" />
    <glyph glyph-name="uni17a0.sub" 
d="M-275 -437q0 -15 70 -41v65zM-1698 -49h122q305 0 305 -207q0 -117 -135 -175q49 -49 130.5 -81t217.5 -32q146 0 226 29.5t80 53.5q0 31 -231 30h-75v318l11 -12q10 -13 148 31.5t233 44.5q170 0 369 -50.5t199 -124.5v-306q0 -73 -35.5 -112.5t-106.5 -58.5
q-64 1 -156.5 62t-92.5 182q28 26 156 67.5t128 68.5t-192 68.5t-314 41.5q-123 0 -240 -49h36q142 0 212 -49q71 -49 71 -146q0 -86 -142 -166t-384 -80q-263 0 -401.5 77.5t-138.5 201.5q14 15 36 15q135 0 206 38t71 76t-313 38v206z" />
    <glyph glyph-name="uni17a1.sub" 
d="M-1570 -193q57 38 113 64q171 77 318 77q165 0 292 -64q128 -65 128 -146q0 -52 -44 -82t-132 -30q-136 0 -136 64q0 65 102 65q51 0 68 -22q-28 0 -28 -20q0 -21 28 -21q57 0 57 28q0 37 -93 57q-93 21 -250 21q-158 0 -242 -17q-85 -16 -96 -48q86 0 170 -22
q85 -22 85 -97q0 -74 -79 -121q22 -39 65 -39q36 0 124 64q89 65 214 65q71 0 129 -38q58 -39 57 -98q1 -59 -49 -101q-49 -42 -120 -42t-107 21q-35 22 -35 65t28 64q29 22 85 22q0 -22 29 -22q28 0 28 19q0 37 -85 37q-74 0 -126 -52l-53 -51q-105 -103 -161 -103
q-85 0 -185 59q-99 59 -99 127q11 28 57 28q108 0 153 17q45 16 45 38q0 23 -67 23q-68 0 -188 -13v224zM-577 -156q17 18 46 40l89 64q72 -46 125 -64q52 -19 79 -12q-50 -117 -104 -117q-31 0 -63 10q-32 11 -62 11q-36 0 -53 -43q85 0 156 -27q70 -28 70 -80v-494
q0 -129 -170 -129q-113 0 -170 64q-57 -64 -170 -64q-199 0 -199 112q91 0 117 23q26 24 25 35q0 10 -28 10q-29 0 -29 -30q-85 0 -85 43q0 65 100 65q99 0 99 -65q0 -43 -29 -81q0 -17 57 -17q91 0 142 60q57 -60 153 -60q102 0 102 55v323q0 56 -14 75t-64 25
q-50 7 -120 7v261z" />
    <glyph glyph-name="uni17a2.sub" 
d="M-515 -430q16 -25 54 -30v65zM-1206 -430q19 -25 86 -30v65zM-985 -205q87 -68 165 -81.5t176 0.5q-34 -67 -128 -100q-93 -32 -230 -1q46 69 17 182zM-1450 -50l86 -1h65q64 0 176 -41q112 -43 112 -121v-260q0 -97 -47 -155q-48 -56 -134 -73q-69 1 -163 66t-95 199
q100 36 330 120q-73 18 -148 28q-76 10 -182 10v228zM-718 -50l74 -1q110 0 202 -41q91 -43 91 -121v-260q0 -97 -37 -154q-36 -57 -109 -74q-59 1 -139.5 66t-81.5 189q85 46 172 88l86 42q-38 18 -102 28q-65 10 -156 10v228z" />
    <glyph glyph-name="uni17a3.sub" 
d="M-515 -430q16 -25 54 -30v65zM-1206 -430q19 -25 86 -30v65zM-985 -205q87 -68 165 -81.5t176 0.5q-34 -67 -128 -100q-93 -32 -230 -1q46 69 17 182zM-1450 -50l86 -1h65q64 0 176 -41q112 -43 112 -121v-260q0 -97 -47 -155q-48 -56 -134 -73q-69 1 -163 66t-95 199
q100 36 330 120q-73 18 -148 28q-76 10 -182 10v228zM-718 -50l74 -1q110 0 202 -41q91 -43 91 -121v-260q0 -97 -37 -154q-36 -57 -109 -74q-59 1 -139.5 66t-81.5 189q85 46 172 88l86 42q-38 18 -102 28q-65 10 -156 10v228z" />
    <glyph glyph-name="uni17a4.sub" 
d="M-848 -564q10 -18 35 -22v47zM-1293 -564q12 -18 55 -22v47zM-1450 -123l8 -12q9 -12 37 11l87 71q69 -50 121 -71q51 -20 77 -12q-45 -129 -91 -129q-47 0 -75 12q-27 11 -56 11q-36 0 -52 -47h41q42 0 114 -30q72 -31 96 -31q-24 -24 -24 -57v-188q0 -71 -31 -113
q-31 -41 -86 -53q0 24 -41 42l-42 17q-83 36 -83 177q10 -23 38 -20q26 3 175 63q-47 14 -96 21t-117 7v331zM-1150 -401q56 -49 106 -59q50 -9 113 0q-22 -48 -82 -72t-148 -1q29 50 11 132zM-459 -488q0 -33 47 -58v105zM-978 -123l7 -12q7 -12 53 11l45 24q92 47 179 47
q1 1 2 1q90 0 318 -94q33 -13 57 1q-24 -51 -24 -86v-365q0 -70 -23.5 -108.5t-70.5 -56.5q0 24 -36 48l-36 23q-94 48 -94 213q19 -24 61 11l85 71q43 36 43 59q0 34 -142 80q-141 47 -194 47q-39 0 -85 -16q-46 -17 -85 -64q58 0 117 -30q59 -31 83 -31q-24 -24 -24 -57
v-188q0 -71 -24 -112q-23 -42 -70 -54q0 24 -36 42l-35 17q-71 36 -71 177q9 -23 32 -20q22 3 78 33l55 30q-24 14 -65 21q-42 7 -100 7v331z" />
    <glyph glyph-name="uni17a5.sub" 
d="M-1450 -742q1 143 147 229q18 11 37 20q-42 77 -184 95v173q15 -29 44 -29t194 57l166 57q423 -143 468 -143q46 0 46 29q0 35 -61 72q-60 37 -196 37q73 149 165 149q91 0 183 -55q92 -54 92 -117q0 -86 -113 -158t-256 -72q-159 0 -280 37q-122 38 -184 38
q-63 0 -121 -35q92 -25 148 -98q123 30 300 29q250 0 442 -64q64 -21 101 -10q-37 -40 -37 -69v-230q0 -86 -37 -136q-36 -50 -109 -65q0 29 -55 51l-55 21q-111 44 -111 187q13 -29 67 0l162 68q-41 17 -118 32q-76 15 -265 15q-228 0 -341.5 -29.5t-113.5 -88.5
q0 -49 78 -48q91 0 91 31q0 43 -74 43q38 34 110 34q74 0 129 -45q55 -44 55 -114t-74 -99q-73 -28 -73 -57q-184 0 -275 73q-92 73 -92 185zM-514 -762q16 -22 55 -26v57z" />
    <glyph glyph-name="uni17a6.sub" 
d="M-877 -516q0 -27 50 -47v84zM-827 -391q0 33 -75.5 62t-205.5 29q-155 0 -238 -50t-83 -128q0 -20 13 -53q12 -33 38 -33q25 0 25 37q0 26 -51 38q26 19 86 19q50 0 82 -30q33 -29 33 -66t-24 -76q-23 -39 -70 -60q-31 -14 -31 -33q-88 19 -132 76q-43 56 -44 189v56
q1 98 101 172t306 74q170 0 302 -65q43 -14 69 -7q-25 -26 -26 -45v-318q0 -56 -24.5 -87t-74.5 -46q0 19 -38 39l-38 19q-100 38 -100 170q20 -19 65 9l90 57q45 28 45 51zM-950 -890q9 -18 43 -20v20h-43zM-1404 -890q1 61 74 98q74 37 225 37q125 0 221 -20q32 -9 51 -4
q-19 -17 -19 -30v-45q33 0 59 -13q25 -13 40 -26t152 -12q113 0 169 28q57 28 57 85v261q-10 21 -51 31q-41 11 -122 11h-53v265l7 -9q8 -10 42 9l100 56q59 -40 89 -48q38 -10 38 16q0 33 -66 71q-67 38 -160 23q50 109 123 109q53 0 115 -34q63 -34 63 -154
q0 -76 -25 -114q-26 -39 -78 -39q-22 0 -58 13q-36 14 -67 14q-37 0 -72 -46h50q100 0 150 -38q50 -37 50 -117v-374q-25 -57 -100 -86q-76 -28 -201 -28q-196 0 -214 12l9 6q9 5 9 17t-13 43q-12 32 -42 32v-25q0 -36 -24 -57q-24 -22 -67 -28q0 12 -32 22l-32 9
q-65 18 -66 91q19 24 92 24h74q-21 13 -206 13q-114 0 -171 -12.5t-57 -37.5q0 -21 39 -21q46 1 46 14q0 18 -37 18q18 15 55 15q36 0 64 -20q28 -19 28 -48q0 -30 -37 -43q-37 -12 -37 -24q-92 0 -138 31t-46 79z" />
    <glyph glyph-name="uni17a7.sub" 
d="M-1450 -322q0 96 140 185q138 88 435 88q3 0 6 -1q192 0 481 -133q41 -18 41 12v-91q0 -76 -65 -142q-64 -66 -257 -150t-421 -145q14 -31 58.5 -52t125.5 -21q193 0 321 74.5t128 192.5q110 0 110 -73v-322q0 -106 -189 -106q-25 0 -54 1q133 45 133 197v81l-74 -66
q-184 -167 -441 -167q-184 0 -331 92q-147 93 -147 272q43 -30 187 -21t420 116q277 107 276 141q0 37 -126 68q-126 30 -253 30q-250 0 -308 -49q-57 -48 -57 -76q0 -27 44 -27q37 0 52 24q14 25 -22 25q7 42 91 42q100 0 100 -76q0 -136 -157 -136q-131 0 -189 59
q-58 60 -58 154z" />
    <glyph glyph-name="uni17a8.sub" 
d="M-1203 -333q-154 49 -247 28v177q14 -27 43 -27q28 0 90 26l186 78q141 -25 297 -98q103 72 191 98l121 -54q121 -55 199 -39q-86 -140 -149 -140q-85 0 -163 31.5t-131 30.5q-74 0 -186 -62q-108 52 -225 62q-75 0 -131 -26q91 -23 105 -85zM-1450 -536q0 71 140 135
q139 65 441 64q192 0 481 -97q41 -14 41 8v-66q0 -56 -65 -104q-64 -48 -257 -110q-193 -61 -421 -106q14 -22 58.5 -37.5t125.5 -15.5q193 0 321 54.5t128 140.5q110 0 110 -53v-235q0 -79 -192 -79q-24 0 -51 1q133 34 133 144v60l-74 -49q-184 -122 -441 -122
q-184 0 -331 68t-147 199q43 -23 187 -16t420 85q277 78 276 103q0 27 -126 50q-126 22 -253 22q-250 0 -308 -36q-57 -35 -57 -55t44 -20q37 0 52 18q14 18 -22 18q7 30 91 30q100 0 100 -55q0 -100 -157 -100q-131 0 -189 44q-58 43 -58 112z" />
    <glyph glyph-name="uni17a9.sub" 
d="M-244 -936v425l135 62v-487l-68 -62h-134zM-1450 -322q0 96 140 185q138 88 435 88q3 0 6 -1q192 0 481 -133q41 -18 41 12v-91q0 -76 -65 -142q-64 -66 -257 -150t-421 -145q14 -31 58.5 -52t125.5 -21q193 0 321 74.5t128 192.5q110 0 110 -73v-322q0 -106 -189 -106
q-25 0 -54 1q133 45 133 197v81l-74 -66q-184 -167 -441 -167q-184 0 -331 92q-147 93 -147 272q43 -30 187 -21t420 116q277 107 276 141q0 37 -126 68q-126 30 -253 30q-250 0 -308 -49q-57 -48 -57 -76q0 -27 44 -27q37 0 52 24q14 25 -22 25q7 42 91 42q100 0 100 -76
q0 -136 -157 -136q-131 0 -189 59q-58 60 -58 154z" />
    <glyph glyph-name="uni17aa.sub" 
d="M-1264 -374q-41 60 -186 75v130q15 -22 44 -22t194 43l166 43q423 -108 468 -108q46 0 46 22q0 27 -61 55q-60 28 -196 28q73 112 165 112q91 0 183 -41t92 -89q0 -65 -113 -119t-256 -54q-159 0 -280 28q-122 28 -184 28q-63 0 -121 -26q94 -20 150 -77zM-1450 -536
q0 71 140 135q139 65 441 64q192 0 481 -97q41 -14 41 8v-66q0 -56 -65 -104q-64 -48 -257 -110q-193 -61 -421 -106q14 -22 58.5 -37.5t125.5 -15.5q193 0 321 54.5t128 140.5q110 0 110 -53v-235q0 -79 -192 -79q-24 0 -51 1q133 34 133 144v60l-74 -49
q-184 -122 -441 -122q-184 0 -331 68t-147 199q43 -23 187 -16t420 85q277 78 276 103q0 27 -126 50q-126 22 -253 22q-250 0 -308 -36q-57 -35 -57 -55t44 -20q37 0 52 18q14 18 -22 18q7 30 91 30q100 0 100 -55q0 -100 -157 -100q-131 0 -189 44q-58 43 -58 112z" />
    <glyph glyph-name="uni17ab.sub" 
d="M-1450 -114l11 -11q11 -11 60 11l148 65q86 -47 172 -65q87 -19 122 -12q-73 -118 -128 -119q-54 0 -106 15q-53 16 -99 16q-54 0 -106 -53h52q132 0 224 -33q91 -34 91 -98t-103 -112q14 -22 98.5 -37.5t225.5 -15.5q151 0 233.5 26.5t82.5 69.5q0 24 -60 36
q-59 12 -179 12h-77v305l11 -11q11 -11 49 11l115 65q93 -47 162 -65q67 -19 103 -12q-73 -118 -114 -119q-39 0 -91.5 15.5t-91.5 15.5q-47 0 -69 -53h74q147 0 219 -43q74 -44 74 -130q0 -120 -147 -191t-441 -71q-258 0 -386 60q-129 60 -129 180q14 -22 37 -22
q139 0 213 14t74 28t-73 19q-73 4 -251 4v305zM-347 -837q0 -68 -93 -115.5t-279 -47.5q-620 1 -621 248q248 -140 665 -140q87 0 152 14q66 13 66 41q0 54 -60 54q-50 0 -50 -54q-162 0 -162 54q0 40 50 60q50 21 148 21q92 0 138 -34t46 -101z" />
    <glyph glyph-name="uni17ac.sub" 
d="M-1450 -114l11 -11q11 -11 60 11l148 65q86 -47 172 -65q87 -19 122 -12q-73 -118 -128 -119q-54 0 -106 15q-53 16 -99 16q-54 0 -106 -53h52q132 0 224 -33q91 -34 91 -98t-103 -112q14 -22 98.5 -37.5t225.5 -15.5q151 0 233.5 26.5t82.5 69.5q0 24 -60 36
q-59 12 -179 12h-77v305l11 -11q11 -11 49 11l115 65q93 -47 162 -65q67 -19 103 -12q-73 -118 -114 -119q-39 0 -91.5 15.5t-91.5 15.5q-47 0 -69 -53h74q147 0 219 -43q74 -44 74 -130q0 -120 -147 -191t-441 -71q-258 0 -386 60q-129 60 -129 180q14 -22 37 -22
q139 0 213 14t74 28t-73 19q-73 4 -251 4v305zM-347 -837q0 -68 -93 -115q-58 -30 -154 -41l19 -25q25 -30 160 -56q-61 -23 -115 -23q-22 0 -41 4q-69 14 -93 43l-13 17l-27 33h-15q-620 1 -621 248q248 -140 665 -140q87 0 152 14q66 13 66 41q0 54 -60 54q-50 0 -50 -54
q-162 0 -162 54q0 40 50 60q50 21 148 21q92 0 138 -34t46 -101z" />
    <glyph glyph-name="uni17ad.sub" 
d="M-534 -450q0 -29 73 -53v97zM-759 -260q-103 0 -214 -68q-156 67 -226 68q-70 0 -106.5 -25t-36.5 -90q0 -53 18.5 -90.5t55.5 -37.5t37 41q0 31 -74 44q37 21 125 21q73 0 121 -33q48 -34 48 -75q0 -43 -35 -87q-34 -45 -104 -69q-45 -17 -45 -39q-128 22 -192 87
t-65 216v65q0 109 131 196l132 86q179 -30 288 -107q86 86 184 107q98 -8 232 -56l101 -35q33 -11 70 -8q-37 -10 -37 -51v-349q0 -64 -36 -99t-110 -52q0 21 -55 44l-56 22q-147 43 -147 195q30 -23 96 10l132 65l66 32q-194 72 -298 72zM-347 -837q0 -68 -93 -115.5
t-279 -47.5q-620 1 -621 248q248 -140 665 -140q87 0 152 14q66 13 66 41q0 54 -60 54q-50 0 -50 -54q-162 0 -162 54q0 40 50 60q50 21 148 21q92 0 138 -34t46 -101z" />
    <glyph glyph-name="uni17ae.sub" 
d="M-759 -260q-103 0 -214 -68q-156 67 -226 68q-70 0 -106.5 -25t-36.5 -90q0 -53 18.5 -90.5t55.5 -37.5t37 41q0 31 -74 44q37 21 125 21q73 0 121 -33q48 -34 48 -75q0 -43 -35 -87q-34 -45 -104 -69q-45 -17 -45 -39q-128 22 -192 87t-65 216v65q0 109 131 196l132 86
q179 -30 288 -107q86 86 184 107q98 -8 232 -56l101 -35q33 -11 70 -8q-37 -10 -37 -51v-349q0 -64 -36 -99t-110 -52q0 21 -55 44l-56 22q-147 43 -147 195q30 -23 96 10l132 65l66 32q-194 72 -298 72zM-347 -837q0 -68 -93 -115q-58 -30 -154 -41l19 -25q25 -30 160 -56
q-61 -23 -115 -23q-22 0 -41 4q-69 14 -93 43l-13 17l-27 33h-15q-620 1 -621 248q248 -140 665 -140q87 0 152 14q66 13 66 41q0 54 -60 54q-50 0 -50 -54q-162 0 -162 54q0 40 50 60q50 21 148 21q92 0 138 -34t46 -101zM-534 -450q0 -29 73 -53v97z" />
    <glyph glyph-name="uni17af.sub" 
d="M-1233 -693q-232 0 -232 90q0 115 209 115q239 0 239 -153q0 -103 -104 -134q14 -22 47.5 -34.5t85.5 -12.5t95 35l53 49l35 -26q35 -27 87 -42q53 -16 99 -16q47 0 105 31q58 32 58 150v49q1 50 -179 128q-179 79 -299 79q-261 0 -422 -52q-109 0 -109 57q0 51 19 100
q18 48 18 99q0 52 -112 52q54 128 150 128q186 0 186 -144q0 -75 -118 -183q118 46 204 71t213 25q150 1 355 -87l103 -44q96 -43 103 3v-353q0 -120 -112 -204q-112 -83 -194 -83q-68 0 -144 39l-75 38q-73 -77 -151 -77q-184 0 -314 71q-131 70 -131 211q14 -26 37 -26
q127 0 205.5 22t78.5 50q2 36 -41.5 36t-47.5 -57z" />
    <glyph glyph-name="uni17b0.sub" 
d="M-1450 -848q47 0 483 59q267 41 267 60q0 23 -41 33q191 0 191 -46q0 -36 -349 -84l-321 -48q32 -19 78 -29t105 -10q46 0 87 21l83 50q41 16 87 16q33 0 62 -16l60 -33q33 -16 79 -16t69 16q22 16 22 49q0 60 -45 130q183 -42 183 -130q0 -87 -57 -130q-58 -44 -172 -44
q-138 0 -183 22l-92 43q-137 -65 -228 -65q-170 0 -269 58t-99 94zM-534 -450q0 -29 73 -53v97zM-759 -260q-103 0 -214 -68q-156 67 -226 68q-70 0 -106.5 -25t-36.5 -90q0 -53 18.5 -90.5t55.5 -37.5t37 41q0 31 -74 44q37 21 125 21q73 0 121 -33q48 -34 48 -75
q0 -43 -35 -87q-34 -45 -104 -69q-45 -17 -45 -39q-128 22 -192 87t-65 216v65q0 109 131 196l132 86q179 -30 288 -107q86 86 184 107q98 -8 232 -56l101 -35q33 -11 70 -8q-37 -10 -37 -51v-349q0 -64 -36 -99t-110 -52q0 21 -55 44l-56 22q-147 43 -147 195q30 -23 96 10
l132 65l66 32q-194 72 -298 72z" />
    <glyph glyph-name="uni17b1.sub" 
d="M-1450 -536q0 71 140 135q-140 3 -140 106q0 104 95 170t359 66q240 0 406 -64q167 -65 244 -193q16 -25 16 -42q0 -22 -28 -30q-47 -14 -95 38q-71 77 -211 115q-139 39 -332 39q-186 0 -273 -25q-86 -25 -86 -74q78 43 151 43q63 0 98.5 -20.5t36.5 -60.5q0 -6 -2 -12
q90 9 202 8q192 0 481 -97q38 -13 41 5v-63q0 -56 -65 -104q-64 -48 -257 -110q-193 -61 -421 -106q14 -22 58.5 -37.5t125.5 -15.5q193 0 321 54.5t128 140.5q110 0 110 -53v-235q0 -79 -192 -79q-24 0 -51 1q133 34 133 144v60l-74 -49q-184 -122 -441 -122
q-184 0 -331 68t-147 199q43 -23 187 -16t420 85q277 78 276 103q0 27 -126 50q-126 22 -253 22q-250 0 -308 -36q-57 -35 -57 -55t44 -20q37 0 52 18q14 18 -22 18q7 30 91 30q100 0 100 -55q0 -100 -157 -100q-131 0 -189 44q-58 43 -58 112z" />
    <glyph glyph-name="uni17b2.sub" 
d="M-1530 5q224 -5 336 -63q112 -59 112 -169v-98q1 -108 -111 -211q-113 -103 -112 -165q0 -67 131 -93q130 -26 261 -26t243 34q111 34 111 65q1 31 -57 45q-59 14 -241 -66q-1 103 205 204q169 69 169 113q-1 44 -158 44q-156 0 -172 -52q83 0 75 -51.5t-66 -51.5
q-177 0 -134 154q21 77 102 116t221 39q141 0 211 -44q70 -43 70 -131q0 -57 -52 -108q-53 -51 -158 -96q210 -59 210 -162t-168 -168q-168 -64 -403 -64q-236 1 -393 52t-157 247q0 62 56 170t57 265q0 157 -188 271z" />
    <glyph glyph-name="uni17b3.sub" 
d="M-1450 -536q0 71 140 135q16 8 34 14h-24q-150 0 -150 86q0 85 96 138q95 54 361 54q195 0 342 -33q62 121 249 139q28 5 52 5q100 0 144 -85q-224 -6 -287 -112q101 -49 156 -123q36 -48 -37 -77q-40 -16 -97 -12q41 -12 83 -27q38 -13 41 5v-63q0 -56 -65 -104
q-64 -48 -257 -110q-193 -61 -421 -106q14 -22 58.5 -37.5t125.5 -15.5q193 0 321 54.5t128 140.5q110 0 110 -53v-235q0 -79 -192 -79q-24 0 -51 1q133 34 133 144v60l-74 -49q-184 -122 -441 -122q-184 0 -331 68t-147 199q43 -23 187 -16t420 85q277 78 276 103
q0 27 -126 50q-126 22 -253 22q-250 0 -308 -36q-57 -35 -57 -55t44 -20q37 0 52 18q14 18 -22 18q7 30 91 30q100 0 100 -55q0 -100 -157 -100q-131 0 -189 44q-58 43 -58 112zM-1066 -332q0 -7 -3 -13q89 9 200 8q106 0 240 -29q-57 35 -54 99l2 20q-133 26 -311 26
q-188 0 -276 -20q-86 -20 -86 -60q78 35 152 35q63 0 99 -16.5t37 -49.5z" />
    <glyph glyph-name="uni1780.a" horiz-adv-x="2650" 
d="M1550 450v117q-59 -55 -81.5 -74t-2 -53t52 -34t31.5 44zM2400 450v117q-59 -55 -81.5 -74t-2 -53t52 -34t31.5 44zM2500 1150v-950q0 -60 -60 -130t-140 -70q-161 0 -280 154q-120 153 -120 266q0 71 250 140t250 233q0 171 -342 309t-451 138q-110 0 -254 -63t-236 -63
q-95 0 -305.5 69t-267.5 69q-59 0 -196 -55q129 -4 223 -95l-162 -95q-115 62 -259 47v206q464 240 636 240q129 0 332 -90t252 -90t209 90q159 90 253 90q122 0 395 -122.5t273 -227.5zM434 1000q91 0 163 -29q70 -28 110 -80q237 209 389 209q186 0 554 -120v-840
q-120 -140 -200 -140q-161 0 -280 154q-120 153 -120 296q208 20 467 183q-311 117 -461 117q-162 0 -306 -73v-477q0 -200 -300 -200t-300 300v150q94 -50 209 -50q114 0 203 58q74 48 86 146q-22 -14 -48 -24q-72 -30 -150 -30q-300 0 -300 225t284 225z" />
    <glyph glyph-name="uni1781.a" horiz-adv-x="2650" 
d="M2400 450v117q-59 -55 -81.5 -74t-2 -53t52 -34t31.5 44zM1649 1035q1 -13 1 -26q0 -244 -262.5 -380.5t-787.5 -164.5q60 -164 424 -164t626 358q0 -658 -750 -658t-750 601q436 2 768 79t332 269q0 251 -450 251t-450 -180q0 -77 36 -121v9q0 49 36.5 94t101.5 69.5
t134 24.5q68 0 133 -24.5t102 -69.5t37 -94t-36 -93.5t-100.5 -69.5t-135.5 -25q-508 0 -508 320q0 460 750 460q635 0 732 -352q38 104 112 195q126 157 231 157q165 0 345 -123t180 -227v-950q0 -60 -60 -130t-140 -70q-161 0 -280 154q-120 153 -120 266q0 71 250 140
t250 233q0 131 -182.5 239t-325.5 108q-97 0 -243 -105z" />
    <glyph glyph-name="uni1782.a" horiz-adv-x="2650" 
d="M2400 450v117q-59 -55 -81.5 -74t-2 -53t52 -34t31.5 44zM2500 1150v-950q0 -60 -60 -130t-140 -70q-161 0 -280 154q-120 153 -120 266q0 71 250 140t250 233q0 171 -342 309t-451 138q-110 0 -254 -83t-236 -83q-95 0 -305.5 89t-267.5 89q-59 0 -196 -55
q129 -4 227 -126l-166 -64q-115 62 -259 47v206q464 240 636 240q129 0 332 -90t252 -90t209 90q159 90 253 90q122 0 395 -122.5t273 -227.5zM1518.5 406q31.5 0 31.5 44v117q-59 -55 -81.5 -74t-2 -53t52 -34zM845 1060q277 0 805 -80v-840q-120 -140 -200 -140
q-161 0 -280 154q-120 153 -120 296q208 20 467 183q-471 77 -721 77q-251 0 -398.5 -80t-147.5 -160q0 -130 149 -148q53 145 151.5 211.5t198.5 66.5q120 0 191.5 -77t35 -175t-102 -98t-105.5 43.5t-100.5 43t-78.5 -57.5q-18 -78 64 -142q-64 -137 -215 -137
q-148 0 -218 83t-70 216v431q85 167 251.5 248.5t443.5 81.5z" />
    <glyph glyph-name="uni1783.a" horiz-adv-x="3340" 
d="M3090 450v117q-59 -55 -81.5 -74t-2 -53t52 -34t31.5 44zM2450 601q0 -235 -200 -418t-520 -183q-245 0 -431 80q-164 -80 -389 -80q-370 0 -555 137.5t-205 412.5q240 0 356 81t145 177t29 130q0 106 -67.5 199t-162.5 93q-149 0 -149 -75t80 -75q69 0 119 50
q82 -51 106 -160.5t-42 -189.5t-161 -80t-174 87.5t-79 282.5q0 200 100 315t231 115q185 0 272 -108t87 -324q0 -107 -49.5 -282t-180.5 -346q19 -50 134 -85t306 -35q205 0 327.5 60t122.5 200q0 55 -122.5 102.5t-397.5 -32.5v574q0 76 129 176t165 100t159.5 -68
t214.5 -68q-79 -273 -163.5 -273.5t-155.5 34.5t-144.5 15t-103.5 -140q255 80 412 -35t157 -364q0 -137 -68 -256q107 -25 268 -25q205 0 327.5 60t122.5 200q0 55 -102.5 102.5t-417.5 -32.5v524q0 76 218 201t438 125q270 0 512 -113t242 -217v-970q0 -60 -60 -130
t-140 -70q-161 0 -280 154q-120 153 -120 266q0 71 250 140t250 233q0 111 -279 254q-280 143 -490 143q-141 0 -249.5 -45t-190.5 -145q295 80 432 -35t137 -364z" />
    <glyph glyph-name="uni1784.a" horiz-adv-x="2650" 
d="M2400 450v117q-59 -55 -81.5 -74t-2 -53t52 -34t31.5 44zM1649 1035q1 -14 1 -27q0 -142 -99 -255t-287 -113q-304 0 -304 205t191 205q130 1 180 -69q-9 -77 80.5 -79t89.5 53q0 97 -162 166t-386 69q-291 0 -424.5 -53.5t-226.5 -115.5q199 39 353.5 -28t154.5 -275
q0 -148 -200 -278q19 -50 134 -85t306 -35q205 0 349 98.5t251 272.5q0 -325 -200 -508t-540 -183q-370 0 -555 137.5t-205 362.5q240 0 370 43q130 42 130 109.5t-169 57.5t-331 -60v466q90 144 284.5 264t514.5 120q291 0 496 -155q135 -102 181 -215q37 113 118 213
q126 157 231 157q165 0 345 -123t180 -227v-950q0 -60 -60 -130t-140 -70q-161 0 -280 154q-120 153 -120 266q0 71 250 140t250 233q0 131 -182.5 239t-325.5 108q-97 0 -243 -105z" />
    <glyph glyph-name="uni1785.a" horiz-adv-x="2650" 
d="M2400 450v117q-59 -55 -81.5 -74t-2 -53t52 -34t31.5 44zM2500 1150v-950q0 -60 -60 -130t-140 -70q-161 0 -280 154q-120 153 -120 266q0 71 250 140t250 233q0 171 -322 299t-471 128q-110 0 -254 -73t-236 -73q-95 0 -289.5 66t-291.5 66q-89 0 -183 -60t-97 -114
q257 61 400 -19q154 -87 154 -295q0 -148 -200 -278q19 -50 134 -85t306 -35q205 0 327.5 88.5t122.5 241.5q0 48 -9 87q-8 -20 -22 -40q-33 -49 -93.5 -75.5t-125.5 -26.5t-125.5 26.5t-93.5 75t-33 100.5q0 53 34 102t94 75t124 26q400 0 400 -350q0 -284 -200 -467
t-540 -183q-370 0 -555 137.5t-205 362.5q240 0 370 52.5t130 120t-169 57.5t-331 -80v520q82 118 273 224t363 106q129 0 332 -90t252 -90t209 90q159 90 253 90q122 0 395 -122.5t273 -227.5z" />
    <glyph glyph-name="uni1786.a" horiz-adv-x="2650" 
d="M2400 450v117q-59 -55 -81.5 -74t-2 -53t52 -34t31.5 44zM650 400v50q-59 0 -81.5 -13t-2 -47t52 -34t31.5 44zM150 1170q82 118 273 224t363 106q129 0 332 -90t252 -90t209 90q159 90 253 90q122 0 395 -122.5t273 -227.5v-950q0 -60 -60 -130t-140 -70
q-161 0 -280 154q-120 153 -120 266q0 71 250 140t250 233q0 171 -322 299t-471 128q-110 0 -254 -73t-236 -73q-95 0 -289.5 66t-291.5 66q-89 0 -183 -60t-97 -114q169 23 307 -29t187 -153v-250q90 0 160 -52q69 -53 110 -140q40 -88 178 -88q167 0 234.5 90t67.5 240
q0 48 -9 87q-8 -20 -22 -40q-33 -49 -93.5 -75.5t-125.5 -26.5t-125.5 26.5t-93.5 75t-33 100.5q0 53 34 102t94 75t124 26q400 0 400 -350q0 -324 -130 -487t-305 -163q-315 0 -351 322q-34 128 -114 128v-310q-120 -140 -200 -140q-161 0 -280 154q-120 153 -120 296
q148 150 335 150h137q2 59 -152 93t-320 -43v520z" />
    <glyph glyph-name="uni1787.a" horiz-adv-x="2650" 
d="M2400 450v117q-59 -55 -81.5 -74t-2 -53t52 -34t31.5 44zM1445 1071q-135 -102 -269 -102q-165 0 -330.5 95t-300.5 95q-175 0 -283 -138q239 59 393.5 -18t154.5 -285q0 -148 -200 -278q19 -50 134 -85t306 -35q205 0 349 98.5t251 342.5q0 -395 -200 -578t-540 -183
q-370 0 -555 137.5t-205 362.5q240 0 370 42.5t130 110t-169 72.5t-331 -75v520q74 134 235 232t314 98q152 -1 360 -151t280 -150q62 0 62 81q0 80 -155 147q-156 67 -105.5 169.5t175.5 102.5q124 0 229 -80t105 -225q0 -69 -36 -137q47 47 98 95q158 148 263 148
q165 0 345 -123t180 -227v-950q0 -60 -60 -130t-140 -70q-161 0 -280 154q-120 153 -120 266q0 71 250 140t250 233q0 131 -182.5 264t-325.5 133q-173 0 -447 -119z" />
    <glyph glyph-name="uni1788.a" horiz-adv-x="3870" 
d="M3620 450v117q-59 -55 -81.5 -74t-2 -53t52 -34t31.5 44zM2980 601q0 -235 -200 -418t-520 -183q-245 0 -431 80q-164 -80 -389 -80q-230 0 -405 103.5t-258 309.5l321 464q-81 146 -195 230q-114 83 -254 83q-141 0 -224 -53q-84 -54 -157 -116q155 39 268.5 -28
t113.5 -275q0 -118 -134 -222q-171 -134 -130 -166.5t79 34t92 66.5q143 0 143 -160q0 -270 -275 -270t-275 280q0 90 52 177q52 86 248 159q-16 112 -126.5 112t-173.5 -58v446q70 144 201.5 264t370.5 120t402 -109t216 -216l53 -108l-272 -464q53 -144 160.5 -213.5
t298.5 -69.5q205 0 327.5 60t122.5 200q0 55 -122.5 102.5t-397.5 -32.5v574q0 76 129 176t165 100t159.5 -68t214.5 -68q-79 -273 -163.5 -273.5t-155.5 34.5t-144.5 15t-103.5 -140q255 80 412 -35t157 -364q0 -137 -68 -256q107 -25 268 -25q205 0 327.5 60t122.5 200
q0 55 -102.5 102.5t-417.5 -32.5v524q0 76 218 201t438 125q270 0 512 -113t242 -217v-970q0 -60 -60 -130t-140 -70q-161 0 -280 154q-120 153 -120 266q0 71 250 140t250 233q0 111 -279 254q-280 143 -490 143q-141 0 -249.5 -45t-190.5 -145q295 80 432 -35t137 -364z
" />
    <glyph glyph-name="uni1789.a" horiz-adv-x="3500" 
d="M1550 450v117q-59 -55 -81.5 -74t-2 -53t52 -34t31.5 44zM3250 450v117q-59 -55 -81.5 -74t-2 -53t52 -34t31.5 44zM2400 450v117q-59 -55 -81.5 -74t-2 -53t52 -34t31.5 44zM2350 -300q0 -350 -442 -350q-84 0 -166 5.5t-165 16.5q-166 21 -537 178q-163 50 -347 50
q-322 0 -442 -150q0 300 552 300q387 0 665 -150q279 -150 440 -150q276 0 276 250q0 150 -110 150q-55 0 -55 -50t55 -50q0 -150 -111 -150q-165 0 -165 150q0 200 276 200t276 -250zM2500 1035v-835q0 -60 -60 -130t-140 -70q-161 0 -280 154q-120 153 -120 266
q0 71 250 140t250 233q0 111 -182 229q-183 118 -326 118q-97 0 -242 -105v-835q0 -60 -60 -130t-140 -70q-161 0 -280 154q-120 153 -120 266q0 71 250 140t250 233q0 111 -157 229q-158 118 -271 118q-114 0 -232 -113q-182 113 -331 113q-109 -1 -194 -110
q-85 -110 -85 -280q0 -174 60 -281t210 -92t150 84q0 40 -27 63.5t-53.5 -7t-102.5 -30.5q-142 0 -142 178q0 238 202 238q223 0 223 -345q0 -558 -269 -558q-381 0 -381 750q0 360 135 555q134 195 303 195q109 0 204.5 -57t177.5 -138q130 195 235 195q145 0 295 -113
q136 -103 149 -198q36 81 95 154q126 157 231 157q165 0 345 -123q152 -104 176 -195q36 85 98 161q126 157 231 157q165 0 345 -123t180 -227v-950q0 -60 -60 -130t-140 -70q-161 0 -280 154q-120 153 -120 266q0 71 250 140t250 233q0 131 -182.5 239t-325.5 108
q-97 0 -242 -105z" />
    <glyph glyph-name="uni178a.a" horiz-adv-x="2650" 
d="M2400 450v117q-59 -55 -81.5 -74t-2 -53t52 -34t31.5 44zM1446 1072q-135 -103 -270 -103q-165 0 -330.5 95t-300.5 95q-175 0 -283 -138q239 59 393.5 -18t154.5 -285q0 -148 -200 -278q19 -50 74 -75t138 -25t241 178q110 -158 186 -158t185 78.5t216 322.5
q0 -395 -120 -578t-270 -183t-344 167q-181 -167 -323 -167q-143 0 -283 137.5t-160 362.5q240 0 370 42.5t130 110.5q0 67 -169 72t-331 -75v520q74 134 235 232t314 98q152 -1 360 -151t280 -150q62 0 62 81q0 80 -155 147q-156 67 -105.5 169.5t175.5 102.5
q124 0 229 -80t105 -225q0 -69 -36 -137q47 47 98 95q158 148 263 148q165 0 345 -123t180 -227v-950q0 -60 -60 -130t-140 -70q-161 0 -280 154q-120 153 -120 266q0 71 250 140t250 233q0 131 -182.5 264t-325.5 133q-173 0 -446 -118z" />
    <glyph glyph-name="uni178b.a" horiz-adv-x="2650" 
d="M2400 450v117q-59 -55 -81.5 -74t-2 -53t52 -34t31.5 44zM1557 1117q-31 -26 -72 -26q-85 -1 -156 34t-144.5 15t-103.5 -140q255 80 412 -35t157 -364q0 -235 -200 -418t-540 -183q-370 0 -555 137.5t-205 412.5q240 0 356 81t145 177t29 130q0 106 -67.5 199t-162.5 93
q-149 0 -149 -75t80 -75q69 0 119 50q82 -51 106 -160.5t-42 -189.5t-161 -80t-174 87.5t-79 282.5q0 200 100 315t231 115q185 0 272 -108t87 -324q0 -107 -49.5 -282t-180.5 -346q19 -50 134 -85t306 -35q205 0 327.5 60t122.5 200q0 55 -122.5 102.5t-397.5 -32.5v574
q0 76 129 176t165 100t97.5 -41t95 -26.5t33.5 56.5q0 140 -213 94q-143 57 -119.5 181.5t148.5 124.5q124 0 229 -80t105 -325q0 -124 -21 -216q36 40 83 84q158 148 263 148q165 0 345 -123t180 -227v-950q0 -60 -60 -130t-140 -70q-161 0 -280 154q-120 153 -120 266
q0 71 250 140t250 233q0 131 -182.5 264t-325.5 133q-158 0 -335 -73z" />
    <glyph glyph-name="uni178c.a" horiz-adv-x="2650" 
d="M2400 450v117q-59 -55 -81.5 -74t-2 -53t52 -34t31.5 44zM1627 1019q-22 -60 -65 -110q-87 -101 -350 -240q-262 -139 -572 -239q19 -50 79 -85t171 -35q212 0 316 82.5t104 227.5q340 130 340 10v-430q-1 -225 -220 -225q-73 0 -170 25q50 0 50 294q-160 -294 -510 -294
q-250 0 -450 152q-200 153 -200 276v122q450 30 798.5 211.5t348.5 294.5q-51 124 -193 124q-111 0 -221 -167q-213 167 -389 167q-155 0 -155 -190v-45q0 -45 60 -45q39 160 185 160q206 0 206 -171q0 -189 -339 -189q-143 0 -222 98t-79 253q0 189 189 319t280 130
t162 -34t199 -123q127 157 261 157q133 0 271 -104q121 -92 136 -209q36 82 96 156q126 157 231 157q165 0 345 -123t180 -227v-950q0 -60 -60 -130t-140 -70q-161 0 -280 154q-120 153 -120 266q0 71 250 140t250 233q0 131 -182.5 239t-325.5 108q-104 0 -265 -121z" />
    <glyph glyph-name="uni178d.a" horiz-adv-x="3440" 
d="M1550 400v50q-59 0 -81.5 -13t-2 -47t52 -34t31.5 44zM3190 450v117q-59 -55 -81.5 -74t-2 -53t52 -34t31.5 44zM800 558q0 -558 -269 -558q-381 0 -381 750q0 360 135 555q134 195 303 195q109 0 204.5 -57t177.5 -138q130 175 235 185q145 10 295 -103t150 -217v-570
q90 0 160 -52q69 -53 110 -140q40 -88 178 -88q157 0 230 75q72 75 72 173q0 67 -102.5 114.5t-417.5 -32.5v524q0 76 218 201t438 125q270 0 512 -113t242 -217v-970q0 -60 -60 -130t-140 -70q-161 0 -280 154q-120 153 -120 266q0 71 250 140t250 233q0 111 -279 254
q-280 143 -490 143q-141 0 -249.5 -45t-190.5 -145q295 80 432 -35t137 -377t-130 -425t-305 -163q-315 0 -351 322q-34 128 -114 128v-310q-120 -140 -200 -140q-161 0 -280 154q-120 153 -120 296q148 150 335 150h165v193q0 111 -157.5 229t-270.5 118q-114 0 -232 -113
q-182 113 -331 113q-109 -1 -194 -110q-85 -110 -85 -280q0 -174 60 -281t210 -92t150 84q0 40 -27 63.5t-53.5 -7t-102.5 -30.5q-142 0 -142 178q0 238 202 238q223 0 223 -345z" />
    <glyph glyph-name="uni178e.a" horiz-adv-x="4033" 
d="M2930 450v117q-59 -55 -81.5 -74t-2 -53t52 -34t31.5 44zM3783 450v117q-59 -55 -81.5 -74t-2 -53t52 -34t31.5 44zM3030 1033v-833q0 -60 -60 -130t-140 -70q-161 0 -280 154q-120 153 -120 266q0 71 250 140t250 233q0 111 -279 254q-280 143 -450 143q-141 0 -264 -45
q-124 -45 -176 -145q255 80 392 -35t137 -364q0 -305 -150 -453t-300 -148t-304 167q-191 -167 -313 -167q-143 0 -278 137.5t-155 362.5q0 194 358 417q-81 146 -210 209.5t-269 63.5q-161 0 -244 -53q-84 -54 -157 -116q155 39 268.5 -28t113.5 -275q0 -118 -134 -222
q-171 -134 -130 -166.5t79 34t92 66.5q143 0 143 -160q0 -270 -275 -270t-275 280q0 90 52 177q52 86 248 159q-16 112 -126.5 112t-173.5 -58v446q70 144 216.5 264t405.5 120q209 0 428 -120t296 -359q-1 -86 -184 -202q-184 -116 -184 -242q65 -152 148 -194.5t176 -42.5
t211 178q110 -158 206 -158t183.5 58.5t87.5 161.5q0 55 -102.5 102.5t-377.5 -32.5v524q0 76 198 201t418 125q270 0 512 -113q227 -106 241 -204q36 84 98 160q126 157 231 157q165 0 345 -123t180 -227v-950q0 -60 -60 -130t-140 -70q-161 0 -280 154q-120 153 -120 266
q0 71 250 140t250 233q0 131 -182.5 239t-325.5 108q-98 0 -245 -107z" />
    <glyph glyph-name="uni178f.a" horiz-adv-x="2650" 
d="M2400 450v117q-59 -55 -81.5 -74t-2 -53t52 -34t31.5 44zM2500 1150v-950q0 -60 -60 -130t-140 -70q-161 0 -280 154q-120 153 -120 266q0 71 250 140t250 233q0 171 -342 309t-451 138q-110 0 -254 -83t-236 -83q-95 0 -305.5 89t-267.5 89q-59 0 -196 -55
q129 -4 227 -126l-166 -64q-115 62 -259 47v206q464 240 636 240q129 0 332 -90t252 -90t209 90q159 90 253 90q122 0 395 -122.5t273 -227.5zM1518.5 406q31.5 0 31.5 44v117q-59 -55 -81.5 -74t-2 -53t52 -34zM845 1060q277 0 805 -80v-840q-120 -140 -200 -140
q-161 0 -280 154q-120 153 -120 296q208 20 467 183q-471 77 -721 77q-251 0 -373.5 -65t-122.5 -225t238 -160q43 0 56 52q-194 -5 -194 149q0 153 216 173q216 19 283 -151t-31 -326q-99 -157 -278 -157q-440 0 -440 495q0 315 209 440t486 125z" />
    <glyph glyph-name="uni1790.a" horiz-adv-x="2650" 
d="M2400 450v117q-59 -55 -81.5 -74t-2 -53t52 -34t31.5 44zM1373 1084q-99 -55 -197 -55q-165 0 -330.5 65t-300.5 65q-165 0 -271 -123q244 54 382 -23q154 -87 154 -295q0 -148 -200 -278q19 -50 134 -85t306 -35q205 0 327.5 88.5t122.5 191.5q0 48 -9 87
q-8 -20 -22 -40q-33 -49 -93.5 -75.5t-125.5 -26.5t-125.5 26.5t-93.5 75t-33 100.5q0 53 34 102t94 75t124 26q400 0 400 -350q0 -234 -200 -417t-540 -183q-370 0 -555 137.5t-205 362.5q240 0 370 52.5t130 120t-169 57.5t-331 -80v520q74 134 235 232t314 98
q152 -1 360 -121t280 -120q62 0 62 81q0 80 -155 147q-156 67 -105.5 169.5t175.5 102.5q124 0 229 -80t105 -225q0 -73 -41 -146q35 27 71 54q190 138 295 138q165 0 345 -123t180 -227v-950q0 -60 -60 -130t-140 -70q-161 0 -280 154q-120 153 -120 266q0 71 250 140
t250 233q0 131 -182.5 264t-325.5 133q-169 0 -519 -106z" />
    <glyph glyph-name="uni1791.a" horiz-adv-x="2650" 
d="M2400 450v117q-59 -55 -81.5 -74t-2 -53t52 -34t31.5 44zM1649 1035q1 -14 1 -27q0 -102 -99 -215t-287 -113q-304 0 -304 205t191 205q130 1 180 -69q-9 -77 80.5 -79t89.5 53q0 67 -162 131t-386 64q-291 0 -424.5 -53.5t-226.5 -115.5q199 39 353.5 -28t154.5 -275
q0 -178 -219 -323q58 -65 133 -65q85 0 240.5 145t355.5 145q125 0 227.5 -88.5t102.5 -212.5t-87.5 -221.5t-212.5 -97.5t-188 50q-62 50 -62 150t50 120q50 50 150 50q0 -50 50 -50t50 45q0 65 -150 65q-130 0 -245 -215t-385 -215q-180 0 -325 118q-145 117 -145 250v132
h100q190 0 295 42.5t105 110t-169 57.5t-331 -60v466q90 144 284.5 264t514.5 120q291 0 496 -155q135 -102 181 -215q37 113 118 213q126 157 231 157q165 0 345 -123t180 -227v-950q0 -60 -60 -130t-140 -70q-161 0 -280 154q-120 153 -120 266q0 71 250 140t250 233
q0 131 -182.5 239t-325.5 108q-97 0 -243 -105z" />
    <glyph glyph-name="uni1792.a" horiz-adv-x="2650" 
d="M2400 450v117q-59 -55 -81.5 -74t-2 -53t52 -34t31.5 44zM150 1170q82 118 273 224t363 106q129 0 332 -90t252 -90t209 90q159 90 253 90q122 0 395 -122.5t273 -227.5v-950q0 -60 -60 -130t-140 -70q-161 0 -280 154q-120 153 -120 266q0 71 250 140t250 233
q0 171 -322 299t-471 128q-110 0 -254 -73t-236 -73q-95 0 -289.5 66t-291.5 66q-89 0 -183 -60t-97 -114q257 61 400 -19q154 -87 154 -295q0 -148 -200 -278q19 -50 74 -75t138 -25t241 178q110 -158 186 -158t163.5 78.5t87.5 211.5q0 48 -9 87q-8 -20 -22 -40
q-33 -49 -93.5 -75.5t-125.5 -26.5t-125.5 26.5t-93.5 75t-33 100.5q0 53 34 102t94 75t124 26q400 0 400 -350q0 -284 -120 -467t-270 -183t-344 167q-181 -167 -323 -167q-143 0 -283 137.5t-160 362.5q240 0 370 42.5t130 120t-169 67.5t-331 -80v520z" />
    <glyph glyph-name="uni1793.a" horiz-adv-x="2650" 
d="M650 400v50q-59 0 -81.5 -13t-2 -47t52 -34t31.5 44zM2400 450v117q-59 -55 -81.5 -74t-2 -53t52 -34t31.5 44zM1649 1035q1 -14 1 -27q0 -142 -99 -255t-287 -113q-304 0 -304 205t191 205q130 1 180 -69q-9 -77 80.5 -79t89.5 53q0 97 -162 166t-386 69
q-291 0 -424.5 -53.5t-226.5 -115.5q123 34 261 -18t187 -153v-250q90 0 160 -52q69 -53 110 -140q40 -88 178 -88q167 0 269.5 78t182.5 293q0 -365 -130 -528t-305 -163q-315 0 -351 322q-34 128 -114 128v-310q-120 -140 -200 -140q-161 0 -280 154q-120 153 -120 296
q148 150 335 150h137q-28 59 -84 83q-113 47 -388 -33v466q90 144 284.5 264t514.5 120q291 0 496 -155q135 -102 181 -215q37 113 118 213q126 157 231 157q165 0 345 -123t180 -227v-950q0 -60 -60 -130t-140 -70q-161 0 -280 154q-120 153 -120 266q0 71 250 140t250 233
q0 131 -182.5 239t-325.5 108q-97 0 -243 -105z" />
    <glyph glyph-name="uni1794.a" horiz-adv-x="2650" 
d="M2400 450v117q-59 -55 -81.5 -74t-2 -53t52 -34t31.5 44zM1497 230q-22 -24 -47 -47q-200 -183 -540 -183q-370 0 -555 137.5t-205 362.5q240 0 370 52.5t130 120t-169 57.5t-331 -80v520q82 118 273 224t363 106q129 0 332 -90t252 -90t209 90q159 90 253 90
q122 0 395 -122.5t273 -227.5v-950q0 -60 -60 -130t-140 -70q-161 0 -280 154q-120 153 -120 266q0 71 250 140t250 233q0 171 -322 299t-471 128q-110 0 -254 -73t-236 -73q-95 0 -289.5 66t-291.5 66q-89 0 -183 -60t-97 -114q257 61 400 -19q154 -87 154 -295
q0 -148 -200 -278q19 -50 134 -85t306 -35q205 0 327.5 88.5t122.5 241.5q-45 -55 -110 -55t-115.5 26.5t-78.5 75t-28 100.5q0 53 29 102t89 75t184 26q180 0 180 -350v-550q0 -200 -140 -200t-140 71.5t65 114.5q51 33 62 144z" />
    <glyph glyph-name="uni1795.a" horiz-adv-x="2650" 
d="M2400 450v117q-59 -55 -81.5 -74t-2 -53t52 -34t31.5 44zM1396 1098q-110 -69 -220 -69q-165 0 -330.5 65t-300.5 65q-165 0 -289 -127q111 26 201 26q118 0 199 -45q154 -87 154 -295q0 -148 -200 -278q19 -50 74 -75t138 -25t241 178q110 -158 186 -158t163.5 78.5
t87.5 171.5q0 48 -9 87q-8 -20 -22 -40q-33 -49 -93.5 -75.5t-125.5 -26.5t-125.5 26.5t-93.5 75t-33 100.5q0 53 34 102t94 75t124 26q400 0 400 -350q0 -244 -120 -427t-270 -183t-344 167q-181 -167 -323 -167q-143 0 -283 137.5t-160 362.5q240 0 370 42.5t130 120
t-169 67.5t-331 -80v520q74 134 235 232t314 98q152 -1 360 -121t280 -120q62 0 62 81q0 80 -155 147q-156 67 -105.5 169.5t175.5 102.5q124 0 229 -80t105 -225q0 -101 -76 -199q58 48 119 99q177 146 282 146q165 0 345 -123t180 -227v-950q0 -60 -60 -130t-140 -70
q-161 0 -280 154q-120 153 -120 266q0 71 250 140t250 233q0 131 -182.5 264t-325.5 133q-167 0 -496 -92z" />
    <glyph glyph-name="uni1796.a" horiz-adv-x="2650" 
d="M1550 450v117q-59 -55 -81.5 -74t-2 -53t52 -34t31.5 44zM2400 450v117q-59 -55 -81.5 -74t-2 -53t52 -34t31.5 44zM1650 1035v-835q0 -60 -60 -130t-140 -70q-161 0 -280 154q-120 153 -120 266q0 71 250 140t250 233q0 111 -157 229q-158 118 -271 118
q-114 0 -232 -113q-182 113 -331 113q-109 -1 -194 -110q-85 -110 -85 -280q0 -174 60 -281t210 -92t150 84q0 40 -27 63.5t-53.5 -7t-102.5 -30.5q-142 0 -142 178q0 238 202 238q223 0 223 -345q0 -558 -269 -558q-381 0 -381 750q0 360 135 555q134 195 303 195
q109 0 204.5 -57t177.5 -138q130 195 235 195q145 0 295 -113q136 -103 149 -198q36 81 95 154q126 157 231 157q165 0 345 -123t180 -227v-950q0 -60 -60 -130t-140 -70q-161 0 -280 154q-120 153 -120 266q0 71 250 140t250 233q0 111 -182 229q-183 118 -326 118
q-97 0 -242 -105z" />
    <glyph glyph-name="uni1797.a" horiz-adv-x="2650" 
d="M2400 450v117q-59 -55 -81.5 -74t-2 -53t52 -34t31.5 44zM2500 1150v-950q0 -60 -60 -130t-140 -70q-161 0 -280 154q-120 153 -120 266q0 71 250 140t250 233q0 171 -342 309t-451 138q-110 0 -254 -83t-236 -83q-95 0 -305.5 89t-267.5 89q-59 0 -196 -55
q129 -4 227 -126l-166 -64q-115 62 -259 47v206q464 240 636 240q129 0 332 -90t252 -90t209 90q159 90 253 90q122 0 395 -122.5t273 -227.5zM1518.5 406q31.5 0 31.5 44v117q-59 -55 -81.5 -74t-2 -53t52 -34zM845 1060q277 0 805 -80v-840q-120 -140 -200 -140
q-161 0 -280 154q-120 153 -120 296q208 20 467 183q-471 77 -701 77q-151 0 -246 -57q330 -76 330 -316q0 -337 -376 -337q-374 0 -374 285q0 241 245 243q145 1 197 -93q52 -93 -47 -154q-98 -60 -191 22q-93 81 -114 53t42 -83t240 -44q138 11 138 166q0 112 -150 163.5
t-360 6.5q0 205 209 350t486 145z" />
    <glyph glyph-name="uni1798.a" horiz-adv-x="2540" 
d="M2290 450v117q-59 -55 -81.5 -74t-2 -53t52 -34t31.5 44zM1650 601q0 -235 -200 -418t-540 -183q-370 0 -555 137.5t-205 362.5q240 0 370 42.5t130 110t-169 57.5t-331 -60v574q0 76 144 176t188 100t157.5 -59.5t258.5 -76.5q-109 -263 -203.5 -263.5t-165.5 34.5
t-149.5 15t-138.5 -150q260 60 414.5 -7t154.5 -275q0 -148 -200 -278q19 -50 134 -85t306 -35q205 0 327.5 60t122.5 200q0 55 -102.5 102.5t-377.5 -32.5v524q0 76 198 201t418 125q270 0 512 -113t242 -217v-970q0 -60 -60 -130t-140 -70q-161 0 -280 154
q-120 153 -120 266q0 71 250 140t250 233q0 111 -279 254q-280 143 -450 143q-141 0 -264 -45q-124 -45 -176 -145q255 80 392 -35t137 -364zM849 732q132 -121 246 -141.5t266 -19.5q-69 -125 -219 -157q-149 -31 -422 68q113 94 129 250z" />
    <glyph glyph-name="uni1799.a" horiz-adv-x="3340" 
d="M3090 450v117q-59 -55 -81.5 -74t-2 -53t52 -34t31.5 44zM2450 601q0 -235 -200 -418t-520 -183q-245 0 -431 80q-164 -80 -419 -80q-730 0 -730 830q0 670 390 670q310 0 310 -471q0 -241 -94.5 -339.5t-213.5 -84.5t-177 106t-2 194t147 135q38 -59 106 -73
q78 -17 94 57q15 73 -131 104q-93 19 -188 -58t-117 -180q-7 -34 1.5 -133.5t92.5 -207.5t225.5 -158.5t396.5 -50.5q205 0 357.5 65t152.5 175q0 55 -122.5 102.5t-397.5 -32.5v574q0 76 129 176t165 100t159.5 -68t214.5 -68q-79 -273 -163.5 -273.5t-155.5 34.5
t-144.5 15t-103.5 -140q255 80 412 -35t157 -364q0 -137 -68 -256q107 -25 268 -25q205 0 327.5 60t122.5 200q0 55 -102.5 102.5t-417.5 -32.5v524q0 76 218 201t438 125q270 0 512 -113t242 -217v-970q0 -60 -60 -130t-140 -70q-161 0 -280 154q-120 153 -120 266
q0 71 250 140t250 233q0 111 -279 254q-280 143 -490 143q-141 0 -249.5 -45t-190.5 -145q295 80 432 -35t137 -364z" />
    <glyph glyph-name="uni179a.a" horiz-adv-x="1800" 
d="M650 450v117q-59 -55 -81.5 -74t-2 -53t52 -34t31.5 44zM1550 450v117q-59 -55 -81.5 -74t-2 -53t52 -34t31.5 44zM635 1091q-85 -1 -156 34t-134.5 15t-93.5 -140q174 55 312 3t187 -153v-710q-120 -140 -200 -140q-161 0 -280 154q-120 153 -120 296q208 20 467 183h5
q-28 26 -84 50q-113 47 -388 -33v574q0 76 129 176t165 100t150 -68q111 -67 275 -74q153 142 256 142q165 0 345 -123t180 -227v-950q0 -60 -60 -130t-140 -70q-161 0 -280 154q-120 153 -120 266q0 71 250 140t250 233q0 131 -182.5 264t-325.5 133q-161 0 -273 -49.5
t-134 -49.5z" />
    <glyph glyph-name="uni179b.a" horiz-adv-x="3070" 
d="M2820 450v117q-59 -55 -81.5 -74t-2 -53t52 -34t31.5 44zM2180 601q0 -260 -190 -430.5t-550 -170.5q-230 0 -405 103.5t-258 309.5l321 464q-81 146 -195 230q-114 83 -254 83q-141 0 -224 -53q-84 -54 -157 -116q155 39 268.5 -28t113.5 -275q0 -118 -134 -222
q-171 -134 -130 -166.5t79 34t92 66.5q143 0 143 -160q0 -270 -275 -270t-275 280q0 90 52 177q52 86 248 159q-16 112 -126.5 112t-173.5 -58v446q70 144 201.5 264t370.5 120t402 -109t216 -216l53 -108l-272 -464q53 -144 160.5 -213.5t298.5 -69.5q205 0 327.5 60
t122.5 200q0 55 -102.5 102.5t-417.5 -32.5v524q0 76 218 201t438 125q270 0 512 -113t242 -217v-970q0 -60 -60 -130t-140 -70q-161 0 -280 154q-120 153 -120 266q0 71 250 140t250 233q0 111 -279 254q-280 143 -490 143q-141 0 -249.5 -45t-190.5 -145q295 80 432 -35
t137 -364z" />
    <glyph glyph-name="uni179c.a" horiz-adv-x="2650" 
d="M2400 450v117q-59 -55 -81.5 -74t-2 -53t52 -34t31.5 44zM150 1170q82 118 273 224t363 106q129 0 332 -90t252 -90t209 90q159 90 253 90q122 0 395 -122.5t273 -227.5v-950q0 -60 -60 -130t-140 -70q-161 0 -280 154q-120 153 -120 266q0 71 250 140t250 233
q0 171 -322 299t-471 128q-110 0 -254 -73t-236 -73q-95 0 -289.5 66t-291.5 66q-89 0 -183 -60t-97 -134q0 -76 44 -62q231 100 555.5 100t559.5 -125t235 -374q0 -275 -250 -413t-550 -138t-500 112q-200 113 -200 378q0 155 100 232q100 78 330 78q150 0 275 -48.5
t125 -158.5t-142.5 -164t-335.5 15q-119 47 -122 156q-80 0 -80 -110q0 -60 94.5 -120t295.5 -60q270 0 440 62q170 63 170 188q0 170 -212 254q-212 85 -424 85t-320.5 -30t-193.5 -80v381z" />
    <glyph glyph-name="uni179d.a" horiz-adv-x="2650" 
d="M2400 450v117q-59 -55 -81.5 -74t-2 -53t52 -34t31.5 44zM2500 1150v-950q0 -60 -60 -130t-140 -70q-161 0 -280 154q-120 153 -120 266q0 71 250 140t250 233q0 171 -342 309t-451 138q-110 0 -254 -83t-236 -83q-95 0 -305.5 89t-267.5 89q-59 0 -196 -55
q129 -4 227 -126l-166 -64q-115 62 -259 47v206q464 240 636 240q129 0 332 -90t252 -90t209 90q159 90 253 90q122 0 395 -122.5t273 -227.5zM1650 522v-382q-120 -140 -200 -140q-161 0 -280 154q-120 153 -120 296q112 11 239 63q-36 6 -74 14q56 62 79 140
q-311 43 -498 43q-251 0 -398.5 -80t-147.5 -160q0 -130 149 -148q53 145 151.5 211.5t198.5 66.5q120 0 191.5 -77t35 -175t-102 -98t-105.5 43.5t-100.5 43t-78.5 -57.5q-18 -78 64 -142q-64 -137 -215 -137q-148 0 -218 83t-70 216v431q85 167 251.5 248.5t443.5 81.5
t805 -80v-294q86 3 188 19q-50 -131 -188 -183zM1550 499q-37 -5 -79 -4l-2 -2q-23 -19 -2.5 -53t52 -34t31.5 44v49z" />
    <glyph glyph-name="uni179e.a" horiz-adv-x="2650" 
d="M2400 450v117q-59 -55 -81.5 -74t-2 -53t52 -34t31.5 44zM1650 462v-362q0 -200 -140 -200t-140 71.5t65 114.5q51 33 62 144q-22 -24 -47 -47q-200 -183 -540 -183q-370 0 -555 137.5t-205 362.5q240 0 370 52.5t130 120t-169 57.5t-331 -80v520q82 118 273 224t363 106
q129 0 332 -90t252 -90t209 90q159 90 253 90q122 0 395 -122.5t273 -227.5v-950q0 -60 -60 -130t-140 -70q-161 0 -280 154q-120 153 -120 266q0 71 250 140t250 233q0 171 -322 299t-471 128q-110 0 -254 -73t-236 -73q-95 0 -289.5 66t-291.5 66q-89 0 -183 -60t-97 -114
q257 61 400 -19q154 -87 154 -295q0 -148 -200 -278q19 -50 134 -85t306 -35q205 0 328 89q31 22 54 49q-102 18 -232 65q50 42 81 95l-6 4q-51 26 -79 74.5t-28 100.5q0 53 29 102t89 75t184 26q180 0 180 -350v-29q87 -10 191 -9q-62 -113 -191 -150z" />
    <glyph glyph-name="uni179f.a" horiz-adv-x="3070" 
d="M2820 450v117q-59 -55 -81.5 -74t-2 -53t52 -34t31.5 44zM2180 601q0 -260 -190 -430.5t-510 -170.5q-230 0 -395 103.5t-108 179.5l186 223q-75 124 -205.5 185t-270.5 61q-387 0 -387 -242q0 -220 198 -220q197 0 218 73q20 72 -34 63q-33 -76 -172.5 -76t-139.5 165
t224 165t221 -280q-3 -400 -314 -400q-145 0 -248 128.5t-103 305.5q0 397 240 543q-140 121 -233 118q86 205 242 305t199 100q44 0 193 -68t259 -68q-85 -263 -197.5 -263.5t-203 39.5t-149.5 46t-115 -44q63 -15 141 -107q99 27 224 27q239 0 399.5 -75t266.5 -290
l-152 -233q53 -144 316 -144q205 0 327.5 60t122.5 200q0 55 -102.5 102.5t-417.5 -32.5v524q0 76 218 201t438 125q270 0 512 -113t242 -217v-970q0 -60 -60 -130t-140 -70q-161 0 -280 154q-120 153 -120 266q0 71 250 140t250 233q0 111 -279 254q-280 143 -490 143
q-141 0 -249.5 -45t-190.5 -145q295 80 432 -35t137 -364z" />
    <glyph glyph-name="uni17a0.a" horiz-adv-x="3393" 
d="M2290 450v117q-59 -55 -81.5 -74t-2 -53t52 -34t31.5 44zM3143 450v117q-59 -55 -81.5 -74t-2 -53t52 -34t31.5 44zM2390 1033v-833q0 -60 -60 -130t-140 -70q-161 0 -280 154q-120 153 -120 266q0 71 250 140t250 233q0 111 -279 254q-280 143 -450 143q-141 0 -264 -45
q-124 -45 -176 -145q255 80 392 -35t137 -364q0 -235 -200 -418t-540 -183q-370 0 -555 137.5t-205 362.5q240 0 370 42.5t130 110t-169 57.5t-331 -60v574q0 76 144 176t188 100t157.5 -59.5t258.5 -76.5q-109 -263 -203.5 -263.5t-165.5 34.5t-149.5 15t-138.5 -150
q260 60 414.5 -7t154.5 -275q0 -148 -200 -278q19 -50 134 -85t306 -35q205 0 327.5 60t122.5 200q0 55 -102.5 102.5t-377.5 -32.5v524q0 76 198 201t418 125q270 0 512 -113q227 -106 241 -204q36 84 98 160q126 157 231 157q165 0 345 -123t180 -227v-950q0 -60 -60 -130
t-140 -70q-161 0 -280 154q-120 153 -120 266q0 71 250 140t250 233q0 131 -182.5 239t-325.5 108q-98 0 -245 -107z" />
    <glyph glyph-name="uni17a1.a" horiz-adv-x="3290" 
d="M3040 450v117q-59 -55 -81.5 -74t-2 -53t52 -34t31.5 44zM724 330q85 0 240.5 145t355.5 145q125 0 227.5 -88.5t102.5 -212.5t-87.5 -221.5t-212.5 -97.5t-188 50q-62 50 -62 150t50 120q50 50 150 50q0 -50 50 -50t50 45q0 65 -150 65q-130 0 -245 -215t-385 -215
q-180 0 -325 118q-145 117 -145 250v132h100q190 0 295 42.5t105 110t-169 57.5t-331 -60v466q90 144 284.5 264t514.5 120q291 0 496 -155t205 -337q0 -102 -99 -215t-287 -113q-304 0 -304 205t191 205q130 1 180 -69q-9 -77 80.5 -79t89.5 53q0 67 -162 131t-386 64
q-291 0 -424.5 -53.5t-226.5 -115.5q199 39 353.5 -28t154.5 -275q0 -178 -219 -323q58 -65 133 -65zM2400 -400q0 -300 -300 -300q-200 0 -300 150q-100 -150 -300 -150q-350 0 -350 260q160 0 206 55q45 55 44 80q0 25 -50 25t-50 -70q-150 0 -150 100q0 150 175 150
t175 -150q0 -100 -50 -190q0 -40 100 -40q160 0 250 140q100 -140 270 -140q180 0 180 130v958q-6 51 -130 78.5t-320 -36.5v524q0 76 188 201t398 125q270 0 512 -113t242 -217v-970q0 -60 -60 -130t-140 -70q-161 0 -280 154q-120 153 -120 266q0 71 250 140t250 233
q0 111 -279 254q-279 142 -430 142q-152 1 -268 -44q-118 -45 -162 -145q174 55 312 3t187 -153v-1250z" />
    <glyph glyph-name="uni17a2.a" horiz-adv-x="2540" 
d="M650 450v117q-59 -55 -81.5 -74t-2 -53t52 -34t31.5 44zM750 140q-120 -140 -200 -140q-161 0 -280 154q-120 153 -120 296q208 20 467 183h5q-28 26 -84 50q-113 47 -388 -33v574q0 76 129 176t165 100t149.5 -68t206.5 -68q-81 -273 -165.5 -273.5t-155.5 34.5
t-134.5 15t-93.5 -140q174 55 312 3t187 -153v-710zM808 707q121 -81 211 -75.5t204 39.5q-30 -127 -137 -188q-107 -59 -330 -28q68 108 52 252zM1550 450v117q-59 -55 -81.5 -74t-2 -53t52 -34t31.5 44zM2290 450v117q-59 -55 -81.5 -74t-2 -53t52 -34t31.5 44zM1151 1000
q174 55 312 3t187 -153v-710q-120 -140 -200 -140q-161 0 -280 154q-120 153 -120 296q208 20 472 183q-28 26 -84 50q-113 47 -388 -33v524q0 76 188 201t398 125q270 0 512 -113t242 -217v-970q0 -60 -60 -130t-140 -70q-161 0 -280 154q-120 153 -120 266q0 71 250 140
t250 233q0 111 -279 254q-279 142 -430 142q-152 1 -268 -44q-118 -45 -162 -145z" />
    <glyph glyph-name="uni1783.sub.a" horiz-adv-x="1590" 
d="M1340 450v117q-59 -55 -81.5 -74t-2 -53t52 -34t31.5 44zM700 -300q0 -400 -425 -400q-225 0 -325 100q-148 -100 -296 -100h-3q-229 0 -365 75t-136 225q160 0 205.5 45t44.5 100q0 35 -50 35t-50 -80q-150 0 -150 100q0 150 175 150t175 -150q0 -100 -100 -250
q0 -50 250 -50t250 50t-100 50t-130 -30v163q0 54 43 101l107 116q150 -80 200 -60q-20 -130 -80 -130q-36 0 -67 12.5t-53 12.5q-25 0 -52 -36q76 1 154 -34t78 -105q0 -110 275 -110t275 150v958q-6 51 -130 78.5t-320 -36.5v524q0 76 188 201t398 125q270 0 512 -113
t242 -217v-970q0 -60 -60 -130t-140 -70q-161 0 -280 154q-120 153 -120 266q0 71 250 140t250 233q0 111 -279 254q-279 142 -430 142q-152 1 -268 -44q-118 -45 -162 -145q174 55 312 3t187 -153v-1150z" />
    <glyph glyph-name="uni1788.sub.a" horiz-adv-x="1590" 
d="M1340 450v117q-59 -55 -81.5 -74t-2 -53t52 -34t31.5 44zM700 -300q0 -400 -425 -400q-225 0 -325 100q-148 -100 -296 -100h-3q-229 0 -365 75t-75 144q49 41 78.5 81t44.5 95q16 55 -273 55q-199 1 -293 -42q-93 -43 -93 -100q0 -75 77 -75q72 1 72 36q0 48 -74 48
q37 39 110 39t113 -46q40 -45 40 -134q0 -79 -44.5 -127.5t-131.5 -48.5q-104 0 -195 83q-92 82 -92 228q1 172 148 255q146 84 357 84q223 0 334 -50l111 -50q0 -190 -100 -300q0 -50 250 -50q240 0 240 50t-95 50t-125 -30l3 189q17 51 82 121l65 70q150 -80 200 -60
q-20 -130 -80 -130q-36 0 -67 12.5t-53 12.5q-25 0 -52 -36q76 1 159 -34t83 -105q0 -110 265 -110q275 0 275 150v958q-6 51 -130 78.5t-320 -36.5v524q0 76 188 201t398 125q270 0 512 -113t242 -217v-970q0 -60 -60 -130t-140 -70q-161 0 -280 154q-120 153 -120 266
q0 71 250 140t250 233q0 111 -279 254q-279 142 -430 142q-152 1 -268 -44q-118 -45 -162 -145q174 55 312 3t187 -153v-1150z" />
    <glyph glyph-name="uni178d.sub.a" horiz-adv-x="1590" 
d="M-374 -479l73 -24v57zM1340 450v117q-59 -55 -81.5 -74t-2 -53t52 -34t31.5 44zM700 -300q0 -400 -400 -400q-230 0 -336 187q-35 62 -155 63v-99q0 -64 -36 -99t-110 -52q-69 0 -163.5 54.5t-94.5 156.5q30 27 96 60l198 97q-194 72 -298 72q-103 0 -214 -68
q-156 67 -226 68q-70 0 -106.5 -25t-36.5 -90q0 -53 18.5 -90.5t55.5 -37.5q-33 38 -16.5 81.5t87 51t128.5 -33t58 -107.5t-52.5 -128t-131.5 -61q-128 0 -192 76t-65 227v65q0 109 131 196l132 86q179 -30 288 -107q86 86 184 107q98 -8 231.5 -55t133.5 -95v-100
q162 -1 244 -151q27 -50 248 -49q250 0 250 150v958q-6 51 -130 78.5t-320 -36.5v524q0 76 188 201t398 125q270 0 512 -113t242 -217v-970q0 -60 -60 -130t-140 -70q-161 0 -280 154q-120 153 -120 266q0 71 250 140t250 233q0 111 -279 254q-279 142 -430 142
q-152 1 -268 -44q-118 -45 -162 -145q174 55 312 3t187 -153v-1150z" />
    <glyph glyph-name="uni1794.sub.a" horiz-adv-x="1590" 
d="M1340 450v117q-59 -55 -81.5 -74t-2 -53t52 -34t31.5 44zM700 -450q-53 -125 -126 -188q-73 -62 -166 -62q-89 0 -159 38q-70 37 -122 112q-52 -75 -127 -112q-76 -38 -175 -38q-187 0 -281 75t-94 225t61 225q59 75 179 75q88 0 133 -38q44 -37 44 -112t-52 -112
q-52 -38 -156 -38q0 100 -52 100t-52 -60q0 -45 53 -68q53 -22 158 -22q107 0 185 38q77 37 124 112q52 -75 122 -112q70 -38 159 -38q93 0 143.5 50t50.5 150v858q-6 51 -130 78.5t-320 -36.5v524q0 76 188 201t398 125q270 0 512 -113t242 -217v-970q0 -60 -60 -130
t-140 -70q-161 0 -280 154q-120 153 -120 266q0 71 250 140t250 233q0 111 -279 254q-279 142 -430 142q-152 1 -268 -44q-118 -45 -162 -145q174 55 312 3t187 -153v-1300z" />
    <glyph glyph-name="uni1799.sub.a" horiz-adv-x="1590" 
d="M1340 450v117q-59 -55 -81.5 -74t-2 -53t52 -34t31.5 44zM700 -350q-30 -165 -181 -258q-151 -92 -410 -92t-409 88q-150 87 -150 262q0 150 75 225t225 75q125 0 188 -38q62 -37 62 -112t-44 -112q-44 -38 -131 -38q-75 0 -125 50q0 50 -50 50t-50 -50q0 -75 112 -112
q113 -38 313 -38t313 75q112 75 112 225v758q-6 51 -130 78.5t-320 -36.5v524q0 76 188 201t398 125q270 0 512 -113t242 -217v-970q0 -60 -60 -130t-140 -70q-161 0 -280 154q-120 153 -120 266q0 71 250 140t250 233q0 111 -279 254q-279 142 -430 142q-152 1 -268 -44
q-118 -45 -162 -145q174 55 312 3t187 -153v-1200z" />
    <glyph glyph-name="uni179e.sub.a" horiz-adv-x="1590" 
d="M1340 450v117q-59 -55 -81.5 -74t-2 -53t52 -34t31.5 44zM700 240q78 26 165 65q-60 -202 -165 -261v-494q-51 -125 -124 -188q-73 -62 -167 -62q-88 0 -158 38q-71 37 -123 112q-52 -75 -127 -112q-76 -38 -175 -38q-188 0 -282 75t-94 225t61 225q59 75 179 75
q89 0 134 -38q44 -37 44 -112t-53 -112q-52 -38 -156 -38q0 100 -52 100t-52 -60q0 -45 53 -68q53 -22 158 -22q108 0 186 38q77 37 124 112q52 -75 123 -112q70 -38 158 -38q94 0 143.5 50t49.5 150v247q-46 -3 -89 1q-126 14 -153 107t148 93q43 0 94 6v404
q-6 51 -130 78.5t-320 -36.5v524q0 76 188 201t398 125q270 0 512 -113t242 -217v-970q0 -60 -60 -130t-140 -70q-161 0 -280 154q-120 153 -120 266q0 71 250 140t250 233q0 111 -279 254q-279 142 -430 142q-152 1 -268 -44q-118 -45 -162 -145q174 55 312 3t187 -153
v-610z" />
    <glyph glyph-name="uni179f.sub.a" horiz-adv-x="1590" 
d="M1340 450v117q-59 -55 -81.5 -74t-2 -53t52 -34t31.5 44zM700 168q82 -8 181 -7q-60 -109 -181 -147v-344q0 -185 -151 -278q-151 -92 -461 -92q-266 0 -402 75t-136 225q160 0 205.5 35t44.5 60q0 35 -50 35t-50 -80q-150 0 -150 100q0 150 175 150t175 -150
q0 -100 -50 -150q0 -50 238 -50q237 0 350 50q112 50 112 150v246q-111 4 -247 52q98 96 83 274q82 -87 164 -122v408q-6 51 -130 78.5t-320 -36.5v524q0 76 188 201t398 125q270 0 512 -113t242 -217v-970q0 -60 -60 -130t-140 -70q-161 0 -280 154q-120 153 -120 266
q0 71 250 140t250 233q0 111 -279 254q-279 142 -430 142q-152 1 -268 -44q-118 -45 -162 -145q174 55 312 3t187 -153v-682z" />
    <glyph glyph-name="uni1783.sub.alt.a" horiz-adv-x="1590" 
d="M1340 450v117q-59 -55 -81.5 -74t-2 -53t52 -34t31.5 44zM700 -904q0 -296 -425 -296q-225 0 -325 74q-148 -74 -296 -74h-3q-229 0 -365 56q-136 55 -136 166q160 0 205.5 33t44.5 74q0 26 -50 26t-50 -59q-150 0 -150 74q0 110 175 110t175 -110q0 -74 -100 -185
q0 -37 250 -37t250 37t-100 37t-130 -22v120q0 40 43 75l107 85q150 -59 200 -44q-20 -96 -80 -96q-36 0 -67 9.5t-53 9.5q-25 0 -52 -27q76 1 154 -25t78 -78q0 -81 275 -81t275 111v1549q-6 51 -130 78.5t-320 -36.5v524q0 76 188 201t398 125q270 0 512 -113t242 -217
v-970q0 -60 -60 -130t-140 -70q-161 0 -280 154q-120 153 -120 266q0 71 250 140t250 233q0 111 -279 254q-279 142 -430 142q-152 1 -268 -44q-118 -45 -162 -145q174 55 312 3t187 -153v-1754z" />
    <glyph glyph-name="uni1788.sub.alt.a" horiz-adv-x="1590" 
d="M1340 450v117q-59 -55 -81.5 -74t-2 -53t52 -34t31.5 44zM700 -904q0 -296 -425 -296q-225 0 -325 74q-148 -74 -296 -74h-3q-229 0 -365 56q-136 55 -75 106q49 30 78.5 60t44.5 70q16 41 -273 41q-199 1 -293 -31q-93 -32 -93 -74q0 -55 77 -55q72 0 72 26q0 36 -74 36
q37 28 110 28t113 -34q40 -33 40 -99q0 -58 -44.5 -94t-131.5 -36q-104 0 -195 62q-92 60 -92 168q1 127 148 188q146 62 357 62q223 0 334 -36l111 -37q0 -141 -100 -222q0 -37 250 -37q240 0 240 37t-95 37t-125 -22l3 139q17 38 82 90l65 51q150 -59 200 -44
q-20 -96 -80 -96q-36 0 -67 9.5t-53 9.5q-25 0 -52 -27q76 1 159 -25t83 -78q0 -81 265 -81q275 0 275 111v1549q-6 51 -130 78.5t-320 -36.5v524q0 76 188 201t398 125q270 0 512 -113t242 -217v-970q0 -60 -60 -130t-140 -70q-161 0 -280 154q-120 153 -120 266
q0 71 250 140t250 233q0 111 -279 254q-279 142 -430 142q-152 1 -268 -44q-118 -45 -162 -145q174 55 312 3t187 -153v-1754z" />
    <glyph glyph-name="uni178d.sub.alt.a" horiz-adv-x="1590" 
d="M-374 -1036l73 -18v42zM1340 450v117q-59 -55 -81.5 -74t-2 -53t52 -34t31.5 44zM700 -904q0 -296 -400 -296q-230 0 -336 139q-35 45 -155 46v-73q0 -47 -36 -73t-110 -39q-69 0 -163.5 40.5t-94.5 115.5q30 20 96 45l198 71q-194 53 -298 53q-103 0 -214 -50
q-156 50 -226 50t-106.5 -18.5t-36.5 -66.5q0 -39 18.5 -66.5t55.5 -27.5q-33 28 -16.5 60t87 37.5t128.5 -24t58 -79t-52.5 -95t-131.5 -45.5q-128 0 -192 56.5t-65 167.5v48q0 81 131 145l132 63q179 -22 288 -79q86 64 184 79q98 -5 231.5 -40t133.5 -70v-74
q162 -1 244 -112q27 -37 248 -36q250 0 250 111v1549q-6 51 -130 78.5t-320 -36.5v524q0 76 188 201t398 125q270 0 512 -113t242 -217v-970q0 -60 -60 -130t-140 -70q-161 0 -280 154q-120 153 -120 266q0 71 250 140t250 233q0 111 -279 254q-279 142 -430 142
q-152 1 -268 -44q-118 -45 -162 -145q174 55 312 3t187 -153v-1754z" />
    <glyph glyph-name="uni1794.sub.alt.a" horiz-adv-x="1590" 
d="M1340 450v117q-59 -55 -81.5 -74t-2 -53t52 -34t31.5 44zM700 -1000q-53 -100 -126 -150t-166 -50q-89 0 -159 31q-70 29 -122 89q-52 -60 -127 -89q-76 -31 -175 -31q-187 0 -281 60t-94 180t61 180q59 60 179 60q88 0 133 -30q44 -30 44 -90t-52 -89q-52 -31 -156 -31
q0 80 -52 80t-52 -48q0 -36 53 -54t158 -18q107 0 185 31q77 29 124 89q52 -60 122 -89q70 -31 159 -31q93 0 143.5 40t50.5 120v1448q-6 51 -130 78.5t-320 -36.5v524q0 76 188 201t398 125q270 0 512 -113t242 -217v-970q0 -60 -60 -130t-140 -70q-161 0 -280 154
q-120 153 -120 266q0 71 250 140t250 233q0 111 -279 254q-279 142 -430 142q-152 1 -268 -44q-118 -45 -162 -145q174 55 312 3t187 -153v-1850z" />
    <glyph glyph-name="uni1799.sub.alt.a" horiz-adv-x="1590" 
d="M1340 450v117q-59 -55 -81.5 -74t-2 -53t52 -34t31.5 44zM700 -941q-30 -122 -181 -191q-151 -68 -410 -68t-409 65t-150 194q0 111 75 166t225 55q125 0 188 -28q62 -27 62 -82q0 -56 -44 -83q-44 -28 -131 -28q-75 0 -125 37q0 37 -50 37t-50 -37q0 -56 112 -83
q113 -28 313 -28t313 55q112 56 112 167v1401q-6 51 -130 78.5t-320 -36.5v524q0 76 188 201t398 125q270 0 512 -113t242 -217v-970q0 -60 -60 -130t-140 -70q-161 0 -280 154q-120 153 -120 266q0 71 250 140t250 233q0 111 -279 254q-279 142 -430 142q-152 1 -268 -44
q-118 -45 -162 -145q174 55 312 3t187 -153v-1791z" />
    <glyph glyph-name="uni179e.sub.alt.a" horiz-adv-x="1590" 
d="M1340 450v117q-59 -55 -81.5 -74t-2 -53t52 -34t31.5 44zM700 240q78 26 165 65q-60 -202 -165 -261v-1044q-51 -100 -124 -150t-167 -50q-88 0 -158 31q-71 29 -123 89q-52 -60 -127 -89q-76 -31 -175 -31q-188 0 -282 60t-94 180t61 180q59 60 179 60q89 0 134 -30
q44 -30 44 -90t-53 -89q-52 -31 -156 -31q0 80 -52 80t-52 -48q0 -36 53 -54t158 -18q108 0 186 31q77 29 124 89q52 -60 123 -89q70 -31 158 -31q94 0 143.5 40t49.5 120v837q-46 -3 -89 1q-126 14 -153 107t148 93q43 0 94 6v404q-6 51 -130 78.5t-320 -36.5v524
q0 76 188 201t398 125q270 0 512 -113t242 -217v-970q0 -60 -60 -130t-140 -70q-161 0 -280 154q-120 153 -120 266q0 71 250 140t250 233q0 111 -279 254q-279 142 -430 142q-152 1 -268 -44q-118 -45 -162 -145q174 55 312 3t187 -153v-610z" />
    <glyph glyph-name="uni179f.sub.alt.a" horiz-adv-x="1590" 
d="M1340 450v117q-59 -55 -81.5 -74t-2 -53t52 -34t31.5 44zM700 168q82 -8 181 -7q-60 -109 -181 -147v-918q0 -148 -151 -222t-461 -74q-266 0 -402 60t-136 180q160 0 205.5 28t44.5 48q0 28 -50 28t-50 -64q-150 0 -150 80q0 120 175 120t175 -120q0 -80 -50 -120
q0 -40 238 -40q237 0 350 40q112 40 112 120v836q-111 4 -247 52q98 96 83 274q82 -87 164 -122v408q-6 51 -130 78.5t-320 -36.5v524q0 76 188 201t398 125q270 0 512 -113t242 -217v-970q0 -60 -60 -130t-140 -70q-161 0 -280 154q-120 153 -120 266q0 71 250 140t250 233
q0 111 -279 254q-279 142 -430 142q-152 1 -268 -44q-118 -45 -162 -145q174 55 312 3t187 -153v-682z" />
    <glyph glyph-name="uni1780.au" horiz-adv-x="2650" 
d="M1550 450v117q-59 -55 -81.5 -74t-2 -53t52 -34t31.5 44zM2400 450v117q-59 -55 -81.5 -74t-2 -53t52 -34t31.5 44zM434 1000q91 0 163 -29q70 -28 110 -80q237 209 389 209q186 0 554 -120v-840q-120 -140 -200 -140q-161 0 -280 154q-120 153 -120 296q208 20 467 183
q-311 117 -461 117q-162 0 -306 -73v-477q0 -200 -300 -200t-300 300v150q94 -50 209 -50q114 0 203 58q74 48 86 146q-22 -14 -48 -24q-72 -30 -150 -30q-300 0 -300 225t284 225zM2371 1303q129 -81 129 -153v-950q0 -60 -60 -130t-140 -70q-161 0 -280 154
q-120 153 -120 266q0 71 250 140t250 233q0 171 -342 309t-451 138q-110 0 -254 -63t-236 -63q-95 0 -305.5 69t-267.5 69q-59 0 -196 -55q129 -4 223 -95l-162 -95q-115 62 -259 47v206q464 240 636 240q129 0 332 -90t252 -90t209 90q159 90 253 90q122 0 395 -122
q26 -12 49 -23q23 264 23 301q1 45 -49 45t-100 -60v5q0 196 71 274q72 80 176 80q103 0 153 -69q50 -70 50 -170q-1 -101 -101 -222q-77 -93 -128 -236z" />
    <glyph glyph-name="uni1781.au" horiz-adv-x="2650" 
d="M2400 450v117q-59 -55 -81.5 -74t-2 -53t52 -34t31.5 44zM2381 1331q119 -97 119 -181v-950q0 -60 -60 -130t-140 -70q-161 0 -280 154q-120 153 -120 266q0 71 250 140t250 233q0 131 -182.5 239t-325.5 108q-97 0 -243 -105q1 -13 1 -26q0 -244 -262.5 -380.5
t-787.5 -164.5q60 -164 424 -164t626 358q0 -658 -750 -658t-750 601q436 2 768 79t332 269q0 251 -450 251t-450 -180q0 -77 36 -121v9q0 49 36.5 94t101.5 69.5t134 24.5q68 0 133 -24.5t102 -69.5t37 -94t-36 -93.5t-100.5 -69.5t-135.5 -25q-508 0 -508 320
q0 460 750 460q635 0 732 -352q38 104 112 195q126 157 231 157q147 0 305 -97q19 220 19 253q1 45 -49 45t-100 -60v5q0 196 71 274q72 80 176 80q103 0 153 -69q50 -70 50 -170q-1 -101 -101 -222q-69 -83 -118 -208z" />
    <glyph glyph-name="uni1782.au" horiz-adv-x="2650" 
d="M2400 450v117q-59 -55 -81.5 -74t-2 -53t52 -34t31.5 44zM1550 450v117q-59 -55 -81.5 -74t-2 -53t52 -34t31.5 44zM845 1060q277 0 805 -80v-840q-120 -140 -200 -140q-161 0 -280 154q-120 153 -120 296q208 20 467 183q-471 77 -721 77q-251 0 -398.5 -80t-147.5 -160
q0 -130 149 -148q53 145 151.5 211.5t198.5 66.5q120 0 191.5 -77t35 -175t-102 -98t-105.5 43.5t-100.5 43t-78.5 -57.5q-18 -78 64 -142q-64 -137 -215 -137q-148 0 -218 83t-70 216v431q85 167 251.5 248.5t443.5 81.5zM2371 1303q129 -81 129 -153v-950q0 -60 -60 -130
t-140 -70q-161 0 -280 154q-120 153 -120 266q0 71 250 140t250 233q0 171 -342 309t-451 138q-110 0 -254 -83t-236 -83q-95 0 -305.5 89t-267.5 89q-59 0 -196 -55q129 -4 227 -126l-166 -64q-115 62 -259 47v206q464 240 636 240q129 0 332 -90t252 -90t209 90
q159 90 253 90q122 0 395 -122q26 -12 49 -23q23 264 23 301q1 45 -49 45t-100 -60v5q0 196 71 274q72 80 176 80q103 0 153 -69q50 -70 50 -170q-1 -101 -101 -222q-77 -93 -128 -236z" />
    <glyph glyph-name="uni1783.au" horiz-adv-x="3340" 
d="M3090 450v117q-59 -55 -81.5 -74t-2 -53t52 -34t31.5 44zM3068 1322q122 -78 122 -152v-970q0 -60 -60 -130t-140 -70q-161 0 -280 154q-120 153 -120 266q0 71 250 140t250 233q0 111 -279 254q-280 143 -490 143q-141 0 -249.5 -45t-190.5 -145q295 80 432 -35
t137 -364q0 -235 -200 -418t-520 -183q-245 0 -431 80q-164 -80 -389 -80q-370 0 -555 137.5t-205 412.5q240 0 356 81t145 177t29 130q0 106 -67.5 199t-162.5 93q-149 0 -149 -75t80 -75q69 0 119 50q82 -51 106 -160.5t-42 -189.5t-161 -80t-174 87.5t-79 282.5
q0 200 100 315t231 115q185 0 272 -108t87 -324q0 -107 -49.5 -282t-180.5 -346q19 -50 134 -85t306 -35q205 0 327.5 60t122.5 200q0 55 -122.5 102.5t-397.5 -32.5v574q0 76 129 176t165 100t159.5 -68t214.5 -68q-79 -273 -163.5 -273.5t-155.5 34.5t-144.5 15
t-103.5 -140q255 80 412 -35t157 -364q0 -137 -68 -256q107 -25 268 -25q205 0 327.5 60t122.5 200q0 55 -102.5 102.5t-417.5 -32.5v524q0 76 218 201t438 125q270 0 512 -113q10 -5 20 -9q21 243 21 278q1 45 -49 45t-100 -60v5q0 196 71 274q72 80 176 80q103 0 153 -69
q50 -70 50 -170q-1 -101 -101 -222q-72 -86 -121 -217z" />
    <glyph glyph-name="uni1784.au" horiz-adv-x="2650" 
d="M2400 450v117q-59 -55 -81.5 -74t-2 -53t52 -34t31.5 44zM2381 1331q119 -97 119 -181v-950q0 -60 -60 -130t-140 -70q-161 0 -280 154q-120 153 -120 266q0 71 250 140t250 233q0 131 -182.5 239t-325.5 108q-97 0 -243 -105q1 -14 1 -27q0 -142 -99 -255t-287 -113
q-304 0 -304 205t191 205q130 1 180 -69q-9 -77 80.5 -79t89.5 53q0 97 -162 166t-386 69q-291 0 -424.5 -53.5t-226.5 -115.5q199 39 353.5 -28t154.5 -275q0 -148 -200 -278q19 -50 134 -85t306 -35q205 0 349 98.5t251 272.5q0 -325 -200 -508t-540 -183
q-370 0 -555 137.5t-205 362.5q240 0 370 43q130 42 130 109.5t-169 57.5t-331 -60v466q90 144 284.5 264t514.5 120q291 0 496 -155q135 -102 181 -215q37 113 118 213q126 157 231 157q147 0 305 -97q19 220 19 253q1 45 -49 45t-100 -60v5q0 196 71 274q72 80 176 80
q103 0 153 -69q50 -70 50 -170q-1 -101 -101 -222q-69 -83 -118 -208z" />
    <glyph glyph-name="uni1785.au" horiz-adv-x="2650" 
d="M2400 450v117q-59 -55 -81.5 -74t-2 -53t52 -34t31.5 44zM2371 1303q129 -81 129 -153v-950q0 -60 -60 -130t-140 -70q-161 0 -280 154q-120 153 -120 266q0 71 250 140t250 233q0 171 -322 299t-471 128q-110 0 -254 -73t-236 -73q-95 0 -289.5 66t-291.5 66
q-89 0 -183 -60t-97 -114q257 61 400 -19q154 -87 154 -295q0 -148 -200 -278q19 -50 134 -85t306 -35q205 0 327.5 88.5t122.5 241.5q0 48 -9 87q-8 -20 -22 -40q-33 -49 -93.5 -75.5t-125.5 -26.5t-125.5 26.5t-93.5 75t-33 100.5q0 53 34 102t94 75t124 26
q400 0 400 -350q0 -284 -200 -467t-540 -183q-370 0 -555 137.5t-205 362.5q240 0 370 52.5t130 120t-169 57.5t-331 -80v520q82 118 273 224t363 106q129 0 332 -90t252 -90t209 90q159 90 253 90q122 0 395 -122q26 -12 49 -23q23 264 23 301q1 45 -49 45t-100 -60v5
q0 196 71 274q72 80 176 80q103 0 153 -69q50 -70 50 -170q-1 -101 -101 -222q-77 -93 -128 -236z" />
    <glyph glyph-name="uni1786.au" horiz-adv-x="2650" 
d="M2400 450v117q-59 -55 -81.5 -74t-2 -53t52 -34t31.5 44zM650 400v50q-59 0 -81.5 -13t-2 -47t52 -34t31.5 44zM2371 1303q129 -81 129 -153v-950q0 -60 -60 -130t-140 -70q-161 0 -280 154q-120 153 -120 266q0 71 250 140t250 233q0 171 -322 299t-471 128
q-110 0 -254 -73t-236 -73q-95 0 -289.5 66t-291.5 66q-89 0 -183 -60t-97 -114q169 23 307 -29t187 -153v-250q90 0 160 -52q69 -53 110 -140q40 -88 178 -88q167 0 234.5 90t67.5 240q0 48 -9 87q-8 -20 -22 -40q-33 -49 -93.5 -75.5t-125.5 -26.5t-125.5 26.5t-93.5 75
t-33 100.5q0 53 34 102t94 75t124 26q400 0 400 -350q0 -324 -130 -487t-305 -163q-315 0 -351 322q-34 128 -114 128v-310q-120 -140 -200 -140q-161 0 -280 154q-120 153 -120 296q148 150 335 150h137q2 59 -152 93t-320 -43v520q82 118 273 224t363 106q129 0 332 -90
t252 -90t209 90q159 90 253 90q122 0 395 -122q26 -12 49 -23q23 264 23 301q1 45 -49 45t-100 -60v5q0 196 71 274q72 80 176 80q103 0 153 -69q50 -70 50 -170q-1 -101 -101 -222q-77 -93 -128 -236z" />
    <glyph glyph-name="uni1787.au" horiz-adv-x="2650" 
d="M2400 450v117q-59 -55 -81.5 -74t-2 -53t52 -34t31.5 44zM2381 1331q119 -97 119 -181v-950q0 -60 -60 -130t-140 -70q-161 0 -280 154q-120 153 -120 266q0 71 250 140t250 233q0 131 -182.5 264t-325.5 133q-173 0 -447 -119q-135 -102 -269 -102q-165 0 -330.5 95
t-300.5 95q-175 0 -283 -138q239 59 393.5 -18t154.5 -285q0 -148 -200 -278q19 -50 134 -85t306 -35q205 0 349 98.5t251 342.5q0 -395 -200 -578t-540 -183q-370 0 -555 137.5t-205 362.5q240 0 370 42.5t130 110t-169 72.5t-331 -75v520q74 134 235 232t314 98
q152 -1 360 -151t280 -150q62 0 62 81q0 80 -155 147q-156 67 -105.5 169.5t175.5 102.5q124 0 229 -80t105 -225q0 -69 -36 -137q47 47 98 95q158 148 263 148q147 0 305 -97q19 220 19 253q1 45 -49 45t-100 -60v5q0 196 71 274q72 80 176 80q103 0 153 -69
q50 -70 50 -170q-1 -101 -101 -222q-69 -83 -118 -208z" />
    <glyph glyph-name="uni1788.au" horiz-adv-x="3870" 
d="M3620 450v117q-59 -55 -81.5 -74t-2 -53t52 -34t31.5 44zM3598 1322q122 -78 122 -152v-970q0 -60 -60 -130t-140 -70q-161 0 -280 154q-120 153 -120 266q0 71 250 140t250 233q0 111 -279 254q-280 143 -490 143q-141 0 -249.5 -45t-190.5 -145q295 80 432 -35
t137 -364q0 -235 -200 -418t-520 -183q-245 0 -431 80q-164 -80 -389 -80q-230 0 -405 103.5t-258 309.5l321 464q-81 146 -195 230q-114 83 -254 83q-141 0 -224 -53q-84 -54 -157 -116q155 39 268.5 -28t113.5 -275q0 -118 -134 -222q-171 -134 -130 -166.5t79 34t92 66.5
q143 0 143 -160q0 -270 -275 -270t-275 280q0 90 52 177q52 86 248 159q-16 112 -126.5 112t-173.5 -58v446q70 144 201.5 264t370.5 120t402 -109t216 -216l53 -108l-272 -464q53 -144 160.5 -213.5t298.5 -69.5q205 0 327.5 60t122.5 200q0 55 -122.5 102.5t-397.5 -32.5
v574q0 76 129 176t165 100t159.5 -68t214.5 -68q-79 -273 -163.5 -273.5t-155.5 34.5t-144.5 15t-103.5 -140q255 80 412 -35t157 -364q0 -137 -68 -256q107 -25 268 -25q205 0 327.5 60t122.5 200q0 55 -102.5 102.5t-417.5 -32.5v524q0 76 218 201t438 125q270 0 512 -113
q10 -5 20 -9q21 243 21 278q1 45 -49 45t-100 -60v5q0 196 71 274q72 80 176 80q103 0 153 -69q50 -70 50 -170q-1 -101 -101 -222q-72 -86 -121 -217z" />
    <glyph glyph-name="uni1789.au" horiz-adv-x="3500" 
d="M1550 450v117q-59 -55 -81.5 -74t-2 -53t52 -34t31.5 44zM2400 450v117q-59 -55 -81.5 -74t-2 -53t52 -34t31.5 44zM3250 450v117q-59 -55 -81.5 -74t-2 -53t52 -34t31.5 44zM2350 -300q0 -350 -442 -350q-84 0 -166 5.5t-165 16.5q-166 21 -537 178q-163 50 -347 50
q-322 0 -442 -150q0 300 552 300q387 0 665 -150q279 -150 440 -150q276 0 276 250q0 150 -110 150q-55 0 -55 -50t55 -50q0 -150 -111 -150q-165 0 -165 150q0 200 276 200t276 -250zM3231 1331q119 -97 119 -181v-950q0 -60 -60 -130t-140 -70q-161 0 -280 154
q-120 153 -120 266q0 71 250 140t250 233q0 131 -182.5 239t-325.5 108q-97 0 -242 -105v-835q0 -60 -60 -130t-140 -70q-161 0 -280 154q-120 153 -120 266q0 71 250 140t250 233q0 111 -182 229q-183 118 -326 118q-97 0 -242 -105v-835q0 -60 -60 -130t-140 -70
q-161 0 -280 154q-120 153 -120 266q0 71 250 140t250 233q0 111 -157 229q-158 118 -271 118q-114 0 -232 -113q-182 113 -331 113q-109 -1 -194 -110q-85 -110 -85 -280q0 -174 60 -281t210 -92t150 84q0 40 -27 63.5t-53.5 -7t-102.5 -30.5q-142 0 -142 178
q0 238 202 238q223 0 223 -345q0 -558 -269 -558q-381 0 -381 750q0 360 135 555q134 195 303 195q109 0 204.5 -57t177.5 -138q130 195 235 195q145 0 295 -113q136 -103 149 -198q36 81 95 154q126 157 231 157q165 0 345 -123q152 -104 176 -195q36 85 98 161
q126 157 231 157q147 0 305 -97q19 220 19 253q1 45 -49 45t-100 -60v5q0 196 71 274q72 80 176 80q103 0 153 -69q50 -70 50 -170q-1 -101 -101 -222q-69 -83 -118 -208z" />
    <glyph glyph-name="uni178a.au" horiz-adv-x="2650" 
d="M2400 450v117q-59 -55 -81.5 -74t-2 -53t52 -34t31.5 44zM2381 1331q119 -97 119 -181v-950q0 -60 -60 -130t-140 -70q-161 0 -280 154q-120 153 -120 266q0 71 250 140t250 233q0 131 -182.5 264t-325.5 133q-173 0 -446 -118q-135 -103 -270 -103q-165 0 -330.5 95
t-300.5 95q-175 0 -283 -138q239 59 393.5 -18t154.5 -285q0 -148 -200 -278q19 -50 74 -75t138 -25t241 178q110 -158 186 -158t185 78.5t216 322.5q0 -395 -120 -578t-270 -183t-344 167q-181 -167 -323 -167q-143 0 -283 137.5t-160 362.5q240 0 370 42.5t130 110.5
q0 67 -169 72t-331 -75v520q74 134 235 232t314 98q152 -1 360 -151t280 -150q62 0 62 81q0 80 -155 147q-156 67 -105.5 169.5t175.5 102.5q124 0 229 -80t105 -225q0 -69 -36 -137q47 47 98 95q158 148 263 148q147 0 305 -97q19 220 19 253q1 45 -49 45t-100 -60v5
q0 196 71 274q72 80 176 80q103 0 153 -69q50 -70 50 -170q-1 -101 -101 -222q-69 -83 -118 -208z" />
    <glyph glyph-name="uni178b.au" horiz-adv-x="2650" 
d="M2400 450v117q-59 -55 -81.5 -74t-2 -53t52 -34t31.5 44zM2381 1331q119 -97 119 -181v-950q0 -60 -60 -130t-140 -70q-161 0 -280 154q-120 153 -120 266q0 71 250 140t250 233q0 131 -182.5 264t-325.5 133q-158 0 -335 -73q-31 -26 -72 -26q-85 -1 -156 34t-144.5 15
t-103.5 -140q255 80 412 -35t157 -364q0 -235 -200 -418t-540 -183q-370 0 -555 137.5t-205 412.5q240 0 356 81t145 177t29 130q0 106 -67.5 199t-162.5 93q-149 0 -149 -75t80 -75q69 0 119 50q82 -51 106 -160.5t-42 -189.5t-161 -80t-174 87.5t-79 282.5q0 200 100 315
t231 115q185 0 272 -108t87 -324q0 -107 -49.5 -282t-180.5 -346q19 -50 134 -85t306 -35q205 0 327.5 60t122.5 200q0 55 -122.5 102.5t-397.5 -32.5v574q0 76 129 176t165 100t97.5 -41t95 -26.5t33.5 56.5q0 140 -213 94q-143 57 -119.5 181.5t148.5 124.5q124 0 229 -80
t105 -325q0 -124 -21 -216q36 40 83 84q158 148 263 148q147 0 305 -97q19 220 19 253q1 45 -49 45t-100 -60v5q0 196 71 274q72 80 176 80q103 0 153 -69q50 -70 50 -170q-1 -101 -101 -222q-69 -83 -118 -208z" />
    <glyph glyph-name="uni178c.au" horiz-adv-x="2650" 
d="M2400 450v117q-59 -55 -81.5 -74t-2 -53t52 -34t31.5 44zM2381 1331q119 -97 119 -181v-950q0 -60 -60 -130t-140 -70q-161 0 -280 154q-120 153 -120 266q0 71 250 140t250 233q0 131 -182.5 239t-325.5 108q-104 0 -265 -121q-22 -60 -65 -110q-87 -101 -350 -240
q-262 -139 -572 -239q19 -50 79 -85t171 -35q212 0 316 82.5t104 227.5q340 130 340 10v-430q-1 -225 -220 -225q-73 0 -170 25q50 0 50 294q-160 -294 -510 -294q-250 0 -450 152q-200 153 -200 276v122q450 30 798.5 211.5t348.5 294.5q-51 124 -193 124q-111 0 -221 -167
q-213 167 -389 167q-155 0 -155 -190v-45q0 -45 60 -45q39 160 185 160q206 0 206 -171q0 -189 -339 -189q-143 0 -222 98t-79 253q0 189 189 319t280 130t162 -34t199 -123q127 157 261 157q133 0 271 -104q121 -92 136 -209q36 82 96 156q126 157 231 157q147 0 305 -97
q19 220 19 253q1 45 -49 45t-100 -60v5q0 196 71 274q72 80 176 80q103 0 153 -69q50 -70 50 -170q-1 -101 -101 -222q-69 -83 -118 -208z" />
    <glyph glyph-name="uni178d.au" horiz-adv-x="3440" 
d="M1550 400v50q-59 0 -81.5 -13t-2 -47t52 -34t31.5 44zM3190 450v117q-59 -55 -81.5 -74t-2 -53t52 -34t31.5 44zM3168 1322q122 -78 122 -152v-970q0 -60 -60 -130t-140 -70q-161 0 -280 154q-120 153 -120 266q0 71 250 140t250 233q0 111 -279 254q-280 143 -490 143
q-141 0 -249.5 -45t-190.5 -145q295 80 432 -35t137 -377t-130 -425t-305 -163q-315 0 -351 322q-34 128 -114 128v-310q-120 -140 -200 -140q-161 0 -280 154q-120 153 -120 296q148 150 335 150h165v193q0 111 -157.5 229t-270.5 118q-114 0 -232 -113q-182 113 -331 113
q-109 -1 -194 -110q-85 -110 -85 -280q0 -174 60 -281t210 -92t150 84q0 40 -27 63.5t-53.5 -7t-102.5 -30.5q-142 0 -142 178q0 238 202 238q223 0 223 -345q0 -558 -269 -558q-381 0 -381 750q0 360 135 555q134 195 303 195q109 0 204.5 -57t177.5 -138q130 175 235 185
q145 10 295 -103t150 -217v-570q90 0 160 -52q69 -53 110 -140q40 -88 178 -88q157 0 230 75q72 75 72 173q0 67 -102.5 114.5t-417.5 -32.5v524q0 76 218 201t438 125q270 0 512 -113q10 -5 20 -9q21 243 21 278q1 45 -49 45t-100 -60v5q0 196 71 274q72 80 176 80
q103 0 153 -69q50 -70 50 -170q-1 -101 -101 -222q-72 -86 -121 -217z" />
    <glyph glyph-name="uni178e.au" horiz-adv-x="4033" 
d="M2930 450v117q-59 -55 -81.5 -74t-2 -53t52 -34t31.5 44zM3783 450v117q-59 -55 -81.5 -74t-2 -53t52 -34t31.5 44zM3764 1331q119 -97 119 -181v-950q0 -60 -60 -130t-140 -70q-161 0 -280 154q-120 153 -120 266q0 71 250 140t250 233q0 131 -182.5 239t-325.5 108
q-98 0 -245 -107v-833q0 -60 -60 -130t-140 -70q-161 0 -280 154q-120 153 -120 266q0 71 250 140t250 233q0 111 -279 254q-280 143 -450 143q-141 0 -264 -45q-124 -45 -176 -145q255 80 392 -35t137 -364q0 -305 -150 -453t-300 -148t-304 167q-191 -167 -313 -167
q-143 0 -278 137.5t-155 362.5q0 194 358 417q-81 146 -210 209.5t-269 63.5q-161 0 -244 -53q-84 -54 -157 -116q155 39 268.5 -28t113.5 -275q0 -118 -134 -222q-171 -134 -130 -166.5t79 34t92 66.5q143 0 143 -160q0 -270 -275 -270t-275 280q0 90 52 177q52 86 248 159
q-16 112 -126.5 112t-173.5 -58v446q70 144 216.5 264t405.5 120q209 0 428 -120t296 -359q-1 -86 -184 -202q-184 -116 -184 -242q65 -152 148 -194.5t176 -42.5t211 178q110 -158 206 -158t183.5 58.5t87.5 161.5q0 55 -102.5 102.5t-377.5 -32.5v524q0 76 198 201
t418 125q270 0 512 -113q227 -106 241 -204q36 84 98 160q126 157 231 157q147 0 305 -97q19 220 19 253q1 45 -49 45t-100 -60v5q0 196 71 274q72 80 176 80q103 0 153 -69q50 -70 50 -170q-1 -101 -101 -222q-69 -83 -118 -208z" />
    <glyph glyph-name="uni178f.au" horiz-adv-x="2650" 
d="M2400 450v117q-59 -55 -81.5 -74t-2 -53t52 -34t31.5 44zM1550 450v117q-59 -55 -81.5 -74t-2 -53t52 -34t31.5 44zM845 1060q277 0 805 -80v-840q-120 -140 -200 -140q-161 0 -280 154q-120 153 -120 296q208 20 467 183q-471 77 -721 77q-251 0 -373.5 -65t-122.5 -225
t238 -160q43 0 56 52q-194 -5 -194 149q0 153 216 173q216 19 283 -151t-31 -326q-99 -157 -278 -157q-440 0 -440 495q0 315 209 440t486 125zM2371 1303q129 -81 129 -153v-950q0 -60 -60 -130t-140 -70q-161 0 -280 154q-120 153 -120 266q0 71 250 140t250 233
q0 171 -342 309t-451 138q-110 0 -254 -83t-236 -83q-95 0 -305.5 89t-267.5 89q-59 0 -196 -55q129 -4 227 -126l-166 -64q-115 62 -259 47v206q464 240 636 240q129 0 332 -90t252 -90t209 90q159 90 253 90q122 0 395 -122q26 -12 49 -23q23 264 23 301q1 45 -49 45
t-100 -60v5q0 196 71 274q72 80 176 80q103 0 153 -69q50 -70 50 -170q-1 -101 -101 -222q-77 -93 -128 -236z" />
    <glyph glyph-name="uni1790.au" horiz-adv-x="2650" 
d="M2400 450v117q-59 -55 -81.5 -74t-2 -53t52 -34t31.5 44zM2381 1331q119 -97 119 -181v-950q0 -60 -60 -130t-140 -70q-161 0 -280 154q-120 153 -120 266q0 71 250 140t250 233q0 131 -182.5 264t-325.5 133q-169 0 -519 -106q-99 -55 -197 -55q-165 0 -330.5 65
t-300.5 65q-165 0 -271 -123q244 54 382 -23q154 -87 154 -295q0 -148 -200 -278q19 -50 134 -85t306 -35q205 0 327.5 88.5t122.5 191.5q0 48 -9 87q-8 -20 -22 -40q-33 -49 -93.5 -75.5t-125.5 -26.5t-125.5 26.5t-93.5 75t-33 100.5q0 53 34 102t94 75t124 26
q400 0 400 -350q0 -234 -200 -417t-540 -183q-370 0 -555 137.5t-205 362.5q240 0 370 52.5t130 120t-169 57.5t-331 -80v520q74 134 235 232t314 98q152 -1 360 -121t280 -120q62 0 62 81q0 80 -155 147q-156 67 -105.5 169.5t175.5 102.5q124 0 229 -80t105 -225
q0 -73 -41 -146q35 27 71 54q190 138 295 138q147 0 305 -97q19 220 19 253q1 45 -49 45t-100 -60v5q0 196 71 274q72 80 176 80q103 0 153 -69q50 -70 50 -170q-1 -101 -101 -222q-69 -83 -118 -208z" />
    <glyph glyph-name="uni1791.au" horiz-adv-x="2650" 
d="M2400 450v117q-59 -55 -81.5 -74t-2 -53t52 -34t31.5 44zM2381 1331q119 -97 119 -181v-950q0 -60 -60 -130t-140 -70q-161 0 -280 154q-120 153 -120 266q0 71 250 140t250 233q0 131 -182.5 239t-325.5 108q-97 0 -243 -105q1 -14 1 -27q0 -102 -99 -215t-287 -113
q-304 0 -304 205t191 205q130 1 180 -69q-9 -77 80.5 -79t89.5 53q0 67 -162 131t-386 64q-291 0 -424.5 -53.5t-226.5 -115.5q199 39 353.5 -28t154.5 -275q0 -178 -219 -323q58 -65 133 -65q85 0 240.5 145t355.5 145q125 0 227.5 -88.5t102.5 -212.5t-87.5 -221.5
t-212.5 -97.5t-188 50q-62 50 -62 150t50 120q50 50 150 50q0 -50 50 -50t50 45q0 65 -150 65q-130 0 -245 -215t-385 -215q-180 0 -325 118q-145 117 -145 250v132h100q190 0 295 42.5t105 110t-169 57.5t-331 -60v466q90 144 284.5 264t514.5 120q291 0 496 -155
q135 -102 181 -215q37 113 118 213q126 157 231 157q147 0 305 -97q19 220 19 253q1 45 -49 45t-100 -60v5q0 196 71 274q72 80 176 80q103 0 153 -69q50 -70 50 -170q-1 -101 -101 -222q-69 -83 -118 -208z" />
    <glyph glyph-name="uni1792.au" horiz-adv-x="2650" 
d="M2400 450v117q-59 -55 -81.5 -74t-2 -53t52 -34t31.5 44zM2371 1303q129 -81 129 -153v-950q0 -60 -60 -130t-140 -70q-161 0 -280 154q-120 153 -120 266q0 71 250 140t250 233q0 171 -322 299t-471 128q-110 0 -254 -73t-236 -73q-95 0 -289.5 66t-291.5 66
q-89 0 -183 -60t-97 -114q257 61 400 -19q154 -87 154 -295q0 -148 -200 -278q19 -50 74 -75t138 -25t241 178q110 -158 186 -158t163.5 78.5t87.5 211.5q0 48 -9 87q-8 -20 -22 -40q-33 -49 -93.5 -75.5t-125.5 -26.5t-125.5 26.5t-93.5 75t-33 100.5q0 53 34 102t94 75
t124 26q400 0 400 -350q0 -284 -120 -467t-270 -183t-344 167q-181 -167 -323 -167q-143 0 -283 137.5t-160 362.5q240 0 370 42.5t130 120t-169 67.5t-331 -80v520q82 118 273 224t363 106q129 0 332 -90t252 -90t209 90q159 90 253 90q122 0 395 -122q26 -12 49 -23
q23 264 23 301q1 45 -49 45t-100 -60v5q0 196 71 274q72 80 176 80q103 0 153 -69q50 -70 50 -170q-1 -101 -101 -222q-77 -93 -128 -236z" />
    <glyph glyph-name="uni1793.au" horiz-adv-x="2650" 
d="M650 400v50q-59 0 -81.5 -13t-2 -47t52 -34t31.5 44zM2400 450v117q-59 -55 -81.5 -74t-2 -53t52 -34t31.5 44zM2381 1331q119 -97 119 -181v-950q0 -60 -60 -130t-140 -70q-161 0 -280 154q-120 153 -120 266q0 71 250 140t250 233q0 131 -182.5 239t-325.5 108
q-97 0 -243 -105q1 -14 1 -27q0 -142 -99 -255t-287 -113q-304 0 -304 205t191 205q130 1 180 -69q-9 -77 80.5 -79t89.5 53q0 97 -162 166t-386 69q-291 0 -424.5 -53.5t-226.5 -115.5q123 34 261 -18t187 -153v-250q90 0 160 -52q69 -53 110 -140q40 -88 178 -88
q167 0 269.5 78t182.5 293q0 -365 -130 -528t-305 -163q-315 0 -351 322q-34 128 -114 128v-310q-120 -140 -200 -140q-161 0 -280 154q-120 153 -120 296q148 150 335 150h137q-28 59 -84 83q-113 47 -388 -33v466q90 144 284.5 264t514.5 120q291 0 496 -155
q135 -102 181 -215q37 113 118 213q126 157 231 157q147 0 305 -97q19 220 19 253q1 45 -49 45t-100 -60v5q0 196 71 274q72 80 176 80q103 0 153 -69q50 -70 50 -170q-1 -101 -101 -222q-69 -83 -118 -208z" />
    <glyph glyph-name="uni1794.au" horiz-adv-x="2650" 
d="M2400 450v117q-59 -55 -81.5 -74t-2 -53t52 -34t31.5 44zM2371 1303q129 -81 129 -153v-950q0 -60 -60 -130t-140 -70q-161 0 -280 154q-120 153 -120 266q0 71 250 140t250 233q0 171 -322 299t-471 128q-110 0 -254 -73t-236 -73q-95 0 -289.5 66t-291.5 66
q-89 0 -183 -60t-97 -114q257 61 400 -19q154 -87 154 -295q0 -148 -200 -278q19 -50 134 -85t306 -35q205 0 327.5 88.5t122.5 241.5q-45 -55 -110 -55t-115.5 26.5t-78.5 75t-28 100.5q0 53 29 102t89 75t184 26q180 0 180 -350v-550q0 -200 -140 -200t-140 71.5t65 114.5
q51 33 62 144q-22 -24 -47 -47q-200 -183 -540 -183q-370 0 -555 137.5t-205 362.5q240 0 370 52.5t130 120t-169 57.5t-331 -80v520q82 118 273 224t363 106q129 0 332 -90t252 -90t209 90q159 90 253 90q122 0 395 -122q26 -12 49 -23q23 264 23 301q1 45 -49 45t-100 -60
v5q0 196 71 274q72 80 176 80q103 0 153 -69q50 -70 50 -170q-1 -101 -101 -222q-77 -93 -128 -236z" />
    <glyph glyph-name="uni1795.au" horiz-adv-x="2650" 
d="M2400 450v117q-59 -55 -81.5 -74t-2 -53t52 -34t31.5 44zM2381 1331q119 -97 119 -181v-950q0 -60 -60 -130t-140 -70q-161 0 -280 154q-120 153 -120 266q0 71 250 140t250 233q0 131 -182.5 264t-325.5 133q-167 0 -496 -92q-110 -69 -220 -69q-165 0 -330.5 65
t-300.5 65q-165 0 -289 -127q111 26 201 26q118 0 199 -45q154 -87 154 -295q0 -148 -200 -278q19 -50 74 -75t138 -25t241 178q110 -158 186 -158t163.5 78.5t87.5 171.5q0 48 -9 87q-8 -20 -22 -40q-33 -49 -93.5 -75.5t-125.5 -26.5t-125.5 26.5t-93.5 75t-33 100.5
q0 53 34 102t94 75t124 26q400 0 400 -350q0 -244 -120 -427t-270 -183t-344 167q-181 -167 -323 -167q-143 0 -283 137.5t-160 362.5q240 0 370 42.5t130 120t-169 67.5t-331 -80v520q74 134 235 232t314 98q152 -1 360 -121t280 -120q62 0 62 81q0 80 -155 147
q-156 67 -105.5 169.5t175.5 102.5q124 0 229 -80t105 -225q0 -101 -76 -199q58 48 119 99q177 146 282 146q147 0 305 -97q19 220 19 253q1 45 -49 45t-100 -60v5q0 196 71 274q72 80 176 80q103 0 153 -69q50 -70 50 -170q-1 -101 -101 -222q-69 -83 -118 -208z" />
    <glyph glyph-name="uni1796.au" horiz-adv-x="2650" 
d="M1550 450v117q-59 -55 -81.5 -74t-2 -53t52 -34t31.5 44zM2400 450v117q-59 -55 -81.5 -74t-2 -53t52 -34t31.5 44zM2381 1331q119 -97 119 -181v-950q0 -60 -60 -130t-140 -70q-161 0 -280 154q-120 153 -120 266q0 71 250 140t250 233q0 111 -182 229
q-183 118 -326 118q-97 0 -242 -105v-835q0 -60 -60 -130t-140 -70q-161 0 -280 154q-120 153 -120 266q0 71 250 140t250 233q0 111 -157 229q-158 118 -271 118q-114 0 -232 -113q-182 113 -331 113q-109 -1 -194 -110q-85 -110 -85 -280q0 -174 60 -281t210 -92t150 84
q0 40 -27 63.5t-53.5 -7t-102.5 -30.5q-142 0 -142 178q0 238 202 238q223 0 223 -345q0 -558 -269 -558q-381 0 -381 750q0 360 135 555q134 195 303 195q109 0 204.5 -57t177.5 -138q130 195 235 195q145 0 295 -113q136 -103 149 -198q36 81 95 154q126 157 231 157
q147 0 305 -97q19 220 19 253q1 45 -49 45t-100 -60v5q0 196 71 274q72 80 176 80q103 0 153 -69q50 -70 50 -170q-1 -101 -101 -222q-69 -83 -118 -208z" />
    <glyph glyph-name="uni1797.au" horiz-adv-x="2650" 
d="M2400 450v117q-59 -55 -81.5 -74t-2 -53t52 -34t31.5 44zM1550 450v117q-59 -55 -81.5 -74t-2 -53t52 -34t31.5 44zM845 1060q277 0 805 -80v-840q-120 -140 -200 -140q-161 0 -280 154q-120 153 -120 296q208 20 467 183q-471 77 -701 77q-151 0 -246 -57
q330 -76 330 -316q0 -337 -376 -337q-374 0 -374 285q0 241 245 243q145 1 197 -93q52 -93 -47 -154q-98 -60 -191 22q-93 81 -114 53t42 -83t240 -44q138 11 138 166q0 112 -150 163.5t-360 6.5q0 205 209 350t486 145zM2371 1303q129 -81 129 -153v-950q0 -60 -60 -130
t-140 -70q-161 0 -280 154q-120 153 -120 266q0 71 250 140t250 233q0 171 -342 309t-451 138q-110 0 -254 -83t-236 -83q-95 0 -305.5 89t-267.5 89q-59 0 -196 -55q129 -4 227 -126l-166 -64q-115 62 -259 47v206q464 240 636 240q129 0 332 -90t252 -90t209 90
q159 90 253 90q122 0 395 -122q26 -12 49 -23q23 264 23 301q1 45 -49 45t-100 -60v5q0 196 71 274q72 80 176 80q103 0 153 -69q50 -70 50 -170q-1 -101 -101 -222q-77 -93 -128 -236z" />
    <glyph glyph-name="uni1798.au" horiz-adv-x="2540" 
d="M2290 450v117q-59 -55 -81.5 -74t-2 -53t52 -34t31.5 44zM849 732q132 -121 246 -141.5t266 -19.5q-69 -125 -219 -157q-149 -31 -422 68q113 94 129 250zM2268 1322q122 -78 122 -152v-970q0 -60 -60 -130t-140 -70q-161 0 -280 154q-120 153 -120 266q0 71 250 140
t250 233q0 111 -279 254q-280 143 -450 143q-141 0 -264 -45q-124 -45 -176 -145q255 80 392 -35t137 -364q0 -235 -200 -418t-540 -183q-370 0 -555 137.5t-205 362.5q240 0 370 42.5t130 110t-169 57.5t-331 -60v574q0 76 144 176t188 100t157.5 -59.5t258.5 -76.5
q-109 -263 -203.5 -263.5t-165.5 34.5t-149.5 15t-138.5 -150q260 60 414.5 -7t154.5 -275q0 -148 -200 -278q19 -50 134 -85t306 -35q205 0 327.5 60t122.5 200q0 55 -102.5 102.5t-377.5 -32.5v524q0 76 198 201t418 125q270 0 512 -113q10 -5 20 -9q21 243 21 278
q1 45 -49 45t-100 -60v5q0 196 71 274q72 80 176 80q103 0 153 -69q50 -70 50 -170q-1 -101 -101 -222q-72 -86 -121 -217z" />
    <glyph glyph-name="uni1799.au" horiz-adv-x="3340" 
d="M3090 450v117q-59 -55 -81.5 -74t-2 -53t52 -34t31.5 44zM3068 1322q122 -78 122 -152v-970q0 -60 -60 -130t-140 -70q-161 0 -280 154q-120 153 -120 266q0 71 250 140t250 233q0 111 -279 254q-280 143 -490 143q-141 0 -249.5 -45t-190.5 -145q295 80 432 -35
t137 -364q0 -235 -200 -418t-520 -183q-245 0 -431 80q-164 -80 -419 -80q-730 0 -730 830q0 670 390 670q310 0 310 -471q0 -241 -94.5 -339.5t-213.5 -84.5t-177 106t-2 194t147 135q38 -59 106 -73q78 -17 94 57q15 73 -131 104q-93 19 -188 -58t-117 -180
q-7 -34 1.5 -133.5t92.5 -207.5t225.5 -158.5t396.5 -50.5q205 0 357.5 65t152.5 175q0 55 -122.5 102.5t-397.5 -32.5v574q0 76 129 176t165 100t159.5 -68t214.5 -68q-79 -273 -163.5 -273.5t-155.5 34.5t-144.5 15t-103.5 -140q255 80 412 -35t157 -364q0 -137 -68 -256
q107 -25 268 -25q205 0 327.5 60t122.5 200q0 55 -102.5 102.5t-417.5 -32.5v524q0 76 218 201t438 125q270 0 512 -113q10 -5 20 -9q21 243 21 278q1 45 -49 45t-100 -60v5q0 196 71 274q72 80 176 80q103 0 153 -69q50 -70 50 -170q-1 -101 -101 -222q-72 -86 -121 -217z
" />
    <glyph glyph-name="uni179a.au" horiz-adv-x="1800" 
d="M650 450v117q-59 -55 -81.5 -74t-2 -53t52 -34t31.5 44zM1550 450v117q-59 -55 -81.5 -74t-2 -53t52 -34t31.5 44zM1531 1331q119 -97 119 -181v-950q0 -60 -60 -130t-140 -70q-161 0 -280 154q-120 153 -120 266q0 71 250 140t250 233q0 131 -182.5 264t-325.5 133
q-161 0 -273 -49.5t-134 -49.5q-85 -1 -156 34t-134.5 15t-93.5 -140q174 55 312 3t187 -153v-710q-120 -140 -200 -140q-161 0 -280 154q-120 153 -120 296q208 20 467 183h5q-28 26 -84 50q-113 47 -388 -33v574q0 76 129 176t165 100t150 -68q111 -67 275 -74
q153 142 256 142q147 0 305 -97q19 220 19 253q1 45 -49 45t-100 -60v5q0 196 71 274q72 80 176 80q103 0 153 -69q50 -70 50 -170q-1 -101 -101 -222q-69 -83 -118 -208z" />
    <glyph glyph-name="uni179b.au" horiz-adv-x="3070" 
d="M2820 450v117q-59 -55 -81.5 -74t-2 -53t52 -34t31.5 44zM2798 1322q122 -78 122 -152v-970q0 -60 -60 -130t-140 -70q-161 0 -280 154q-120 153 -120 266q0 71 250 140t250 233q0 111 -279 254q-280 143 -490 143q-141 0 -249.5 -45t-190.5 -145q295 80 432 -35
t137 -364q0 -260 -190 -430.5t-550 -170.5q-230 0 -405 103.5t-258 309.5l321 464q-81 146 -195 230q-114 83 -254 83q-141 0 -224 -53q-84 -54 -157 -116q155 39 268.5 -28t113.5 -275q0 -118 -134 -222q-171 -134 -130 -166.5t79 34t92 66.5q143 0 143 -160
q0 -270 -275 -270t-275 280q0 90 52 177q52 86 248 159q-16 112 -126.5 112t-173.5 -58v446q70 144 201.5 264t370.5 120t402 -109t216 -216l53 -108l-272 -464q53 -144 160.5 -213.5t298.5 -69.5q205 0 327.5 60t122.5 200q0 55 -102.5 102.5t-417.5 -32.5v524
q0 76 218 201t438 125q270 0 512 -113q10 -5 20 -9q21 243 21 278q1 45 -49 45t-100 -60v5q0 196 71 274q72 80 176 80q103 0 153 -69q50 -70 50 -170q-1 -101 -101 -222q-72 -86 -121 -217z" />
    <glyph glyph-name="uni179c.au" horiz-adv-x="2650" 
d="M2400 450v117q-59 -55 -81.5 -74t-2 -53t52 -34t31.5 44zM2371 1303q129 -81 129 -153v-950q0 -60 -60 -130t-140 -70q-161 0 -280 154q-120 153 -120 266q0 71 250 140t250 233q0 171 -322 299t-471 128q-110 0 -254 -73t-236 -73q-95 0 -289.5 66t-291.5 66
q-89 0 -183 -60t-97 -134q0 -76 44 -62q231 100 555.5 100t559.5 -125t235 -374q0 -275 -250 -413t-550 -138t-500 112q-200 113 -200 378q0 155 100 232q100 78 330 78q150 0 275 -48.5t125 -158.5t-142.5 -164t-335.5 15q-119 47 -122 156q-80 0 -80 -110q0 -60 94.5 -120
t295.5 -60q270 0 440 62q170 63 170 188q0 170 -212 254q-212 85 -424 85t-320.5 -30t-193.5 -80v381q82 118 273 224t363 106q129 0 332 -90t252 -90t209 90q159 90 253 90q122 0 395 -122q26 -12 49 -23q23 264 23 301q1 45 -49 45t-100 -60v5q0 196 71 274q72 80 176 80
q103 0 153 -69q50 -70 50 -170q-1 -101 -101 -222q-77 -93 -128 -236z" />
    </font>
</defs>
</svg>
